SplineFontDB: 3.0
FontName: Bevan
FullName: Bevan
FamilyName: Bevan
Weight: Book
Copyright: Copyright (c) 2011 by vernon adams. All rights reserved.
Version: 1.000
ItalicAngle: 0
UnderlinePosition: -205
UnderlineWidth: 102
Ascent: 1638
Descent: 410
LayerCount: 2
Layer: 0 0 "Back"  1
Layer: 1 0 "Fore"  0
XUID: [1021 823 301787212 14470943]
FSType: 0
OS2Version: 3
OS2_WeightWidthSlopeOnly: 0
OS2_UseTypoMetrics: 1
CreationTime: 1297990544
ModificationTime: 1340966373
PfmFamily: 17
TTFWeight: 400
TTFWidth: 5
LineGap: 0
VLineGap: 0
Panose: 2 0 0 0 0 0 0 0 0 0
OS2TypoAscent: 727
OS2TypoAOffset: 1
OS2TypoDescent: -515
OS2TypoDOffset: 1
OS2TypoLinegap: 0
OS2WinAscent: -20
OS2WinAOffset: 1
OS2WinDescent: 2
OS2WinDOffset: 1
HheadAscent: -20
HheadAOffset: 1
HheadDescent: -2
HheadDOffset: 1
OS2SubXSize: 1434
OS2SubYSize: 1331
OS2SubXOff: 0
OS2SubYOff: 287
OS2SupXSize: 1434
OS2SupYSize: 1331
OS2SupXOff: 0
OS2SupYOff: 977
OS2StrikeYSize: 102
OS2StrikeYPos: 512
OS2Vendor: 'newt'
OS2CodePages: 20000093.00000000
OS2UnicodeRanges: a00000af.5000204b.00000000.00000000
Lookup: 258 0 0 "'kern' Horizontal Kerning in Latin lookup 0"  {"'kern' Horizontal Kerning in Latin lookup 0 per glyph data 0"  "'kern' Horizontal Kerning in Latin lookup 0 per glyph data 1"  "'kern' Horizontal Kerning in Latin lookup 0 kerning class 2"  } ['kern' ('latn' <'dflt' > ) ]
MarkAttachClasses: 1
DEI: 91125
KernClass2: 32+ 34 "'kern' Horizontal Kerning in Latin lookup 0 kerning class 2" 
 50 A Agrave Aacute Acircumflex Atilde Adieresis Aring
 10 C Ccedilla
 59 D O Q Eth Ograve Oacute Ocircumflex Otilde Odieresis Oslash
 43 E AE Egrave Eacute Ecircumflex Edieresis OE
 41 H I M Igrave Iacute Icircumflex Idieresis
 8 L Lslash
 8 N Ntilde
 21 S Scaron Scommaaccent
 22 T Tcommaaccent uni021A
 37 U Ugrave Uacute Ucircumflex Udieresis
 18 Y Yacute Ydieresis
 8 Z Zcaron
 50 a agrave aacute acircumflex atilde adieresis aring
 9 b p thorn
 10 c ccedilla
 18 d l lslash uniFB02

StartChar: exclam
Encoding: 33 33 4
Width: 802
GlyphClass: 2
Flags: HW
LayerCount: 2
Fore
SplineSet
610 558 m 1
 189 556 l 1
 107 1331 l 1
 107 1630 l 1
 694 1630 l 1
 694 1331 l 1
 610 558 l 1
686 213 m 0
 686 56 560 -32 399 -32 c 0
 242 -32 122 58 122 213 c 0
 122 368 244 463 399 463 c 0
 557 463 686 369 686 213 c 0
EndSplineSet
EndChar

StartChar: quotedbl
Encoding: 34 34 5
Width: 1147
GlyphClass: 2
Flags: HW
LayerCount: 2
Fore
SplineSet
44 1624 m 1
 524 1624 l 1
 424 945 l 1
 124 945 l 1
 44 1624 l 1
631 1624 m 1
 1111 1624 l 1
 1011 945 l 1
 711 945 l 1
 631 1624 l 1
EndSplineSet
EndChar

StartChar: numbersign
Encoding: 35 35 6
Width: 1413
GlyphClass: 2
Flags: HW
LayerCount: 2
Fore
SplineSet
409 1246 m 1
 493 1623 l 1
 817 1623 l 1
 730 1246 l 1
 888 1246 l 1
 972 1623 l 1
 1296 1623 l 1
 1209 1246 l 1
 1349 1246 l 1
 1286 947 l 1
 1141 947 l 1
 1058 585 l 1
 1202 585 l 1
 1139 286 l 1
 989 286 l 1
 924 0 l 1
 611 0 l 1
 674 286 l 1
 510 286 l 1
 445 0 l 1
 132 0 l 1
 195 286 l 1
 59 286 l 1
 122 585 l 1
 262 585 l 1
 342 947 l 1
 206 947 l 1
 269 1246 l 1
 409 1246 l 1
579 585 m 1
 741 585 l 1
 821 947 l 1
 662 947 l 1
 579 585 l 1
EndSplineSet
EndChar

StartChar: dollar
Encoding: 36 36 7
Width: 1358
GlyphClass: 2
Flags: HW
LayerCount: 2
Fore
SplineSet
1294 513 m 0
 1294 238.506582011 1079.37422718 47.4103038983 816 35 c 1
 816 -166 l 1
 585 -166 l 1
 585 48 l 1
 492 67 409 93 334 128 c 1
 290 66 l 1
 95 66 l 1
 95 545 l 1
 342 545 l 1
 350.87570466 443.81696688 479.207905339 298 585 298 c 1
 585 586 l 1
 335 654 89 736 89 1053 c 0
 89 1343 307 1498 591 1513 c 1
 591 1704 l 1
 818 1704 l 1
 818 1494 l 1
 853 1482 901 1462 962 1434 c 1
 1005 1477 l 1
 1185 1477 l 1
 1185 1034 l 1
 964 1034 l 1
 949 1098 903 1162 847 1214 c 0
 840 1221 823 1225 816 1225 c 1
 816 991 l 1
 1057.29992823 926.811841751 1294 815.685558066 1294 513 c 0
816 307 m 1
 863 307 916 353 916 399 c 1
 917 404 917 409 917 414 c 0
 917 474 873 519 816 527 c 1
 816 307 l 1
589 1270 m 1
 537 1270 475 1230 475 1180 c 0
 475 1114 531 1072 589 1059 c 1
 589 1270 l 1
EndSplineSet
EndChar

StartChar: percent
Encoding: 37 37 8
Width: 2728
GlyphClass: 2
Flags: HW
LayerCount: 2
Fore
SplineSet
2670 555 m 0
 2670 238.577731523 2509.64011013 -18 2193 -18 c 0
 1865 -18 1675 193 1675 521 c 0
 1675 838.277643173 1854.74455214 1096 2169 1096 c 0
 2494 1096 2670 879 2670 555 c 0
2175 755 m 0
 2085.86319971 755 2079 659.689138409 2079 540 c 0
 2079 401 2110 332 2172 332 c 0
 2260 332 2269 425 2269 513 c 2
 2269 540 l 2
 2269 551 2270 561 2270 572 c 0
 2270 659 2253.31347266 755 2175 755 c 0
938 0 m 1
 1279 1623 l 1
 1783 1623 l 1
 1441 0 l 1
 938 0 l 1
1051 1112 m 0
 1051 795.577731523 890.640110125 539 574 539 c 0
 246 539 56 750 56 1078 c 0
 56 1394.58988354 236.837232704 1653 550 1653 c 0
 875 1653 1051 1436 1051 1112 c 0
650 1096 m 2
 650 1193 646.354855985 1312 556 1312 c 0
 465.950013881 1312 460 1216 460 1097 c 0
 460 958 491 889 553 889 c 0
 641 889 650 982 650 1070 c 2
 650 1096 l 2
EndSplineSet
EndChar

StartChar: ampersand
Encoding: 38 38 9
Width: 1728
GlyphClass: 2
Flags: HW
LayerCount: 2
Fore
SplineSet
483 -27 m 0
 226.491096187 -27 30 126.391999967 30 380 c 0
 30 614.053412707 163 731 344 809 c 1
 267 894 225 993.982907231 225 1111 c 0
 225 1378.23953489 439.61436994 1515 706 1515 c 0
 927.338273482 1515 1130 1389.68111125 1130 1169 c 0
 1130 989 1059 931 961 844 c 1
 1140 669 l 1
 1167 693 l 2
 1187 711 1247 766 1247 796 c 0
 1247 819 1238 831 1220 831 c 2
 1173 831 l 1
 1173 1126 l 1
 1656 1126 l 1
 1656 837 l 1
 1609 821 1564.12348726 814.221963278 1542.72142428 792.064533369 c 130
 1278 518 l 1
 1281 517 1331 467 1426 368 c 1
 1656 368 l 1
 1656 0 l 1
 1117 0 l 1
 1084 33 1027 94 944 183 c 1
 821 47 667.043473125 -27 483 -27 c 0
548 589 m 1
 520 569 487 535 487 487 c 0
 487 400 554 335 641 335 c 0
 682 335 720 348 755 375 c 1
 548 589 l 1
784 1025 m 1
 833.589589601 1059.09284285 876 1083.18367956 876 1152 c 0
 876 1220 840 1273 772 1273 c 0
 720 1273 678 1226 678 1175 c 0
 678 1101.63406078 740.885962251 1059.90184008 784 1025 c 1
EndSplineSet
EndChar

StartChar: quotesingle
Encoding: 39 39 10
Width: 559
GlyphClass: 2
Flags: HW
LayerCount: 2
Fore
SplineSet
44 1624 m 1
 524 1624 l 1
 424 945 l 1
 124 945 l 1
 44 1624 l 1
EndSplineSet
EndChar

StartChar: parenleft
Encoding: 40 40 11
Width: 966
GlyphClass: 2
Flags: HW
LayerCount: 2
Fore
SplineSet
912 1321 m 1
 627 1314 554 1111 554 820 c 0
 554 546 631 314 906 314 c 1
 906 -17 l 1
 554 -17 320 122 182 336 c 128
 99 465 50 620 50 819 c 0
 50 1395.37609905 331.145967687 1653 912 1653 c 1
 912 1321 l 1
EndSplineSet
EndChar

StartChar: parenright
Encoding: 41 41 12
Width: 966
GlyphClass: 2
Flags: HW
LayerCount: 2
Fore
SplineSet
412 820 m 0
 412 1109.41110832 337.898663837 1313.67358287 54 1321 c 1
 54 1653 l 1
 633 1653 916 1395 916 819 c 0
 916 509 795 291 617 151 c 128
 487 49 292 -17 60 -17 c 1
 60 314 l 1
 335 314 412 546 412 820 c 0
EndSplineSet
EndChar

StartChar: asterisk
Encoding: 42 42 13
Width: 1347
GlyphClass: 2
Flags: HW
LayerCount: 2
Fore
SplineSet
603 1086 m 1
 568.866539095 1193.86173646 518 1332.36857427 518 1461 c 0
 518 1562 583 1641 679 1641 c 128
 775 1641 840 1562 840 1461 c 0
 840 1318.78202316 789.546675039 1201.52669388 754 1086 c 1
 835 1177 921.038544168 1299.53210457 1021 1364 c 0
 1059.03854417 1388.53210457 1098 1398 1134 1398 c 0
 1211 1398 1287 1331 1287 1243 c 0
 1287 1122.99136678 1175.81540494 1073.08284805 1082 1037 c 128
 1022 1014 851 964 795 945 c 1
 954.82410314 885.404571711 1287 854.586959991 1287 647 c 0
 1287 559 1211 492 1134 492 c 0
 1098 492 1059.23738722 501.768918098 1021 526 c 0
 915.054129284 593.138035757 835.213330741 708.454905011 754 804 c 1
 787.401429911 695.445352788 840 558.692007911 840 429 c 0
 840 328 775 249 679 249 c 128
 583 249 518 328 518 429 c 0
 518 565.980698313 570.505083529 690.267792352 603 804 c 1
 526 712 432.906332734 587.551825486 337 526 c 0
 298.906332734 501.551825486 260 492 224 492 c 0
 147 492 71 559 71 647 c 0
 71 767.811230969 181.306329272 816.040378204 276 852 c 128
 339 876 503 925 562 945 c 1
 400.375830679 999.836771734 71 1038.25280312 71 1243 c 0
 71 1331 147 1398 224 1398 c 0
 260 1398 298.973372073 1388.55109341 337 1364 c 0
 441.574674839 1296.48355823 522.628833258 1182.44540009 603 1086 c 1
EndSplineSet
EndChar

StartChar: plus
Encoding: 43 43 14
Width: 910
GlyphClass: 2
Flags: HW
LayerCount: 2
Fore
SplineSet
59 762 m 1
 331 762 l 1
 331 1051 l 1
 586 1051 l 1
 586 762 l 1
 851 762 l 1
 851 517 l 1
 586 517 l 1
 586 238 l 1
 331 238 l 1
 331 517 l 1
 59 517 l 1
 59 762 l 1
EndSplineSet
EndChar

StartChar: comma
Encoding: 44 44 15
Width: 716
GlyphClass: 2
Flags: HW
LayerCount: 2
Fore
SplineSet
95 -223 m 1
 239.348867862 -223 284 -166.200126589 284 -24 c 2
 284 0 l 1
 95 0 l 1
 95 366 l 1
 605 366 l 1
 621 263 629 171 629 89 c 0
 629 -280 463 -448 95 -448 c 1
 95 -223 l 1
EndSplineSet
EndChar

StartChar: hyphen
Encoding: 45 45 16
Width: 838
GlyphClass: 2
Flags: HW
LayerCount: 2
Fore
SplineSet
742 836 m 1
 742 537 l 1
 95 537 l 1
 95 836 l 1
 742 836 l 1
EndSplineSet
EndChar

StartChar: period
Encoding: 46 46 17
Width: 678
GlyphClass: 2
Flags: HW
LayerCount: 2
Fore
SplineSet
622 223 m 0
 622 67 493 -27 335 -27 c 0
 180 -27 58 68 58 223 c 0
 58 378 178 468 335 468 c 0
 496 468 622 380 622 223 c 0
EndSplineSet
EndChar

StartChar: slash
Encoding: 47 47 18
Width: 954
GlyphClass: 2
Flags: HW
LayerCount: 2
Fore
SplineSet
52 0 m 1
 543 1623 l 1
 907 1623 l 1
 405 0 l 1
 52 0 l 1
EndSplineSet
EndChar

StartChar: zero
Encoding: 48 48 19
Width: 1370
GlyphClass: 2
Flags: HW
LayerCount: 2
Fore
SplineSet
690 -26 m 1
 690 -26 l 1
 266.182690496 -26 68 267.98255016 68 695 c 0
 68 1084.46916145 298.194213772 1365 686 1365 c 0
 1071.83986024 1365 1302 1083.25894188 1302 695 c 0
 1302 273.185036062 1108.29928329 -26 690 -26 c 1
553 669 m 2
 553 539.649705944 557.621005578 349 685 349 c 0
 813 349 817 539 817 669 c 2
 817 713 l 2
 817 845 815 998 685 998 c 0
 560 998 552 853 552 729 c 0
 552 718 553 707.049875621 553 697 c 2
 553 669 l 2
EndSplineSet
EndChar

StartChar: one
Encoding: 49 49 20
Width: 924
GlyphClass: 2
Flags: HW
LayerCount: 2
Fore
SplineSet
137 0 m 1
 137 325 l 1
 226 325 l 1
 226 951 l 1
 62 951 l 1
 62 1208 l 1
 724 1375 l 1
 724 324 l 1
 826 324 l 1
 826 0 l 1
 137 0 l 1
EndSplineSet
EndChar

StartChar: two
Encoding: 50 50 21
Width: 1330
GlyphClass: 2
Flags: HW
LayerCount: 2
Fore
SplineSet
633 1388 m 0
 932.287698951 1388 1176 1231.60453548 1176 928 c 0
 1176 638.004984913 887.691360436 456.540277047 710 324 c 1
 871 324 l 1
 989 326 1087 350 1087 471 c 1
 1260 471 l 1
 1260 0 l 1
 117 0 l 1
 117 303 l 1
 288 369 418 458 528 566 c 128
 598 635 664 721 664 859 c 0
 664 945.092973 610 1031 527 1031 c 0
 442 1031 392 973 392 889 c 0
 392 838 431 783 454 760 c 1
 228 586 l 1
 142 663 80 782 80 934 c 2
 80 950 l 1
 74.9651743076 1231.95023878 358.947951188 1388 633 1388 c 0
EndSplineSet
EndChar

StartChar: three
Encoding: 51 51 22
Width: 1274
GlyphClass: 2
Flags: HW
LayerCount: 2
Fore
SplineSet
855 851 m 1
 1035.83598186 834.046626701 1206 666.987725529 1206 474 c 0
 1206 131 918 -18 557 -18 c 0
 350 -18 206 -5 83 78 c 1
 83 424 l 1
 204 327 327 278 453 278 c 0
 563 278 676 314 676 424 c 0
 676 551 553 592 427 592 c 0
 393.722011323 592 322.682781344 572 300 572 c 0
 288 572 281 573 279 582 c 1
 279 740 l 1
 625.935505468 1035.19950904 l 1
 401 1041 l 1
 298 1041 289 995 264 898 c 1
 70 898 l 1
 70 1352 l 1
 1139 1352 l 1
 1139 1088 l 2
 1139 1086 1044 1007 855 851 c 1
EndSplineSet
EndChar

StartChar: four
Encoding: 52 52 23
Width: 1281
GlyphClass: 2
Flags: HW
LayerCount: 2
Fore
SplineSet
1000 288 m 1
 1122 288 l 1
 1122 0 l 1
 417 0 l 1
 417 288 l 1
 544 288 l 1
 544 420 l 1
 11 420 l 1
 11 688 l 1
 562 1342 l 1
 1001 1342 l 1
 1001 675 l 1
 1228 675 l 1
 1228 420 l 1
 1000 420 l 1
 1000 288 l 1
544 678 m 1
 544 911 l 1
 355 678 l 1
 544 678 l 1
EndSplineSet
EndChar

StartChar: five
Encoding: 53 53 24
Width: 1167
GlyphClass: 2
Flags: HW
LayerCount: 2
Fore
SplineSet
554 446 m 0
 554 566.903582927 424.17025504 619 302 619 c 0
 241 619 181 598 124 555 c 1
 124 1360 l 1
 1028 1360 l 1
 1028 1063 l 1
 417 1063 l 1
 417 924 l 1
 442 924 l 1
 487 931 570 941 628 941 c 0
 884 941 1103 765 1103 513 c 0
 1103 151.319543392 840.577487408 -18 478 -18 c 0
 355 -18 174 15 113 75 c 1
 113 347 l 1
 149 347 l 1
 186 330 274 281 325 281 c 0
 437.08318486 281 554 330.893329994 554 446 c 0
EndSplineSet
EndChar

StartChar: six
Encoding: 54 54 25
Width: 1355
GlyphClass: 2
Flags: HW
LayerCount: 2
Fore
SplineSet
682 -18 m 0
 333.684824925 -18 55 186.788024147 55 534 c 0
 55 652 95 742 140 822 c 128
 257.923296703 1029.08481372 424.961763793 1181.96176379 588 1345 c 1
 1124 1345 l 1
 1124 1344 1101 1322 1054 1276 c 128
 997.518995935 1220.72071943 854.446721846 1088.4344276 829 1023 c 1
 1105 1009 1302 835 1302 550 c 0
 1302 441 1273 344 1214 256 c 128
 1112 103 923 -18 682 -18 c 0
792 544 m 0
 792 642.25800426 786.617162738 775 688 775 c 0
 578.958723412 775 571 663 571 550 c 0
 571 459 585 327 676 327 c 0
 753 327 792 399 792 544 c 0
EndSplineSet
EndChar

StartChar: seven
Encoding: 55 55 26
Width: 1232
GlyphClass: 2
Flags: HW
LayerCount: 2
Fore
SplineSet
281 878 m 1
 63 878 l 1
 63 1337 l 1
 1206 1337 l 1
 1206 1067 l 1
 680 0 l 1
 148 0 l 1
 653 1020 l 1
 412 1020 l 2
 312 1020 281 984 281 878 c 1
EndSplineSet
EndChar

StartChar: eight
Encoding: 56 56 27
Width: 1322
GlyphClass: 2
Flags: HW
LayerCount: 2
Fore
SplineSet
662 1378 m 0
 929.191197162 1378 1184 1281.64863442 1184 1010 c 0
 1184 868 1107 771 1000 730 c 1
 1174 663 1261 545 1261 375 c 0
 1261 71.4602700895 963.860149333 -18 661 -18 c 256
 357.375584579 -18 61 71.9260713133 61 375 c 0
 61 545 148 663 322 730 c 1
 215 771 138 868 138 1010 c 0
 138 1285 393.970150916 1378 662 1378 c 0
581 406 m 0
 581 295 608 240 661 240 c 256
 714 240 741 295 741 406 c 0
 741 521 715 578 663 578 c 0
 608 578 581 521 581 406 c 0
661 826 m 1
 661 826 l 1
 712 826 741 879 741 986 c 0
 741 1056 731.066144301 1122 663 1122 c 0
 590.937527103 1122 581 1059 581 986 c 0
 581 879 608 826 661 826 c 1
EndSplineSet
EndChar

StartChar: nine
Encoding: 57 57 28
Width: 1357
GlyphClass: 2
Flags: HW
LayerCount: 2
Fore
SplineSet
694 1368 m 0
 1035.75548998 1368 1304 1152.51000439 1304 813 c 0
 1304 663.278958278 1242.9045127 556.614859302 1180 461 c 128
 1065 288 913 147 772 0 c 1
 235 0 l 1
 290 54 l 2
 353 117 484 253 538 321 c 1
 270.44996737 321 53 516.944753913 53 782 c 0
 53 1133.00708181 335.118530947 1368 694 1368 c 0
575 782 m 0
 575 643 611 573 684 573 c 0
 749 573 782 645 782 790 c 0
 782 872 769 1012 686 1012 c 0
 612 1012 575 935 575 782 c 0
EndSplineSet
EndChar

StartChar: colon
Encoding: 58 58 29
Width: 724
GlyphClass: 2
Flags: HW
LayerCount: 2
Fore
SplineSet
644 846 m 0
 644 690 515 596 357 596 c 0
 202 596 80 691 80 846 c 0
 80 1001 200 1091 357 1091 c 0
 518 1091 644 1003 644 846 c 0
644 232 m 0
 644 76 515 -18 357 -18 c 0
 202 -18 80 77 80 232 c 0
 80 387 200 477 357 477 c 0
 518 477 644 389 644 232 c 0
EndSplineSet
EndChar

StartChar: semicolon
Encoding: 59 59 30
Width: 720
GlyphClass: 2
Flags: HW
LayerCount: 2
Fore
SplineSet
105 -223 m 1
 245.177891726 -223 294 -171.919361661 294 -32 c 2
 294 0 l 1
 105 0 l 1
 105 366 l 1
 615 366 l 1
 631 263 639 171 639 89 c 0
 639 -280 473 -448 105 -448 c 1
 105 -223 l 1
659 845 m 0
 659 689 530 595 372 595 c 0
 217 595 95 690 95 845 c 0
 95 1000 215 1090 372 1090 c 0
 533 1090 659 1002 659 845 c 0
EndSplineSet
EndChar

StartChar: less
Encoding: 60 60 31
Width: 909
GlyphClass: 2
Flags: HW
LayerCount: 2
Fore
SplineSet
57 946 m 1
 772 1542 l 1
 772 1077 l 1
 439 761 l 1
 772 445 l 1
 772 -20 l 1
 57 576 l 1
 57 946 l 1
EndSplineSet
EndChar

StartChar: equal
Encoding: 61 61 32
Width: 844
GlyphClass: 2
Flags: HW
LayerCount: 2
Fore
SplineSet
746 392 m 1
 746 169 l 1
 99 169 l 1
 99 392 l 1
 746 392 l 1
746 761 m 1
 746 538 l 1
 99 538 l 1
 99 761 l 1
 746 761 l 1
EndSplineSet
EndChar

StartChar: greater
Encoding: 62 62 33
Width: 909
GlyphClass: 2
Flags: HW
LayerCount: 2
Fore
SplineSet
852 576 m 1
 137 -20 l 1
 137 445 l 1
 470 761 l 1
 137 1077 l 1
 137 1542 l 1
 852 946 l 1
 852 576 l 1
EndSplineSet
EndChar

StartChar: question
Encoding: 63 63 34
Width: 1311
GlyphClass: 2
Flags: HW
LayerCount: 2
Fore
SplineSet
667 1737 m 0
 978.035193247 1737 1267 1575.11808382 1267 1272 c 0
 1267 1070 1150 954 1028 873 c 128
 934 811 819 765 705 726 c 1
 705 539 l 1
 358 539 l 1
 358 891 l 1
 622 1010 755 1130 755 1249 c 0
 755 1315 728 1381 659 1381 c 0
 579 1381 536 1327 529 1219 c 1
 57 1219 l 1
 75.3840452731 1527.44342625 335.625734237 1737 667 1737 c 0
825 223 m 0
 825 67 696 -27 538 -27 c 0
 383 -27 261 68 261 223 c 0
 261 378 381 468 538 468 c 0
 699 468 825 380 825 223 c 0
EndSplineSet
EndChar

StartChar: at
Encoding: 64 64 35
Width: 1899
GlyphClass: 2
Flags: HW
LayerCount: 2
Fore
SplineSet
580 588 m 0
 580 839.565238616 747.540288156 964 1005 964 c 0
 1253 964 1398 854 1398 603 c 2
 1398 398 l 1
 1536 398 1557 533 1557 677 c 0
 1557 980 1314 1117 987 1117 c 0
 626 1117 397 918 397 567 c 0
 397 210.135874714 671.94170082 37 1037 37 c 0
 1095 37 1149 44 1200 59 c 1
 1252 -169 l 1
 1179 -188 1107 -198 1037 -198 c 0
 599 -198 283 -26 146 270 c 128
 103 362 82 462 82 567 c 0
 82 814 183 1004 317 1134 c 128
 463 1276 701 1372 987 1372 c 0
 1378 1372 1661 1214 1784 948 c 128
 1823 864 1842 773 1842 677 c 0
 1842 341 1609 204 1267 204 c 2
 1117 204 l 1
 1079 294 l 1
 1039 239 954 190 866 190 c 0
 681 190 580 387 580 588 c 0
1079 671 m 2
 1079 757 1073 817 1003 817 c 0
 925 817 923 682 923 595 c 2
 923 582 l 2
 923 503 935 374 996 374 c 0
 1033 374 1060 386 1079 409 c 1
 1079 671 l 2
EndSplineSet
EndChar

StartChar: A
Encoding: 65 65 36
Width: 1643
GlyphClass: 2
Flags: HW
LayerCount: 2
Fore
SplineSet
555 459 m 0
 555 428 568 359 598 359 c 2
 682 359 l 1
 682 0 l 1
 4 0 l 1
 4 359 l 1
 173 359 192 438 231 591 c 2
 403 1270 l 1
 191 1270 l 1
 191 1623 l 1
 1185 1623 l 1
 1492 447 l 2
 1501 412 1509 359 1548 359 c 2
 1634 359 l 1
 1634 0 l 1
 808 0 l 1
 808 359 l 1
 927 359 l 1
 927 468 905 523 860 523 c 2
 585 523 l 2
 556 523 555 489.01666204 555 459 c 0
612 773 m 1
 841 773 l 1
 724 1281 l 1
 612 773 l 1
EndSplineSet
EndChar

StartChar: B
Encoding: 66 66 37
Width: 1666
GlyphClass: 2
Flags: HW
LayerCount: 2
Fore
SplineSet
1547 1204 m 0
 1547 1027 1435 900 1302 850 c 1
 1302 848 l 1
 1491 794 1616 657 1616 420 c 0
 1616 100 1353 0 1031 0 c 2
 89 0 l 1
 89 359 l 1
 261 359 l 1
 261 1270 l 1
 96 1270 l 1
 96 1622 l 1
 910 1622 l 2
 1267 1622 1547 1559 1547 1204 c 0
863 700 m 0
 856 700 831 700 789 699 c 1
 789 359 l 1
 811 359 l 1
 825 358 839 358 852 358 c 0
 980 358 1061 394 1061 527 c 0
 1061 652 987 700 863 700 c 0
915 1270 m 2
 789 1270 l 1
 789 961 l 1
 830 961 l 2
 969 961 1053 992 1053 1131 c 0
 1053 1215 995 1270 915 1270 c 2
EndSplineSet
EndChar

StartChar: C
Encoding: 67 67 38
Width: 1538
GlyphClass: 2
Flags: HW
LayerCount: 2
Fore
SplineSet
825 -29 m 0
 318.816777913 -29 57 296.806653079 57 804 c 0
 57 992 93 1146 158 1280 c 128
 259 1488 436 1652 741 1652 c 0
 895 1652 1019 1630 1101 1552 c 1
 1135 1623 l 1
 1446 1623 l 1
 1446 991 l 1
 1149 991 l 1
 1149 1149 1075 1290 915 1290 c 0
 700 1290 678 1071 678 855 c 2
 678 811 l 1
 677 796 676 780 676 764 c 0
 676 547 710 343 928 343 c 0
 1088.9759604 343 1146.80121195 449.390703698 1155 612 c 1
 1456 612 l 1
 1456 202 l 1
 1427 178 l 1
 1294.73166181 66.6161362609 1070.76447318 -29 825 -29 c 0
EndSplineSet
EndChar

StartChar: D
Encoding: 68 68 39
Width: 1801
GlyphClass: 2
Flags: HW
LayerCount: 2
Fore
SplineSet
1744 816 m 0
 1744 707 1726 604 1689 507 c 128
 1576 208 1313 0 900 0 c 2
 98 0 l 1
 98 359 l 1
 261 359 l 1
 261 1271 l 1
 92 1271 l 1
 92 1623 l 1
 922 1623 l 2
 1463 1623 1744 1352 1744 816 c 0
843 359 m 2
 1081.80345135 359 1150 578.027263292 1150 817 c 0
 1150 1057 1096 1271 855 1271 c 2
 808 1271 l 1
 808 359 l 1
 843 359 l 2
EndSplineSet
EndChar

StartChar: E
Encoding: 69 69 40
Width: 1490
GlyphClass: 2
Flags: HW
LayerCount: 2
Fore
SplineSet
1099 969 m 1
 1023 1270 l 1
 810 1270 l 1
 810 988 l 1
 1015 988 l 1
 1015 636 l 1
 810 636 l 1
 810 359 l 1
 1029 359 l 1
 1052 470 1080 578 1105 687 c 1
 1378 687 l 1
 1378 0 l 1
 99 0 l 1
 99 359 l 1
 257 359 l 1
 257 1270 l 1
 99 1270 l 1
 99 1623 l 1
 1367 1623 l 1
 1367 969 l 1
 1099 969 l 1
EndSplineSet
EndChar

StartChar: F
Encoding: 70 70 41
Width: 1407
GlyphClass: 2
Flags: HW
LayerCount: 2
Fore
SplineSet
1025 643 m 1
 823 643 l 1
 823 359 l 1
 977 359 l 1
 977 0 l 1
 100 0 l 1
 100 359 l 1
 258 359 l 1
 258 1270 l 1
 100 1270 l 1
 100 1623 l 1
 1375 1623 l 1
 1375 959 l 1
 1091 959 l 1
 1027 1270 l 1
 823 1270 l 1
 823 999 l 1
 1025 999 l 1
 1025 643 l 1
EndSplineSet
EndChar

StartChar: G
Encoding: 71 71 42
Width: 1720
GlyphClass: 2
Flags: HW
LayerCount: 2
Fore
SplineSet
979 1280 m 0
 709.009284165 1280 658 1028.43510837 658 759 c 0
 658 465 763 318 973 318 c 0
 1072 318 1163 378 1163 476 c 0
 1163 511 1160 538 1155 557 c 1
 995 557 l 1
 995 862 l 1
 1620 862 l 1
 1620 0 l 1
 1344 0 l 1
 1302 101 l 1
 1205 14 1074 -29 907 -29 c 0
 699 -29 529 25 398 110 c 128
 196 242 53 461 53 792 c 0
 53 911 71 1022 106 1125 c 128
 209 1429 451 1652 856 1652 c 0
 993 1652 1104 1622 1189 1561 c 1
 1233 1623 l 1
 1548 1623 l 1
 1548 945 l 1
 1260 945 l 1
 1239 1132 1188 1280 979 1280 c 0
EndSplineSet
EndChar

StartChar: H
Encoding: 72 72 43
Width: 1908
GlyphClass: 2
Flags: HW
LayerCount: 2
Fore
SplineSet
105 359 m 1
 252 359 l 1
 252 1270 l 1
 105 1270 l 1
 105 1623 l 1
 914 1623 l 1
 914 1270 l 1
 819 1270 l 1
 819 986 l 1
 1088 986 l 1
 1088 1270 l 1
 1000 1270 l 1
 1000 1623 l 1
 1798 1623 l 1
 1798 1270 l 1
 1657 1270 l 1
 1657 359 l 1
 1804 359 l 1
 1804 0 l 1
 1004 0 l 1
 1004 359 l 1
 1088 359 l 1
 1088 635 l 1
 819 635 l 1
 819 359 l 1
 915 359 l 1
 915 0 l 1
 105 0 l 1
 105 359 l 1
EndSplineSet
EndChar

StartChar: I
Encoding: 73 73 44
Width: 1076
GlyphClass: 2
Flags: HW
LayerCount: 2
Fore
SplineSet
972 1270 m 1
 825 1270 l 1
 825 359 l 1
 966 359 l 1
 966 0 l 1
 104 0 l 1
 104 359 l 1
 251 359 l 1
 251 1270 l 1
 108 1270 l 1
 108 1623 l 1
 972 1623 l 1
 972 1270 l 1
EndSplineSet
EndChar

StartChar: J
Encoding: 74 74 45
Width: 1314
GlyphClass: 2
Flags: HW
LayerCount: 2
Fore
SplineSet
568 572 m 2
 568 1270 l 1
 414 1270 l 1
 414 1623 l 1
 1268 1623 l 1
 1268 1270 l 1
 1121 1270 l 1
 1121 475 l 2
 1121 167 934 -30 625 -30 c 0
 492 -30 396 6 337 79 c 1
 300 -13 l 1
 30 -13 l 1
 30 633 l 1
 334 633 l 1
 334 515 339 365 457 365 c 0
 552 365 568 458 568 572 c 2
EndSplineSet
EndChar

StartChar: K
Encoding: 75 75 46
Width: 1799
GlyphClass: 2
Flags: HW
LayerCount: 2
Fore
SplineSet
1079 492 m 2
 1079 553 1031 640 969 640 c 2
 799 640 l 1
 799 359 l 1
 926 359 l 1
 926 0 l 1
 105 0 l 1
 105 359 l 1
 252 359 l 1
 252 1270 l 1
 105 1270 l 1
 105 1622 l 1
 926 1622 l 1
 926 1270 l 1
 799 1270 l 1
 799 887 l 1
 1086 1270 l 1
 1086 1622 l 1
 1710 1622 l 1
 1710 1270 l 1
 1573 1270 l 1
 1247.19873817 855.34384858 l 1
 1443.19873817 855.34384858 1600 798 1600 602 c 2
 1600 461 l 2
 1600 418 1624 359 1667 359 c 2
 1757 359 l 1
 1757 0 l 1
 1415 0 l 2
 1191 0 1079 102 1079 307 c 2
 1079 492 l 2
EndSplineSet
EndChar

StartChar: L
Encoding: 76 76 47
Width: 1421
GlyphClass: 2
Flags: HW
LayerCount: 2
Fore
SplineSet
818 359 m 1
 1009 359 l 1
 1096 709 l 1
 1382 709 l 1
 1382 0 l 1
 109 0 l 1
 109 359 l 1
 251 359 l 1
 251 1270 l 1
 104 1270 l 1
 104 1622 l 1
 972 1622 l 1
 972 1270 l 1
 818 1270 l 1
 818 359 l 1
EndSplineSet
EndChar

StartChar: M
Encoding: 77 77 48
Width: 2408
GlyphClass: 2
Flags: HW
LayerCount: 2
Fore
SplineSet
100 359 m 1
 232.549639459 359 264 425.04806086 264 558 c 130
 264 1270 l 1
 97 1270 l 1
 97 1623 l 1
 931 1623 l 1
 1241 856 l 1
 1517 1623 l 1
 2301 1623 l 1
 2301 1270 l 1
 2154 1270 l 1
 2154 359 l 1
 2308 359 l 1
 2308 0 l 1
 1505 0 l 1
 1505 359 l 1
 1628 359 l 1
 1628 977 l 1
 1286 0 l 1
 1005 0 l 1
 589 999 l 1
 589 424 l 129
 597 402 620 399 636 385 c 128
 661 365 706 359 751 359 c 1
 751 0 l 1
 100 0 l 1
 100 359 l 1
EndSplineSet
EndChar

StartChar: N
Encoding: 78 78 49
Width: 1874
GlyphClass: 2
Flags: HW
LayerCount: 2
Fore
SplineSet
98 359 m 1
 230.161601626 359 261 419.012882068 261 550 c 2
 261 1272 l 1
 104 1272 l 1
 104 1623 l 1
 839 1623 l 1
 1335 647 l 1
 1335 1222 l 129
 1307 1257 1252 1270 1189 1270 c 1
 1189 1623 l 1
 1814 1623 l 1
 1814 1270 l 1
 1706 1270 1656 1222 1656 1118 c 2
 1656 0 l 1
 1050 0 l 1
 577 908 l 1
 577 507 l 2
 577 396 623 359 735 359 c 1
 735 0 l 1
 98 0 l 1
 98 359 l 1
EndSplineSet
EndChar

StartChar: O
Encoding: 79 79 50
Width: 1744
GlyphClass: 2
Flags: HW
LayerCount: 2
Fore
SplineSet
874 1653 m 0
 1376.34907692 1653 1692 1314.05944866 1692 808 c 0
 1692 467 1515 211 1289 80 c 128
 1164 7 1025 -29 872 -29 c 256
 535 -29 288 153 160 381 c 128
 88 509 52 651 52 808 c 0
 52 1317.30317079 369.497483848 1653 874 1653 c 0
662 793 m 1
 668.627507864 585.33808694 658.008638249 319 872 319 c 0
 1062.26903733 319 1083 544.063534939 1083 734 c 0
 1083 754 1082 773.97370241 1082 793 c 0
 1082 841.333333333 1082 889.666666667 1082 938 c 0
 1082 1113.17924246 1047.96147766 1296 872 1296 c 0
 685 1296 670 1104 662 924 c 128
 662 914 661 905 661 895 c 0
 661 882 661 870 662 858 c 1
 662 793 l 1
EndSplineSet
EndChar

StartChar: P
Encoding: 80 80 51
Width: 1651
GlyphClass: 2
Flags: HW
LayerCount: 2
Fore
SplineSet
981 1623 m 2
 1381.04702587 1623 1624 1497.50585524 1624 1094 c 0
 1624 700 1359 559 964 559 c 0
 917 559 867 562 814 569 c 1
 814 359 l 1
 960 359 l 1
 960 0 l 1
 99 0 l 1
 99 359 l 1
 255 359 l 1
 255 1270 l 1
 104 1270 l 1
 104 1623 l 1
 981 1623 l 2
898 1270 m 2
 814 1270 l 1
 814 895 l 1
 855 895 l 2
 1006 895 1082 962 1082 1096 c 0
 1082 1210 1008 1270 898 1270 c 2
EndSplineSet
EndChar

StartChar: Q
Encoding: 81 81 52
Width: 1765
GlyphClass: 2
Flags: HW
LayerCount: 2
Fore
SplineSet
53 815 m 0
 53 1319.42021815 381.716925663 1652 887 1652 c 0
 1004 1652 1112 1633 1212 1594 c 128
 1506 1479 1702 1213 1702 807 c 0
 1702 644 1662 494 1581 359 c 1
 1744 359 l 1
 1744 0 l 1
 1260 0 l 1
 893.188516973 -32.1508072773 l 1
 380.440054703 -32.1508072773 53 301.905114902 53 815 c 0
1092 836 m 0
 1092 1038.94165407 1086.04705106 1275 882 1275 c 0
 687 1275 670 1091 670 896 c 130
 670 777 l 2
 670 562 678 338 893 338 c 0
 1078 338 1094 542 1094 727 c 0
 1094 743 1092 758.968780458 1092 775 c 0
 1092 795.333333333 1092 815.666666667 1092 836 c 0
EndSplineSet
EndChar

StartChar: R
Encoding: 82 82 53
Width: 1765
GlyphClass: 2
Flags: HW
LayerCount: 2
Fore
SplineSet
1465 0 m 2
 1238.20380492 0 1075 29.0641183199 1075 256 c 2
 1075 451 l 2
 1075 604 1042 694 889 694 c 2
 791 694 l 1
 791 359 l 1
 912 359 l 1
 912 0 l 1
 736 0 466 0 102 -1 c 1
 102 359 l 1
 256 359 l 1
 256 1270 l 1
 101 1270 l 1
 101 1623 l 1
 1116 1623 l 2
 1443 1623 1645 1498 1645 1170 c 0
 1645 951 1485 844 1286 807 c 1
 1438.99830632 771.454938936 1563 716.828822946 1563 559 c 2
 1563 466 l 2
 1563 367.506041009 1624.46254003 359 1727 359 c 1
 1727 0 l 1
 1465 0 l 2
1096 1096 m 0
 1096 1206 1019 1270 906 1270 c 2
 785 1270 l 1
 785 920 l 1
 846 920 l 2
 981 920 1096 960 1096 1096 c 0
EndSplineSet
EndChar

StartChar: S
Encoding: 83 83 54
Width: 1329
GlyphClass: 2
Flags: HW
LayerCount: 2
Fore
SplineSet
635 1305 m 0
 575 1305 541 1273 541 1213 c 0
 541 1134.15121656 660.108921202 1111.7103132 728 1092 c 128
 1026.5982053 1008.01925476 1276 882.701133231 1276 497 c 0
 1276 350 1218 223 1148 137 c 128
 1075 48 952 -29 798 -29 c 0
 636 -29 565 11 469 92 c 1
 433 0 l 1
 110 0 l 1
 110 518 l 1
 432 518 l 1
 462 434 557 334 665 334 c 0
 721 334 774 364 774 420 c 0
 774 494.258840299 702.646234572 518.29905432 643 535 c 0
 333 624 74 734 74 1133 c 0
 74 1441 226 1653 530 1653 c 0
 659 1653 763 1623 842 1563 c 1
 845 1571 855 1591 874 1623 c 1
 1159 1623 l 1
 1159 1107 l 1
 852 1107 l 1
 831 1199 744 1305 635 1305 c 0
EndSplineSet
EndChar

StartChar: T
Encoding: 84 84 55
Width: 1535
GlyphClass: 2
Flags: HW
LayerCount: 2
Fore
SplineSet
1215 965 m 1
 1153 1270 l 1
 1047 1270 l 1
 1047 360 l 1
 1211 360 l 1
 1211 0 l 1
 320 0 l 1
 320 360 l 1
 484 360 l 1
 484 1270 l 1
 384 1270 l 1
 320 965 l 1
 39 965 l 1
 39 1622 l 1
 1496 1622 l 1
 1496 965 l 1
 1215 965 l 1
EndSplineSet
EndChar

StartChar: U
Encoding: 85 85 56
Width: 1683
GlyphClass: 2
Flags: HW
LayerCount: 2
Fore
SplineSet
204 704 m 2
 204 1270 l 1
 43 1270 l 1
 43 1622 l 1
 912 1622 l 1
 912 1270 l 1
 764 1270 l 1
 764 600 l 2
 764 462 814 346 953 346 c 0
 1073 346 1149 417 1149 536 c 2
 1149 1270 l 1
 985 1270 l 1
 985 1622 l 1
 1639 1622 l 1
 1639 1270 l 1
 1485 1270 l 1
 1485 520 l 2
 1485 415 1454 319 1393 234 c 128
 1283 81 1084 -29 834 -29 c 0
 373 -29 204 245 204 704 c 2
EndSplineSet
EndChar

StartChar: V
Encoding: 86 86 57
Width: 1668
GlyphClass: 2
Flags: HW
LayerCount: 2
Fore
SplineSet
743 1270 m 1
 945 517 l 1
 1149.80762708 1173.31535041 l 1
 1149.80762708 1245.31535041 1072 1270 990 1270 c 1
 990 1622 l 1
 1684 1622 l 1
 1684 1270 l 1
 1620 1270 1553.84049599 1263.85703917 1525.84049599 1226.85703917 c 129
 1105 0 l 1
 521 0 l 1
 160 1270 l 1
 -6 1270 l 1
 -6 1622 l 1
 859 1622 l 1
 859 1270 l 1
 743 1270 l 1
EndSplineSet
EndChar

StartChar: W
Encoding: 87 87 58
Width: 2460
GlyphClass: 2
Flags: HW
LayerCount: 2
Fore
SplineSet
-5 1623 m 1
 857 1623 l 1
 857 1270 l 1
 716 1270 l 1
 875 672 l 1
 1135 1623 l 1
 1544 1623 l 1
 1797 703 l 1
 1938.83952537 1226.23024915 l 1
 1938.83952537 1268.23024915 1892 1270 1831 1270 c 1
 1831 1623 l 1
 2473 1623 l 1
 2473 1270 l 1
 2357 1270 2310 1241 2284 1148 c 2
 1963 0 l 1
 1420 0 l 1
 1227 706 l 1
 1025 0 l 1
 488 0 l 1
 139 1270 l 1
 -5 1270 l 1
 -5 1623 l 1
EndSplineSet
EndChar

StartChar: X
Encoding: 88 88 59
Width: 1863
GlyphClass: 2
Flags: HW
LayerCount: 2
Fore
SplineSet
746 359 m 2
 830 359 l 1
 830 0 l 1
 8 0 l 1
 8 359 l 1
 192.314316266 359 229.512780869 384.373575403 314 493 c 2
 601 862 l 1
 230 1270 l 1
 99 1270 l 1
 99 1623 l 1
 977 1623 l 1
 977 1270 l 1
 895 1270 l 1
 1057 1064 l 1
 1079 1096 l 2
 1097 1121 1147 1192 1147 1226 c 0
 1147 1253 1088 1270 1061 1270 c 1
 1061 1623 l 1
 1798 1623 l 1
 1798 1270 l 1
 1676 1270 1587.7744108 1250.43727981 1536 1180 c 2
 1278 829 l 1
 1707 359 l 1
 1829 359 l 1
 1829 0 l 1
 930 0 l 1
 930 359 l 1
 1056 359 l 1
 813 634 l 1
 665.736597805 431.847511533 l 1
 665.736597805 396.847511533 711 359 746 359 c 2
EndSplineSet
EndChar

StartChar: Y
Encoding: 89 89 60
Width: 1559
GlyphClass: 2
Flags: HW
LayerCount: 2
Fore
SplineSet
989 1270 m 130
 927 1270 l 1
 927 1622 l 1
 1564 1622 l 1
 1564 1270 l 1
 1490 1270 l 2
 1358 1270 1326.64497703 1181.64846313 1279 1095 c 2
 1075 724 l 1
 1075 359 l 1
 1232 359 l 1
 1232 0 l 1
 363 0 l 1
 363 359 l 1
 518 359 l 1
 518 672 l 1
 97 1270 l 1
 -15 1270 l 1
 -15 1622 l 1
 837 1622 l 1
 837 1270 l 1
 746 1270 l 1
 763 1246 913 1017 930 993 c 1
 1006 1108 1044 1184 1044 1221 c 0
 1044 1256 1024 1270 989 1270 c 130
EndSplineSet
EndChar

StartChar: Z
Encoding: 90 90 61
Width: 1607
GlyphClass: 2
Flags: HW
LayerCount: 2
Fore
SplineSet
1495 1293 m 1
 818 359 l 1
 1127 359 l 1
 1234 705 l 1
 1516 705 l 1
 1516 0 l 1
 106 0 l 1
 106 350 l 1
 784 1270 l 1
 469 1270 l 1
 389 938 l 1
 101 938 l 1
 101 1622 l 1
 1495 1622 l 1
 1495 1293 l 1
EndSplineSet
EndChar

StartChar: bracketleft
Encoding: 91 91 62
Width: 910
GlyphClass: 2
Flags: HWO
LayerCount: 2
Fore
SplineSet
145 0 m 1
 145 1623 l 1
 859 1623 l 1
 859 1322 l 1
 662 1322 l 1
 662 311 l 1
 855 311 l 1
 855 0 l 1
 145 0 l 1
EndSplineSet
EndChar

StartChar: backslash
Encoding: 92 92 63
Width: 1031
GlyphClass: 2
Flags: HW
LayerCount: 2
Fore
SplineSet
400 0 m 1
 58 1623 l 1
 632 1623 l 1
 973 0 l 1
 400 0 l 1
EndSplineSet
EndChar

StartChar: bracketright
Encoding: 93 93 64
Width: 909
GlyphClass: 2
Flags: HW
LayerCount: 2
Fore
SplineSet
55 0 m 1
 54 311 l 1
 247 311 l 1
 247 1322 l 1
 50 1322 l 1
 50 1623 l 1
 764 1623 l 1
 764 0 l 1
 55 0 l 1
EndSplineSet
EndChar

StartChar: asciicircum
Encoding: 94 94 65
Width: 1707
GlyphClass: 2
Flags: HW
LayerCount: 2
Fore
SplineSet
1088 1624 m 1
 1584 909 l 1
 1119 909 l 1
 903 1242 l 1
 687 909 l 1
 222 909 l 1
 718 1624 l 1
 1088 1624 l 1
EndSplineSet
EndChar

StartChar: underscore
Encoding: 95 95 66
Width: 1165
GlyphClass: 2
Flags: HW
LayerCount: 2
Fore
SplineSet
1179 -1 m 1
 1179 -224 l 1
 -14 -224 l 1
 -14 -1 l 1
 1179 -1 l 1
EndSplineSet
EndChar

StartChar: grave
Encoding: 96 96 67
Width: 1016
GlyphClass: 2
Flags: HW
LayerCount: 2
Fore
SplineSet
281 1708 m 1
 755 1271 l 1
 651 1130 l 1
 97 1443 l 1
 281 1708 l 1
EndSplineSet
EndChar

StartChar: a
Encoding: 97 97 68
Width: 1294
GlyphClass: 2
Flags: HW
LayerCount: 2
Fore
SplineSet
30 308 m 0
 30 527.885072867 242.486901709 630 465 630 c 0
 562 630 648 617 721 592 c 1
 721 637 l 2
 721 748 651 803 510 803 c 0
 415 803 343 771 295 708 c 1
 120 708 l 1
 120 1022 l 1
 187 1022 l 1
 281 1046 479 1092 603 1092 c 0
 885 1092 1171 1034 1171 750 c 2
 1171 305 l 1
 1247 305 l 1
 1247 0 l 1
 775 0 l 1
 725 119 l 1
 668 44 543 -18 419 -18 c 0
 212 -18 30 104 30 308 c 0
616 224 m 0
 660 224 707 248 724 270 c 1
 724 417 l 1
 699 426 661 438 625 438 c 0
 568 438 520 383 520 326 c 0
 520 267 557 224 616 224 c 0
EndSplineSet
EndChar

StartChar: b
Encoding: 98 98 69
Width: 1401
GlyphClass: 2
Flags: HW
LayerCount: 2
Fore
SplineSet
883 -18 m 0
 750.960465438 -18 712.762735542 25.5254066078 607 102 c 1
 567 0 l 1
 117 0 l 1
 117 1325 l 1
 33 1325 l 1
 33 1631 l 1
 599 1631 l 1
 599 965 l 1
 704 1050 805 1092 904 1092 c 0
 1031 1092 1132 1041 1196 974 c 128
 1291 876 1356 726 1356 538 c 0
 1356 227.081016939 1194.96629887 -18 883 -18 c 0
890 519 m 0
 890 641 860 758 738 758 c 0
 670 758 625 707 603 662 c 1
 603 379 l 1
 624 356 692 328 738 328 c 0
 838 328 890 411 890 519 c 0
EndSplineSet
EndChar

StartChar: c
Encoding: 99 99 70
Width: 1110
GlyphClass: 2
Flags: HW
LayerCount: 2
Fore
SplineSet
43 546 m 0
 43 858.952485705 245.621738801 1092 562 1092 c 0
 653 1092 739 1060 820 995 c 1
 861 1072 l 1
 1036 1072 l 1
 1036 628 l 1
 794 628 l 1
 794 707 746 778 671 778 c 0
 558.182543391 778 516 648.698131021 516 513 c 0
 516 399 557 295 671 295 c 0
 753 295 785 358 798 425 c 1
 1038 425 l 1
 1038 124 l 1
 951 37 767 -18 595 -18 c 0
 254.810169997 -18 43 201.052074941 43 546 c 0
EndSplineSet
EndChar

StartChar: d
Encoding: 100 100 71
Width: 1442
GlyphClass: 2
Flags: HW
LayerCount: 2
Fore
SplineSet
43 550 m 0
 43 835.594260721 212.649555217 1090 498 1090 c 0
 642 1090 718 1040 797 960 c 1
 797 1335 l 1
 707 1335 l 1
 707 1640 l 1
 1292 1640 l 1
 1292 305 l 1
 1370 305 l 1
 1370 0 l 1
 801 0 l 1
 801 128 l 1
 740 47 638.003787824 -19 506 -19 c 0
 201.107546168 -19 43 246.405868766 43 550 c 0
514 558 m 0
 514 436 544 319 666 319 c 0
 734 319 779 370 801 415 c 1
 801 698 l 1
 780 721 712 749 666 749 c 0
 566 749 514 666 514 558 c 0
EndSplineSet
EndChar

StartChar: e
Encoding: 101 101 72
Width: 1224
GlyphClass: 2
Flags: HW
LayerCount: 2
Fore
SplineSet
1178 555 m 0
 1178 509.367193408 1180.38114049 436.768172454 1136 456 c 1
 534 456 l 1
 534 334 593 222 711 222 c 0
 802 222 848 267 851 351 c 1
 1158 351 l 1
 1158 127 l 1
 996 30 852 -18 611 -18 c 0
 289.829784597 -18 40 202.403325178 40 521 c 0
 40 872.076832561 272.386463311 1092 627 1092 c 0
 957.819788394 1092 1178 882.777120093 1178 555 c 0
536 656 m 2
 536 627 l 1
 751 627 l 1
 751 648 l 2
 751 736 733 814 644 814 c 0
 569 814 536 732 536 656 c 2
EndSplineSet
EndChar

StartChar: f
Encoding: 102 102 73
Width: 875
GlyphClass: 2
Flags: HW
LayerCount: 2
Fore
SplineSet
863 1563 m 1
 863 1252 l 1
 824 1261 792 1265 767 1265 c 0
 678 1265 656 1208 656 1115 c 0
 656 1101 656 1087 657 1072 c 1
 836 1072 l 1
 836 761 l 1
 664 761 l 1
 664 305 l 1
 774 305 l 1
 774 0 l 1
 94 0 l 1
 94 305 l 1
 178 305 l 1
 178 761 l 1
 94 761 l 1
 94 1072 l 1
 177 1072 l 1
 177 1074 175 1118.99431837 175 1207 c 0
 175 1476 302 1610 555 1610 c 0
 657 1610 798 1586 863 1563 c 1
EndSplineSet
EndChar

StartChar: g
Encoding: 103 103 74
Width: 1414
GlyphClass: 2
Flags: HW
LayerCount: 2
Fore
SplineSet
45 548 m 0
 45 836 245 1090 534 1090 c 0
 635 1090 744 1059 859 997 c 1
 892 1072 l 1
 1345 1072 l 1
 1345 761 l 1
 1258 761 l 1
 1258 135 l 2
 1258 -214 1027 -389 564 -389 c 0
 430 -389 251 -368 176 -328 c 1
 176 -19 l 1
 300 -64 421 -87 540 -87 c 0
 711 -87 809 -53 809 117 c 1
 740 67 635 28 522 28 c 0
 223 28 45 250 45 548 c 0
673 299 m 0
 773 299 808 422 808 523 c 0
 808 630 771 760 665 760 c 0
 557 760 528 643 528 532 c 0
 528 418 561 299 673 299 c 0
EndSplineSet
EndChar

StartChar: h
Encoding: 104 104 75
Width: 1451
GlyphClass: 2
Flags: HW
LayerCount: 2
Fore
SplineSet
960 1090 m 0
 1196 1090 1318 944 1318 702 c 2
 1318 305 l 1
 1404 305 l 1
 1404 0 l 1
 828 0 l 1
 828 619 l 1
 827 702 800 744 745 744 c 0
 678 744 644 705 644 626 c 2
 644 305 l 1
 724 305 l 1
 724 0 l 1
 71 0 l 1
 71 305 l 1
 151 305 l 1
 151 1332 l 1
 67 1332 l 1
 67 1640 l 1
 640 1640 l 1
 640 916 l 1
 719 1004 794 1090 960 1090 c 0
EndSplineSet
EndChar

StartChar: i
Encoding: 105 105 76
Width: 814
GlyphClass: 2
Flags: HW
LayerCount: 2
Fore
SplineSet
661 1072 m 1
 661 305 l 1
 745 305 l 1
 745 0 l 1
 98 0 l 1
 98 305 l 1
 180 305 l 1
 180 761 l 1
 91 761 l 1
 91 1072 l 1
 661 1072 l 1
667 1385 m 0
 667 1229 538 1135 380 1135 c 0
 225 1135 103 1230 103 1385 c 0
 103 1540 223 1630 380 1630 c 0
 541 1630 667 1542 667 1385 c 0
EndSplineSet
EndChar

StartChar: j
Encoding: 106 106 77
Width: 772
GlyphClass: 2
Flags: HW
LayerCount: 2
Fore
SplineSet
156 -9 m 2
 156 760 l 1
 66 760 l 1
 66 1072 l 1
 655 1072 l 1
 655 129 l 2
 655 -270.54925141 453.934952191 -398 51 -398 c 1
 51 -73 l 1
 96 -73 156 -52 156 -9 c 2
658 1385 m 0
 658 1229 529 1135 371 1135 c 0
 216 1135 94 1230 94 1385 c 0
 94 1540 214 1630 371 1630 c 0
 532 1630 658 1542 658 1385 c 0
EndSplineSet
EndChar

StartChar: k
Encoding: 107 107 78
Width: 1413
GlyphClass: 2
Flags: HW
LayerCount: 2
Fore
SplineSet
646 438 m 1
 646 0 l 1
 69 0 l 1
 69 305 l 1
 152 305 l 1
 152 1330 l 1
 68 1330 l 1
 68 1634 l 1
 646 1634 l 1
 646 587 l 1
 847 761 l 1
 752 761 l 1
 752 1072 l 1
 1336 1072 l 1
 1336 761 l 1
 1185 761 l 1
 1029.25742574 633.574257426 l 1
 1269 305 l 1
 1384 305 l 1
 1384 0 l 1
 931 0 l 1
 646 438 l 1
EndSplineSet
EndChar

StartChar: l
Encoding: 108 108 79
Width: 794
GlyphClass: 2
Flags: HW
LayerCount: 2
Fore
SplineSet
644 305 m 1
 722 305 l 1
 722 0 l 1
 75 0 l 1
 75 305 l 1
 149 305 l 1
 149 1317 l 1
 65 1317 l 1
 65 1630 l 1
 644 1630 l 1
 644 305 l 1
EndSplineSet
EndChar

StartChar: m
Encoding: 109 109 80
Width: 2073
GlyphClass: 2
Flags: HW
LayerCount: 2
Fore
SplineSet
610 902 m 1
 683.717102606 1003.51207572 806.313030421 1092 975 1092 c 0
 1110 1092 1196 996 1243 891 c 1
 1333 1025 1449 1092 1592 1092 c 0
 1817 1092 1942 958 1942 729 c 2
 1942 305 l 1
 2016 305 l 1
 2016 0 l 1
 1487 0 l 1
 1487 635 l 1
 1481 694 1451 743 1387 743 c 0
 1298 743 1267 666.051708771 1267 579 c 2
 1267 305 l 1
 1352 305 l 1
 1352 0 l 1
 830 0 l 1
 830 638 l 2
 830 705 793 738 718 738 c 0
 629 738 610 630 610 541 c 2
 610 303 l 1
 690 303 l 1
 690 0 l 1
 95 0 l 1
 95 299 l 1
 168 299 l 1
 168 761 l 1
 94 761 l 1
 94 1072 l 1
 610 1072 l 1
 610 902 l 1
EndSplineSet
EndChar

StartChar: n
Encoding: 110 110 81
Width: 1483
GlyphClass: 2
Flags: HW
LayerCount: 2
Fore
SplineSet
1019 1092 m 0
 1239 1092 1349 955 1349 680 c 2
 1349 305 l 1
 1429 305 l 1
 1429 0 l 1
 855 0 l 1
 855 627 l 2
 855 684 819 737 765 737 c 0
 703 737 661 686 661 624 c 2
 661 305 l 1
 749 305 l 1
 749 0 l 1
 91 0 l 1
 91 305 l 1
 174 305 l 1
 174 761 l 1
 98 761 l 1
 98 1072 l 1
 661 1072 l 1
 661 916 l 1
 729 1021 852 1092 1019 1092 c 0
EndSplineSet
EndChar

StartChar: o
Encoding: 111 111 82
Width: 1290
GlyphClass: 2
Flags: HW
LayerCount: 2
Fore
SplineSet
645 -18 m 256
 284 -18 43 187 43 547 c 0
 43 902 284 1091 644 1091 c 0
 1006 1091 1247 903 1247 547 c 0
 1247 187 1006 -18 645 -18 c 256
645 779 m 128
 523 779 508 666 508 545 c 0
 508 378 554 294 645 294 c 128
 736 294 782 378 782 545 c 0
 782 666 767 779 645 779 c 128
EndSplineSet
EndChar

StartChar: p
Encoding: 112 112 83
Width: 1438
GlyphClass: 2
Flags: HW
LayerCount: 2
Fore
SplineSet
1393 541 m 0
 1393 241.921426946 1240.48243921 -17 940 -17 c 0
 794 -17 711 53 629 119 c 1
 629 -96 l 1
 740 -96 l 1
 740 -397 l 1
 66 -397 l 1
 66 -94 l 1
 150 -94 l 1
 150 761 l 1
 76 761 l 1
 76 1072 l 1
 640 1072 l 1
 640 956 l 1
 715 1040 798 1093 942 1093 c 0
 1239.39014931 1093 1393 838.707426785 1393 541 c 0
758 310 m 0
 884 310 924 420 924 545 c 0
 924 674 870 739 761 739 c 0
 691 739 642 699 629 645 c 1
 629 417 l 1
 640 356 683 310 758 310 c 0
EndSplineSet
EndChar

StartChar: q
Encoding: 113 113 84
Width: 1438
GlyphClass: 2
Flags: HW
LayerCount: 2
Fore
SplineSet
62 571 m 0
 62 858.864284877 234.921162577 1092 523 1092 c 0
 668 1092 739 1055 825 985 c 1
 899 1072 l 1
 1379 1072 l 1
 1379 761 l 1
 1305 761 l 1
 1305 -94 l 1
 1389 -94 l 1
 1389 -398 l 1
 715 -398 l 1
 715 -96 l 1
 826 -96 l 1
 826 128 l 1
 746 60 661 -17 515 -17 c 0
 200.30986743 -17 62 257.156871039 62 571 c 0
551 554 m 0
 551 440.866583236 585.057572899 329 697 329 c 0
 789 329 826 434 826 526 c 0
 826 538.165525061 829 549 829 562 c 0
 829 664.360286228 795.890142385 768 694 768 c 0
 599 768 551 697 551 554 c 0
EndSplineSet
EndChar

StartChar: r
Encoding: 114 114 85
Width: 1000
GlyphClass: 2
Flags: HW
LayerCount: 2
Fore
SplineSet
867 667 m 2
 715 667 631 581 631 426 c 2
 631 305 l 1
 768 305 l 1
 768 0 l 1
 94 0 l 1
 94 305 l 1
 173 305 l 1
 173 761 l 1
 94 761 l 1
 94 1072 l 1
 637 1072 l 1
 637 905 l 1
 695 1004 825 1083 973 1083 c 1
 973 667 l 1
 867 667 l 2
EndSplineSet
EndChar

StartChar: s
Encoding: 115 115 86
Width: 1055
GlyphClass: 2
Flags: HW
LayerCount: 2
Fore
SplineSet
517 846 m 0
 517 758.458378358 686.923852636 745.466798642 755 719 c 0
 916.794017875 656.097355558 996 546 996 395 c 0
 996 125 856 -18 585 -18 c 0
 446 -18 344 13 277 76 c 1
 241 9 l 1
 64 9 l 1
 64 387 l 1
 292 387 l 1
 306 304 368 209 462 209 c 0
 514 209 570 235 570 287 c 0
 570 341 517 369 472 386 c 128
 289 453 75 494 75 746 c 0
 75 986 246 1092 487 1092 c 0
 592 1092 728 1070 781 1033 c 1
 808 1081 l 1
 976 1081 l 1
 976 761 l 1
 775 761 l 1
 775 782 l 1
 746 849 703 920 609 920 c 0
 561 920 517 893 517 846 c 0
EndSplineSet
EndChar

StartChar: t
Encoding: 116 116 87
Width: 873
GlyphClass: 2
Flags: HW
LayerCount: 2
Fore
SplineSet
729 334 m 0
 759 334 795 339 837 348 c 1
 837 49 l 1
 800 49 l 1
 743 23 619 -18 529 -18 c 0
 274 -18 148 116 149 385 c 1
 149 761 l 1
 42 761 l 1
 42 1072 l 1
 145 1072 l 1
 145 1301 l 1
 632 1406 l 1
 632 1072 l 1
 784 1072 l 1
 784 761 l 1
 632 761 l 1
 632 438 l 2
 632 377 662 334 729 334 c 0
EndSplineSet
EndChar

StartChar: u
Encoding: 117 117 88
Width: 1465
GlyphClass: 2
Flags: HW
LayerCount: 2
Fore
SplineSet
717 318 m 0
 781 318 821 373 821 438 c 2
 821 761 l 1
 740 761 l 1
 740 1072 l 1
 1315 1072 l 1
 1315 305 l 1
 1391 305 l 1
 1391 0 l 1
 821 0 l 1
 821 156 l 1
 753 50 631 -18 463 -18 c 0
 243 -18 133 116 133 385 c 2
 133 761 l 1
 53 761 l 1
 53 1072 l 1
 627 1072 l 1
 627 438 l 2
 627 378 661 318 717 318 c 0
EndSplineSet
EndChar

StartChar: v
Encoding: 118 118 89
Width: 1314
GlyphClass: 2
Flags: HW
LayerCount: 2
Fore
SplineSet
762 1072 m 1
 1309 1072 l 1
 1309 761 l 1
 1224 761 1190 740 1166 682 c 2
 875 0 l 1
 402 0 l 1
 82 761 l 1
 8 761 l 1
 8 1072 l 1
 652 1072 l 1
 652 761 l 1
 561 761 l 1
 730 338 l 1
 871.120574091 706.421651445 l 1
 871.120574091 749.421651445 816 761 762 761 c 1
 762 1072 l 1
EndSplineSet
EndChar

StartChar: w
Encoding: 119 119 90
Width: 1929
GlyphClass: 2
Flags: HW
LayerCount: 2
Fore
SplineSet
1364 761 m 1
 1364 1072 l 1
 1921 1072 l 1
 1921 761 l 1
 1758 761 1746.03161791 609.374323212 1706 483 c 2
 1553 0 l 1
 1078 0 l 1
 948 430 l 1
 797 0 l 1
 353 0 l 1
 95 761 l 1
 26 761 l 1
 26 1072 l 1
 690 1072 l 1
 690 761 l 1
 576 761 l 1
 689 392 l 1
 899 1072 l 1
 1165 1072 l 1
 1210 924 l 2
 1250 792 1341 491 1383 380 c 1
 1475.07433785 707.134706235 l 129
 1475.07433785 758.134706235 1415 761 1364 761 c 1
EndSplineSet
EndChar

StartChar: x
Encoding: 120 120 91
Width: 1199
GlyphClass: 2
Flags: HW
LayerCount: 2
Fore
SplineSet
1166 0 m 1
 713 0 l 1
 524 277 l 1
 317 0 l 1
 40 0 l 1
 40 305 l 1
 171 305 l 1
 351 512 l 1
 169 761 l 1
 60 761 l 1
 60 1072 l 1
 534 1072 l 1
 696 821 l 1
 881 1072 l 1
 1135 1072 l 1
 1135 761 l 1
 1025 761 l 1
 862 580 l 1
 1055 305 l 1
 1166 305 l 1
 1166 0 l 1
EndSplineSet
EndChar

StartChar: y
Encoding: 121 121 92
Width: 1377
GlyphClass: 2
Flags: HW
LayerCount: 2
Fore
SplineSet
360 -377 m 1
 557 31 l 1
 91 761 l 1
 3 761 l 1
 3 1072 l 1
 683 1072 l 1
 683 761 l 1
 615 761 l 1
 791 454 l 1
 911.925426689 713.304007746 l 1
 911.925426689 753.304007746 860 761 793 761 c 1
 793 1072 l 1
 1373 1072 l 1
 1373 761 l 1
 1262 761 1236 702 1197 628 c 2
 819 -82 l 1
 1051 -82 l 1
 1051 -377 l 1
 360 -377 l 1
EndSplineSet
EndChar

StartChar: z
Encoding: 122 122 93
Width: 1214
GlyphClass: 2
Flags: HW
LayerCount: 2
Fore
SplineSet
64 0 m 1
 64 283 l 1
 563.491323776 755.191190695 l 1
 498 761 l 1
 377 761 287 758 287 636 c 1
 90 636 l 1
 90 1072 l 1
 1112 1072 l 1
 1112 795 l 1
 637.501223849 310.383979155 l 1
 851.472555683 299.566792029 l 129
 924.472555683 311.566792029 947 382 966 451 c 1
 1149 451 l 1
 1149 0 l 1
 64 0 l 1
EndSplineSet
EndChar

StartChar: braceleft
Encoding: 123 123 94
Width: 873
GlyphClass: 2
Flags: HW
LayerCount: 2
Fore
SplineSet
815 -17 m 1
 430.428497 -17 169 182.322801001 169 559 c 0
 169 670 115 718 4 722 c 1
 4 965 l 1
 115 969 169 1017 169 1128 c 0
 169 1504.26820587 430.744829218 1704 815 1704 c 1
 815 1373 l 1
 707 1373 653 1291 653 1127 c 0
 653 1000 569 905 402 843 c 1
 569 782 653 687 653 560 c 0
 653 396 707 314 815 314 c 1
 815 -17 l 1
EndSplineSet
EndChar

StartChar: bar
Encoding: 124 124 95
Width: 685
GlyphClass: 2
Flags: HW
LayerCount: 2
Fore
SplineSet
540 1623 m 1
 540 0 l 1
 145 0 l 1
 145 1623 l 1
 540 1623 l 1
EndSplineSet
EndChar

StartChar: braceright
Encoding: 125 125 96
Width: 872
GlyphClass: 2
Flags: HW
LayerCount: 2
Fore
SplineSet
58 1704 m 1
 441.137077729 1704 704 1502.60513801 704 1128 c 0
 704 1017 758 969 869 965 c 1
 869 722 l 1
 758 718 704 670 704 559 c 0
 704 183.682419241 441.206495645 -17 58 -17 c 1
 58 314 l 1
 166 314 220 396 220 560 c 0
 220 687 304 782 471 843 c 1
 304 905 220 1000 220 1127 c 0
 220 1291 166 1373 58 1373 c 1
 58 1704 l 1
EndSplineSet
EndChar

StartChar: asciitilde
Encoding: 126 126 97
Width: 1289
GlyphClass: 2
Flags: HW
LayerCount: 2
Fore
SplineSet
45 720 m 1
 133.865437486 856.075201151 179.971319155 1122 399 1122 c 0
 534 1122 639 1044 728 993 c 128
 781 963 855 923 928 923 c 0
 945 923 967 935 994 958 c 128
 1021 981 1068 1034 1137 1117 c 1
 1266 1032 l 1
 1206 942 1160 815 1098 728 c 128
 1059 673 1002 629 914 629 c 0
 730.974743803 629 620.402327889 756.812773852 484 811 c 128
 449 825 417 832 388 832 c 0
 370 832 348 821 323 798 c 128
 298 775 249 721 176 634 c 1
 45 720 l 1
EndSplineSet
EndChar

StartChar: exclamdown
Encoding: 161 161 99
Width: 804
GlyphClass: 2
Flags: HW
LayerCount: 2
Fore
SplineSet
611 1072 m 1
 695 299 l 1
 695 0 l 1
 108 0 l 1
 108 299 l 1
 190 1074 l 1
 611 1072 l 1
687 1408 m 0
 687 1252 558 1158 400 1158 c 0
 245 1158 123 1253 123 1408 c 0
 123 1563 243 1653 400 1653 c 0
 561 1653 687 1565 687 1408 c 0
EndSplineSet
EndChar

StartChar: cent
Encoding: 162 162 100
Width: 1149
GlyphClass: 2
Flags: HW
LayerCount: 2
Fore
SplineSet
733 1362 m 1
 733 1057 l 1
 766 1042 800 1021 833 995 c 1
 874 1072 l 1
 1049 1072 l 1
 1049 628 l 1
 807 628 l 1
 807 693 777 745 733 766 c 1
 733 305 l 1
 776 323 798 367 810 415 c 128
 811 419 811 422 811 425 c 1
 1051 425 l 1
 1051 124 l 1
 982 55 876 11 733 -9 c 1
 733 -261 l 1
 621 -261 l 1
 621 -18 l 1
 608 -18 l 2
 376 -18 219 81 130 238 c 128
 81 324 56 427 56 546 c 0
 56 706 116 838 194 928 c 128
 274 1020 409 1092 575 1092 c 0
 590 1092 606 1091 621 1089 c 1
 621 1362 l 1
 733 1362 l 1
529 513 m 0
 529 422 559 339 621 309 c 1
 621 759 l 1
 560 720 529 638 529 513 c 0
EndSplineSet
EndChar

StartChar: sterling
Encoding: 163 163 101
Width: 1285
GlyphClass: 2
Flags: HW
LayerCount: 2
Fore
SplineSet
974 1265 m 0
 845 1265 745 1237 745 1117 c 2
 745 993 l 1
 998 993 l 1
 998 760 l 1
 745 760 l 1
 745 628 745 497 745 365 c 1
 776 356 l 1
 838 341 954 331 1041 331 c 0
 1092 331 1150 334 1216 340 c 1
 1216 29 l 1
 1125 -2 1034 -18 944 -18 c 0
 775 -18 690 39 690 153 c 1
 621 38 507 -19 348 -19 c 0
 273 -19 179 -3 65 29 c 1
 65 340 l 1
 104 331 136 327 161 327 c 0
 261 327 271 402 271 520 c 2
 271 760 l 1
 147 760 l 1
 147 993 l 1
 271 993 l 1
 271 1207 l 2
 271 1398 396 1497 536 1552 c 128
 633 1590 737 1609 865 1609 c 0
 988 1609 1094 1594 1182 1563 c 1
 1182 1252 l 1
 1101 1261 1031 1265 974 1265 c 0
EndSplineSet
EndChar

StartChar: currency
Encoding: 164 164 102
Width: 1292
GlyphClass: 2
Flags: HW
LayerCount: 2
Fore
SplineSet
70 1097 m 0
 70 1237 108 1355 185 1450 c 1
 118 1518 l 1
 221 1621 l 1
 292 1549 l 1
 394 1619 511 1654 644 1654 c 0
 781 1654 900 1617 1002 1544 c 1
 1079 1621 l 1
 1182 1518 l 1
 1108 1444 l 1
 1181 1349 1218 1234 1218 1097 c 0
 1218 955 1179 836 1101 741 c 1
 1182 660 l 1
 1079 557 l 1
 993 643 l 1
 892 574 776 540 644 540 c 0
 515 540 401 573 302 638 c 1
 221 557 l 1
 118 660 l 1
 192 734 l 1
 111 831 70 952 70 1097 c 0
783 1468 m 128
 738 1485 692 1493 644 1493 c 128
 534 1493 447 1449 384 1394 c 128
 314 1333 264 1226 264 1097 c 128
 264 902 364 779 505 726 c 128
 550 709 596 701 644 701 c 128
 754 701 841 745 904 800 c 128
 974 861 1024 968 1024 1097 c 128
 1024 1291 923 1415 783 1468 c 128
EndSplineSet
EndChar

StartChar: yen
Encoding: 165 165 103
Width: 1708
GlyphClass: 2
Flags: HW
LayerCount: 2
Fore
SplineSet
1002 1272 m 1
 1002 1622 l 1
 1639 1622 l 1
 1639 1272 l 1
 1565 1272 l 2
 1434 1272 1401 1182 1354 1095 c 1
 1253 936 l 1
 1564 936 l 1
 1564 762 l 1
 1150 762 l 1
 1150 630 l 1
 1564 630 l 1
 1564 456 l 1
 1150 456 l 1
 1150 371 l 1
 1307 371 l 1
 1307 0 l 1
 438 0 l 1
 438 371 l 1
 593 371 l 1
 593 456 l 1
 171 456 l 1
 171 630 l 1
 593 630 l 1
 593 672 l 1
 530 762 l 1
 171 762 l 1
 171 936 l 1
 408 936 l 1
 172 1274 l 1
 60 1274 l 1
 60 1622 l 1
 912 1622 l 1
 912 1274 l 1
 821 1274 l 1
 839 1250 988 1018 1005 993 c 1
 1081 1108 1119 1184 1119 1221 c 0
 1119 1268 1093 1272 1041 1272 c 0
 1029 1272 1016 1272 1002 1272 c 1
EndSplineSet
EndChar

StartChar: brokenbar
Encoding: 166 166 104
Width: 687
GlyphClass: 2
Flags: HW
LayerCount: 2
Fore
SplineSet
541 721 m 1
 541 0 l 1
 146 0 l 1
 146 721 l 1
 541 721 l 1
541 1623 m 1
 541 902 l 1
 146 902 l 1
 146 1623 l 1
 541 1623 l 1
EndSplineSet
EndChar

StartChar: section
Encoding: 167 167 105
Width: 1080
GlyphClass: 2
Flags: HW
LayerCount: 2
Fore
SplineSet
513 209 m 0
 560 209 601 238 601 287 c 0
 601 349 541 395 496 425 c 128
 394 493 272 554 180 633 c 128
 128 678 76 748 76 837 c 0
 76 967 176 1060 280 1097 c 1
 170 1176 115 1263 115 1356 c 0
 115 1526 288 1638 466 1638 c 0
 567 1638 662 1620 720 1580 c 128
 724 1577 728 1574 730 1572 c 1
 757 1623 l 1
 925 1623 l 1
 925 1300 l 1
 724 1300 l 1
 681 1395 l 1
 663 1429 625 1466 578 1466 c 0
 530 1466 495 1428 495 1377 c 0
 495 1358 505 1339 524 1320 c 128
 569 1275 636 1241 699 1207 c 128
 772 1167 850 1117 910 1064 c 128
 962 1018 1013 946 1013 855 c 0
 1013 704 922 591 801 555 c 1
 908 490 962 403 962 296 c 0
 962 215 928 142 859 78 c 128
 790 14 706 -18 606 -18 c 0
 473 -18 386 -1 318 68 c 1
 282 1 l 1
 112 1 l 1
 112 379 l 1
 333 379 l 1
 348 295 416 209 513 209 c 0
497 988 m 1
 429 955 395 918 395 878 c 0
 395 846 418 814 464 781 c 128
 510 748 567 718 638 689 c 1
 695 726 724 770 724 821 c 0
 724 854 702 885 658 915 c 128
 614 945 560 969 497 988 c 1
EndSplineSet
EndChar

StartChar: dieresis
Encoding: 168 168 106
Width: 1707
GlyphClass: 2
Flags: HW
LayerCount: 2
Fore
SplineSet
494 1572 m 128
 625 1572 720 1478 720 1342 c 0
 720 1207 625 1112 496 1112 c 0
 364 1112 268 1208 268 1345 c 0
 268 1480 364 1572 494 1572 c 128
1111 1572 m 128
 1242 1572 1337 1478 1337 1342 c 0
 1337 1207 1242 1112 1113 1112 c 0
 981 1112 885 1208 885 1345 c 0
 885 1480 981 1572 1111 1572 c 128
EndSplineSet
EndChar

StartChar: copyright
Encoding: 169 169 107
Width: 1806
GlyphClass: 2
Flags: HW
LayerCount: 2
Fore
SplineSet
63 792 m 128
 63 1036 176 1237 308 1364 c 128
 442 1493 653 1602 903 1602 c 128
 1153 1602 1364 1493 1498 1364 c 128
 1630 1237 1743 1036 1743 792 c 128
 1743 549 1630 347 1498 220 c 128
 1364 91 1153 -18 903 -18 c 128
 653 -18 442 91 308 220 c 128
 176 347 63 548 63 792 c 128
903 1448 m 0
 704 1448 538 1360 432 1256 c 128
 327 1152 237 989 237 792 c 128
 237 595 327 431 432 328 c 128
 538 224 704 136 903 136 c 0
 1170 136 1375 286 1480 463 c 128
 1540 564 1569 673 1569 792 c 128
 1569 1057 1415 1257 1236 1360 c 128
 1134 1419 1023 1448 903 1448 c 0
782 812 m 0
 782 808 782 804 782 800 c 0
 782 645 784 488 940 488 c 0
 1013 488 1067 535 1079 598 c 0
 1081 607 1083 627 1084 658 c 1
 1275 658 l 1
 1275 398 l 1
 1257 383 l 2
 1223 355 1167 326 1119 304 c 128
 1060 276 962 252 875 252 c 0
 557 252 388 460 388 780 c 0
 388 1025 484 1214 659 1287 c 128
 708 1308 763 1318 822 1318 c 0
 930 1318 1006 1297 1050 1254 c 1
 1072 1299 l 1
 1269 1299 l 1
 1269 898 l 1
 1080 898 l 1
 1080 900 1080 903 1080 905 c 0
 1080 1004 1032 1088 932 1088 c 0
 795 1088 782 949 782 812 c 0
EndSplineSet
EndChar

StartChar: ordfeminine
Encoding: 170 170 108
Width: 999
GlyphClass: 2
Flags: HW
LayerCount: 2
Fore
SplineSet
324 806 m 0
 172 806 37 896 37 1046 c 0
 37 1175 136 1241 240 1269 c 128
 278 1279 317 1284 358 1284 c 0
 430 1284 493 1275 547 1256 c 1
 547 1289 l 2
 547 1370 495 1411 391 1411 c 0
 321 1411 268 1388 233 1341 c 1
 103 1341 l 1
 103 1573 l 1
 153 1586 l 2
 221 1604 369 1625 460 1625 c 0
 642 1625 802 1590 860 1464 c 128
 873 1437 879 1406 879 1372 c 2
 879 1044 l 1
 935 1044 l 1
 935 819 l 1
 587 819 l 1
 550 907 l 1
 507 852 416 806 324 806 c 0
476 1142 m 0
 434 1142 399 1101 399 1060 c 0
 399 1016 425 984 469 984 c 0
 504 984 534 1003 549 1018 c 1
 549 1127 l 1
 531 1134 502 1142 476 1142 c 0
EndSplineSet
EndChar

StartChar: guillemotleft
Encoding: 171 171 109
Width: 1306
GlyphClass: 2
Flags: HW
LayerCount: 2
Fore
SplineSet
643 669 m 1
 1069 1073 l 1
 1260 849 l 1
 945 534 l 1
 1260 219 l 1
 1069 -5 l 1
 643 399 l 1
 643 669 l 1
33 669 m 1
 459 1073 l 1
 650 849 l 1
 335 534 l 1
 650 219 l 1
 459 -5 l 1
 33 399 l 1
 33 669 l 1
EndSplineSet
EndChar

StartChar: logicalnot
Encoding: 172 172 110
Width: 1195
GlyphClass: 2
Flags: HW
LayerCount: 2
Fore
SplineSet
78 1092 m 1
 1089 1092 l 1
 1089 542 l 1
 858 542 l 1
 858 761 l 1
 79 761 l 1
 78 1092 l 1
EndSplineSet
EndChar

StartChar: uni00AD
Encoding: 173 173 111
Width: 774
GlyphClass: 2
Flags: HW
LayerCount: 2
Fore
SplineSet
717 836 m 1
 717 537 l 1
 70 537 l 1
 70 836 l 1
 717 836 l 1
EndSplineSet
EndChar

StartChar: registered
Encoding: 174 174 112
Width: 1806
GlyphClass: 2
Flags: HW
LayerCount: 2
Fore
SplineSet
63 792 m 128
 63 1036 176 1237 308 1364 c 128
 442 1493 653 1602 903 1602 c 128
 1153 1602 1364 1493 1498 1364 c 128
 1630 1237 1743 1036 1743 792 c 128
 1743 549 1630 347 1498 220 c 128
 1364 91 1153 -18 903 -18 c 128
 653 -18 442 91 308 220 c 128
 176 347 63 548 63 792 c 128
903 1448 m 0
 704 1448 538 1360 432 1256 c 128
 327 1152 237 989 237 792 c 128
 237 595 327 431 432 328 c 128
 538 224 704 136 903 136 c 0
 1170 136 1375 286 1480 463 c 128
 1540 564 1569 673 1569 792 c 128
 1569 1057 1415 1257 1236 1360 c 128
 1134 1419 1023 1448 903 1448 c 0
1014 614 m 2
 1014 701 996 749 910 749 c 2
 856 749 l 1
 856 568 l 1
 923 568 l 1
 923 363 l 1
 825 363 675 363 473 362 c 1
 473 565 l 1
 558 565 l 1
 558 1061 l 1
 472 1061 l 1
 472 1265 l 1
 1036 1265 l 2
 1220 1265 1331 1196 1331 1014 c 0
 1331 892 1243 832 1131 812 c 1
 1215 792 1285 761 1285 674 c 2
 1285 622 l 2
 1285 568 1312 562 1376 562 c 1
 1376 363 l 1
 1230 363 l 2
 1163 363 1099 364 1060 394 c 128
 1033 415 1014 455 1014 505 c 2
 1014 614 l 2
1025 972 m 0
 1025 1033 982 1071 920 1071 c 2
 852 1071 l 1
 852 875 l 1
 886 875 l 2
 979 875 1025 907 1025 972 c 0
EndSplineSet
EndChar

StartChar: glyph113
Encoding: 175 175 113
Width: 774
GlyphClass: 2
Flags: HW
LayerCount: 2
Fore
SplineSet
717 1433 m 1
 717 1164 l 1
 70 1164 l 1
 70 1433 l 1
 717 1433 l 1
EndSplineSet
EndChar

StartChar: degree
Encoding: 176 176 114
Width: 781
GlyphClass: 2
Flags: HW
LayerCount: 2
Fore
SplineSet
184 1296 m 0
 184 1182 267 1092 385 1092 c 0
 507 1092 593 1179 593 1296 c 0
 593 1412 506 1495 385 1495 c 0
 266 1495 184 1411 184 1296 c 0
385 951 m 0
 211 951 102 1044 55 1170 c 128
 40 1211 32 1253 32 1297 c 0
 32 1451 118 1557 231 1604 c 128
 277 1623 328 1633 385 1633 c 0
 563 1633 678 1547 728 1421 c 128
 744 1382 751 1340 751 1297 c 0
 751 1196 709 1117 658 1060 c 128
 601 997 504 951 385 951 c 0
EndSplineSet
EndChar

StartChar: plusminus
Encoding: 177 177 115
Width: 849
GlyphClass: 2
Flags: HW
LayerCount: 2
Fore
SplineSet
746 223 m 1
 746 -1 l 1
 99 -1 l 1
 99 223 l 1
 746 223 l 1
69 762 m 1
 301 762 l 1
 301 1031 l 1
 556 1031 l 1
 556 762 l 1
 781 762 l 1
 781 517 l 1
 556 517 l 1
 556 278 l 1
 301 278 l 1
 301 517 l 1
 69 517 l 1
 69 762 l 1
EndSplineSet
EndChar

StartChar: uni00B2
Encoding: 178 178 116
Width: 864
GlyphClass: 2
Flags: HW
LayerCount: 2
Fore
SplineSet
417 1121 m 0
 595 1121 745 1022 745 845 c 0
 745 783 724 725 681 671 c 0
 647 627 575 564 465 481 c 1
 562 481 l 1
 636 483 692 497 692 570 c 1
 796 570 l 1
 796 286 l 1
 108 286 l 1
 108 468 l 1
 217 511 304 571 372 642 c 128
 403 674 437 739 437 803 c 1
 434 854 404 907 355 907 c 0
 304 907 273 871 273 821 c 0
 273 793 286 767 311 744 c 1
 174 639 l 1
 115 692 85 762 85 849 c 0
 85 852 85 855 85 858 c 0
 85 978 178 1062 270 1096 c 128
 318 1113 368 1121 417 1121 c 0
EndSplineSet
EndChar

StartChar: uni00B3
Encoding: 179 179 117
Width: 824
GlyphClass: 2
Flags: HW
LayerCount: 2
Fore
SplineSet
365 270 m 0
 243 270 160 278 87 326 c 1
 87 529 l 1
 158 472 230 443 304 443 c 0
 367 443 435 466 435 529 c 0
 435 601 362 627 289 627 c 0
 269 627 228 616 214 616 c 1
 210 618 202 616 202 621 c 2
 202 714 l 1
 402 884 l 1
 402 890 l 1
 274 890 l 2
 213 890 206 855 193 806 c 1
 80 807 l 1
 80 1072 l 1
 706 1072 l 1
 706 918 l 2
 706 917 650 870 539 779 c 1
 646 769 745 672 745 558 c 0
 745 357 577 270 365 270 c 0
EndSplineSet
EndChar

StartChar: acute
Encoding: 180 180 118
Width: 1016
GlyphClass: 2
Flags: HW
LayerCount: 2
Fore
SplineSet
851 1443 m 1
 297 1130 l 1
 193 1271 l 1
 667 1708 l 1
 851 1443 l 1
EndSplineSet
EndChar

StartChar: uni00B5
Encoding: 181 181 119
Width: 1468
GlyphClass: 2
Flags: HW
LayerCount: 2
Fore
SplineSet
723 318 m 0
 787 318 827 373 827 438 c 2
 827 761 l 1
 746 761 l 1
 746 1072 l 1
 1321 1072 l 1
 1321 305 l 1
 1397 305 l 1
 1397 0 l 1
 827 0 l 1
 827 156 l 1
 759 50 637 -18 469 -18 c 0
 249 -18 139 116 139 385 c 2
 139 761 l 1
 59 761 l 1
 59 1072 l 1
 633 1072 l 1
 633 438 l 2
 633 378 667 318 723 318 c 0
EndSplineSet
EndChar

StartChar: paragraph
Encoding: 182 182 120
Width: 1555
GlyphClass: 2
Flags: HW
LayerCount: 2
Fore
SplineSet
626 739 m 1
 301 739 56 834 56 1155 c 0
 56 1310 101 1416 181 1490 c 128
 297 1598 505 1623 728 1623 c 0
 756 1623 785 1623 814 1623 c 0
 829 1623 844 1623 859 1623 c 2
 1426 1623 l 1
 1426 1268 l 1
 1275 1268 l 1
 1275 363 l 1
 1431 363 l 1
 1431 0 l 1
 1022 0 l 1
 1022 1270 l 1
 897 1270 l 1
 897 0 l 1
 480 0 l 1
 480 363 l 1
 626 363 l 1
 626 739 l 1
EndSplineSet
EndChar

StartChar: periodcentered
Encoding: 183 183 121
Width: 682
GlyphClass: 2
Flags: HW
LayerCount: 2
Fore
SplineSet
624 764 m 0
 624 608 495 514 337 514 c 0
 182 514 60 609 60 764 c 0
 60 919 180 1009 337 1009 c 0
 498 1009 624 921 624 764 c 0
EndSplineSet
EndChar

StartChar: cedilla
Encoding: 184 184 122
Width: 502
GlyphClass: 2
Flags: HW
LayerCount: 2
Fore
SplineSet
257 -271 m 0
 257 -206 194 -145 147 -119 c 1
 147 0 l 1
 327 0 l 1
 327 -119 l 1
 416 -170 460 -226 460 -285 c 0
 460 -420 244 -485 91 -485 c 2
 70 -485 l 1
 70 -372 l 1
 135 -371 182 -362 212 -343 c 128
 242 -324 257 -300 257 -271 c 0
EndSplineSet
EndChar

StartChar: uni00B9
Encoding: 185 185 123
Width: 615
GlyphClass: 2
Flags: HW
LayerCount: 2
Fore
SplineSet
117 286 m 1
 116 476 l 1
 169 476 l 1
 169 843 l 1
 73 842 l 1
 73 993 l 1
 460 1091 l 1
 464 476 l 1
 520 476 l 1
 520 286 l 1
 117 286 l 1
EndSplineSet
EndChar

StartChar: ordmasculine
Encoding: 186 186 124
Width: 1032
GlyphClass: 2
Flags: HW
LayerCount: 2
Fore
SplineSet
516 270 m 128
 252 270 70 426 70 688 c 0
 70 952 248 1091 516 1091 c 0
 784 1091 962 952 962 688 c 0
 962 426 780 270 516 270 c 128
516 860 m 128
 425 860 415 776 415 686 c 0
 415 563 449 501 516 501 c 0
 584 501 618 563 618 686 c 0
 618 776 607 860 516 860 c 128
EndSplineSet
EndChar

StartChar: guillemotright
Encoding: 187 187 125
Width: 1306
GlyphClass: 2
Flags: HW
LayerCount: 2
Fore
SplineSet
663 399 m 1
 237 -5 l 1
 46 219 l 1
 361 534 l 1
 46 849 l 1
 237 1073 l 1
 663 669 l 1
 663 399 l 1
1273 399 m 1
 847 -5 l 1
 656 219 l 1
 971 534 l 1
 656 849 l 1
 847 1073 l 1
 1273 669 l 1
 1273 399 l 1
EndSplineSet
EndChar

StartChar: onequarter
Encoding: 188 188 126
Width: 1721
GlyphClass: 2
Flags: HW
LayerCount: 2
Fore
SplineSet
111 818 m 1
 110 1008 l 1
 163 1008 l 1
 163 1375 l 1
 67 1374 l 1
 67 1525 l 1
 454 1623 l 1
 458 1008 l 1
 514 1008 l 1
 514 818 l 1
 111 818 l 1
348 0 m 1
 839 1623 l 1
 1203 1623 l 1
 701 0 l 1
 348 0 l 1
1536 170 m 1
 1608 170 l 1
 1608 1 l 1
 1194 1 l 1
 1194 170 l 1
 1268 170 l 1
 1268 247 l 1
 955 247 l 1
 955 405 l 1
 1279 789 l 1
 1537 788 l 1
 1537 397 l 1
 1670 398 l 1
 1670 247 l 1
 1536 247 l 1
 1536 170 l 1
1268 398 m 1
 1268 536 l 1
 1157 399 l 1
 1268 398 l 1
EndSplineSet
EndChar

StartChar: onehalf
Encoding: 189 189 127
Width: 1784
GlyphClass: 2
Flags: HW
LayerCount: 2
Fore
SplineSet
107 818 m 1
 106 1008 l 1
 159 1008 l 1
 159 1375 l 1
 63 1374 l 1
 63 1525 l 1
 450 1623 l 1
 454 1008 l 1
 510 1008 l 1
 510 818 l 1
 107 818 l 1
352 0 m 1
 843 1623 l 1
 1207 1623 l 1
 705 0 l 1
 352 0 l 1
1351 834 m 0
 1529 834 1679 735 1679 558 c 0
 1679 496 1658 438 1615 384 c 0
 1581 340 1509 277 1399 194 c 1
 1496 194 l 1
 1570 196 1626 210 1626 283 c 1
 1730 283 l 1
 1730 -1 l 1
 1042 -1 l 1
 1042 181 l 1
 1151 224 1238 285 1306 356 c 128
 1337 388 1371 452 1371 516 c 1
 1368 567 1338 620 1289 620 c 0
 1238 620 1207 584 1207 534 c 0
 1207 506 1220 480 1245 457 c 1
 1108 352 l 1
 1049 405 1019 475 1019 562 c 0
 1019 565 1019 568 1019 571 c 0
 1019 691 1112 774 1204 808 c 128
 1252 825 1302 834 1351 834 c 0
EndSplineSet
EndChar

StartChar: threequarters
Encoding: 190 190 128
Width: 1827
GlyphClass: 2
Flags: HW
LayerCount: 2
Fore
SplineSet
361 822 m 0
 239 822 156 830 83 878 c 1
 83 1081 l 1
 154 1024 226 995 300 995 c 0
 363 995 431 1018 431 1081 c 0
 431 1153 358 1179 285 1179 c 0
 265 1179 224 1168 210 1168 c 0
 202 1168 200 1168 198 1173 c 1
 198 1266 l 1
 398 1436 l 1
 398 1442 l 1
 270 1442 l 2
 209 1442 202 1407 189 1358 c 1
 76 1359 l 1
 76 1624 l 1
 702 1624 l 1
 702 1470 l 2
 702 1469 646 1422 535 1331 c 1
 642 1321 741 1224 741 1110 c 0
 741 909 573 822 361 822 c 0
502 0 m 1
 993 1623 l 1
 1357 1623 l 1
 855 0 l 1
 502 0 l 1
1642 168 m 1
 1714 168 l 1
 1714 -1 l 1
 1300 -1 l 1
 1300 168 l 1
 1374 168 l 1
 1374 245 l 1
 1061 245 l 1
 1061 403 l 1
 1385 787 l 1
 1643 786 l 1
 1643 395 l 1
 1776 396 l 1
 1776 245 l 1
 1642 245 l 1
 1642 168 l 1
1374 396 m 1
 1374 534 l 1
 1263 397 l 1
 1374 396 l 1
EndSplineSet
EndChar

StartChar: questiondown
Encoding: 191 191 129
Width: 1312
GlyphClass: 2
Flags: HW
LayerCount: 2
Fore
SplineSet
661 338 m 0
 741 338 784 392 791 500 c 1
 1263 500 l 1
 1254 349 1193 225 1080 128 c 128
 967 31 824 -18 653 -18 c 0
 540 -18 438 2 346 42 c 128
 191 109 53 243 53 447 c 0
 53 598 118 699 200 773 c 128
 313 876 457 938 615 993 c 1
 615 1180 l 1
 962 1180 l 1
 961 828 l 1
 697 709 565 589 565 470 c 0
 565 404 592 338 661 338 c 0
495 1496 m 0
 495 1652 624 1746 782 1746 c 0
 937 1746 1059 1651 1059 1496 c 0
 1059 1341 939 1251 782 1251 c 0
 621 1251 495 1339 495 1496 c 0
EndSplineSet
EndChar

StartChar: Agrave
Encoding: 192 192 130
Width: 1643
GlyphClass: 2
Flags: HW
LayerCount: 2
Fore
SplineSet
555 459 m 1
 555 428 568 359 598 359 c 2
 682 359 l 1
 682 0 l 1
 4 0 l 1
 4 359 l 1
 173 359 192 438 231 591 c 2
 403 1270 l 1
 191 1270 l 1
 191 1623 l 1
 1185 1623 l 1
 1492 447 l 2
 1501 412 1509 359 1548 359 c 2
 1634 359 l 1
 1634 0 l 1
 808 0 l 1
 807 359 l 1
 927 359 l 1
 927 468 905 523 860 523 c 2
 585 523 l 2
 556 523 556 489 555 459 c 1
612 773 m 1
 841 773 l 1
 724 1281 l 1
 612 773 l 1
648 2270 m 1
 1122 1833 l 1
 1018 1692 l 1
 464 2005 l 1
 648 2270 l 1
EndSplineSet
EndChar

StartChar: Aacute
Encoding: 193 193 131
Width: 1643
GlyphClass: 2
Flags: HW
LayerCount: 2
Fore
SplineSet
555 459 m 1
 555 428 568 359 598 359 c 2
 682 359 l 1
 682 0 l 1
 4 0 l 1
 4 359 l 1
 173 359 192 439 231 591 c 2
 403 1270 l 1
 191 1270 l 1
 191 1623 l 1
 1185 1623 l 1
 1492 447 l 2
 1501 411 1503 393 1522 372 c 128
 1529 364 1538 359 1548 359 c 2
 1634 359 l 1
 1634 0 l 1
 808 0 l 1
 807 359 l 1
 927 359 l 1
 927 468 905 523 860 523 c 2
 585 523 l 2
 556 523 556 489 555 459 c 1
841 773 m 1
 724 1281 l 1
 612 773 l 1
 841 773 l 1
1122 2005 m 1
 568 1692 l 1
 464 1833 l 1
 938 2270 l 1
 1122 2005 l 1
EndSplineSet
EndChar

StartChar: Acircumflex
Encoding: 194 194 132
Width: 1643
GlyphClass: 2
Flags: HW
LayerCount: 2
Fore
SplineSet
555 459 m 1
 555 428 568 359 598 359 c 2
 682 359 l 1
 682 0 l 1
 4 0 l 1
 4 359 l 1
 173 359 192 439 231 591 c 2
 403 1270 l 1
 191 1270 l 1
 191 1623 l 1
 1185 1623 l 1
 1492 447 l 2
 1501 411 1503 393 1522 372 c 128
 1529 364 1538 359 1548 359 c 2
 1634 359 l 1
 1634 0 l 1
 808 0 l 1
 807 359 l 1
 927 359 l 1
 927 468 905 523 860 523 c 2
 585 523 l 2
 556 523 556 489 555 459 c 1
841 773 m 1
 724 1281 l 1
 612 773 l 1
 841 773 l 1
828 2162 m 1
 1102 1786 l 1
 948 1685 l 1
 693 1930 l 1
 438 1685 l 1
 284 1786 l 1
 557 2163 l 1
 828 2162 l 1
EndSplineSet
EndChar

StartChar: Atilde
Encoding: 195 195 133
Width: 1643
GlyphClass: 2
Flags: HW
LayerCount: 2
Fore
SplineSet
555 459 m 1
 555 428 568 359 598 359 c 2
 682 359 l 1
 682 0 l 1
 4 0 l 1
 4 359 l 1
 173 359 192 438 231 591 c 2
 403 1270 l 1
 191 1270 l 1
 191 1623 l 1
 1185 1623 l 1
 1492 447 l 2
 1501 412 1509 359 1548 359 c 2
 1634 359 l 1
 1634 0 l 1
 808 0 l 1
 807 359 l 1
 927 359 l 1
 927 468 905 523 860 523 c 2
 585 523 l 2
 556 523 556 489 555 459 c 1
612 773 m 1
 841 773 l 1
 724 1281 l 1
 612 773 l 1
967 2085 m 0
 1069 2085 1116 2010 1154 1944 c 128
 1176 1905 1215 1829 1239 1794 c 1
 1126 1720 l 1
 1077 1767 1044 1796 1026 1809 c 128
 1008 1822 992 1828 979 1828 c 0
 949 1828 913 1818 872 1798 c 128
 831 1778 788 1758 744 1738 c 128
 700 1718 659 1707 622 1707 c 0
 519 1707 471 1780 433 1846 c 128
 411 1885 372 1962 348 1997 c 1
 462 2072 l 1
 513 2023 547 1993 566 1980 c 128
 585 1967 600 1960 612 1960 c 0
 670 1960 741 1998 781 2022 c 128
 825 2049 901 2085 967 2085 c 0
EndSplineSet
EndChar

StartChar: Adieresis
Encoding: 196 196 134
Width: 1643
GlyphClass: 2
Flags: HW
LayerCount: 2
Fore
SplineSet
555 459 m 1
 555 428 568 359 598 359 c 2
 682 359 l 1
 682 0 l 1
 4 0 l 1
 4 359 l 1
 173 359 192 438 231 591 c 2
 403 1270 l 1
 191 1270 l 1
 191 1623 l 1
 1185 1623 l 1
 1492 447 l 2
 1501 412 1509 359 1548 359 c 2
 1634 359 l 1
 1634 0 l 1
 808 0 l 1
 807 359 l 1
 927 359 l 1
 927 468 905 523 860 523 c 2
 585 523 l 2
 556 523 556 489 555 459 c 1
612 773 m 1
 841 773 l 1
 724 1281 l 1
 612 773 l 1
485 2134 m 128
 616 2134 711 2040 711 1904 c 0
 711 1769 616 1674 487 1674 c 0
 355 1674 259 1770 259 1907 c 0
 259 2042 355 2134 485 2134 c 128
1102 2134 m 128
 1233 2134 1328 2040 1328 1904 c 0
 1328 1769 1233 1674 1104 1674 c 0
 972 1674 876 1770 876 1907 c 0
 876 2042 972 2134 1102 2134 c 128
EndSplineSet
EndChar

StartChar: Aring
Encoding: 197 197 135
Width: 1643
GlyphClass: 2
Flags: HW
LayerCount: 2
Fore
SplineSet
555 459 m 1
 555 428 568 359 598 359 c 2
 682 359 l 1
 682 0 l 1
 4 0 l 1
 4 359 l 1
 173 359 192 439 231 591 c 2
 403 1270 l 1
 191 1270 l 1
 191 1623 l 1
 1185 1623 l 1
 1492 447 l 2
 1501 411 1503 393 1522 372 c 128
 1529 364 1538 359 1548 359 c 2
 1634 359 l 1
 1634 0 l 1
 808 0 l 1
 807 359 l 1
 927 359 l 1
 927 468 905 523 860 523 c 2
 585 523 l 2
 556 523 556 489 555 459 c 1
841 773 m 1
 724 1281 l 1
 612 773 l 1
 841 773 l 1
628 1950 m 0
 628 1863 697 1802 789 1802 c 0
 882 1802 954 1862 954 1950 c 0
 954 2038 882 2095 789 2095 c 0
 697 2095 628 2037 628 1950 c 0
789 2195 m 0
 948 2195 1069 2100 1069 1951 c 0
 1069 1884 1044 1825 994 1775 c 128
 944 1725 876 1700 789 1700 c 0
 704 1700 638 1725 590 1775 c 128
 542 1825 518 1884 518 1951 c 0
 518 2097 634 2195 789 2195 c 0
EndSplineSet
EndChar

StartChar: AE
Encoding: 198 198 136
Width: 2138
GlyphClass: 2
Flags: HW
LayerCount: 2
Fore
SplineSet
605 540 m 2
 570 540 559 483 559 446 c 0
 559 415 568 376 587 376 c 2
 671 376 l 1
 671 0 l 1
 -10 -1 l 1
 -10 354 l 1
 51 354 90 370 128 390 c 128
 147 400 173 433 185 448 c 128
 194 459 219 508 226 522 c 128
 231 533 259 597 264 608 c 2
 586 1274 l 1
 374 1274 l 1
 445 1623 l 1
 2015 1623 l 1
 2015 970 l 1
 1747 969 l 1
 1671 1271 l 1
 1458 1271 l 1
 1458 988 l 1
 1663 988 l 1
 1663 636 l 1
 1458 636 l 1
 1458 350 l 1
 1677 350 l 1
 1698 467 1728 574 1753 687 c 1
 2026 687 l 1
 2026 0 l 1
 797 0 l 1
 796 376 l 1
 916 376 l 1
 923 411 926 440 926 464 c 0
 926 515 911 540 880 540 c 2
 605 540 l 2
908 771 m 1
 909 1292 l 1
 669 771 l 1
 908 771 l 1
EndSplineSet
EndChar

StartChar: Ccedilla
Encoding: 199 199 137
Width: 1542
GlyphClass: 2
Flags: HW
LayerCount: 2
Fore
SplineSet
679 765 m 0
 679 781 679 796 680 811 c 1
 680 841 680 841 680 855 c 0
 680 1071 702 1290 917 1290 c 0
 1077 1290 1151 1159 1151 1001 c 0
 1151 998 1151 994 1151 991 c 1
 1449 991 l 1
 1448 1623 l 1
 1137 1623 l 1
 1103 1552 l 1
 1021 1630 898 1652 743 1652 c 0
 547 1652 390 1575 292 1472 c 128
 148 1321 59 1092 59 804 c 0
 59 636 87 490 144 366 c 128
 254 128 486 -29 827 -29 c 0
 964 -29 1117 9 1211 52 c 128
 1288 87 1375 133 1429 178 c 2
 1458 202 l 1
 1458 612 l 1
 1157 612 l 1
 1154 563 1152 531 1149 518 c 0
 1130 418 1044 343 930 343 c 0
 712 343 679 547 679 765 c 0
819 -271 m 0
 819 -206 756 -145 709 -119 c 1
 709 0 l 1
 889 0 l 1
 889 -119 l 1
 978 -170 1022 -226 1022 -285 c 0
 1022 -420 806 -485 653 -485 c 2
 632 -485 l 1
 632 -372 l 1
 697 -371 744 -362 774 -343 c 128
 804 -324 819 -300 819 -271 c 0
EndSplineSet
EndChar

StartChar: Egrave
Encoding: 200 200 138
Width: 1490
GlyphClass: 2
Flags: HW
LayerCount: 2
Fore
SplineSet
1367 969 m 1
 1099 968 l 1
 1023 1270 l 1
 810 1270 l 1
 810 988 l 1
 1015 988 l 1
 1015 636 l 1
 810 636 l 1
 810 359 l 1
 1029 359 l 1
 1042 420 l 1
 1105 687 l 1
 1378 687 l 1
 1378 0 l 1
 99 0 l 1
 99 359 l 1
 257 359 l 1
 257 1270 l 1
 99 1270 l 1
 99 1623 l 1
 1367 1623 l 1
 1367 969 l 1
591 2270 m 1
 1065 1833 l 1
 961 1692 l 1
 407 2005 l 1
 591 2270 l 1
EndSplineSet
EndChar

StartChar: Eacute
Encoding: 201 201 139
Width: 1490
GlyphClass: 2
Flags: HW
LayerCount: 2
Fore
SplineSet
1099 968 m 1
 1023 1270 l 1
 810 1270 l 1
 810 988 l 1
 1015 988 l 1
 1015 636 l 1
 810 636 l 1
 810 359 l 1
 1029 359 l 1
 1052 470 1080 578 1105 687 c 1
 1378 687 l 1
 1378 0 l 1
 99 0 l 1
 99 359 l 1
 257 359 l 1
 257 1270 l 1
 99 1270 l 1
 99 1623 l 1
 1367 1623 l 1
 1367 969 l 1
 1099 968 l 1
1065 2005 m 1
 511 1692 l 1
 407 1833 l 1
 881 2270 l 1
 1065 2005 l 1
EndSplineSet
EndChar

StartChar: Ecircumflex
Encoding: 202 202 140
Width: 1490
GlyphClass: 2
Flags: HW
LayerCount: 2
Fore
SplineSet
1099 968 m 1
 1023 1270 l 1
 810 1270 l 1
 810 988 l 1
 1015 988 l 1
 1015 636 l 1
 810 636 l 1
 810 359 l 1
 1029 359 l 1
 1052 470 1080 578 1105 687 c 1
 1378 687 l 1
 1378 0 l 1
 99 0 l 1
 99 359 l 1
 257 359 l 1
 257 1270 l 1
 99 1270 l 1
 99 1623 l 1
 1367 1623 l 1
 1367 969 l 1
 1099 968 l 1
871 2162 m 1
 1145 1786 l 1
 991 1685 l 1
 736 1930 l 1
 481 1685 l 1
 327 1786 l 1
 600 2163 l 1
 871 2162 l 1
EndSplineSet
EndChar

StartChar: Edieresis
Encoding: 203 203 141
Width: 1490
GlyphClass: 2
Flags: HW
LayerCount: 2
Fore
SplineSet
1367 969 m 1
 1099 968 l 1
 1023 1270 l 1
 810 1270 l 1
 810 988 l 1
 1015 988 l 1
 1015 636 l 1
 810 636 l 1
 810 359 l 1
 1029 359 l 1
 1042 420 l 1
 1105 687 l 1
 1378 687 l 1
 1378 0 l 1
 99 0 l 1
 99 359 l 1
 257 359 l 1
 257 1270 l 1
 99 1270 l 1
 99 1623 l 1
 1367 1623 l 1
 1367 969 l 1
428 2134 m 128
 559 2134 654 2040 654 1904 c 0
 654 1769 559 1674 430 1674 c 0
 298 1674 202 1770 202 1907 c 0
 202 2042 298 2134 428 2134 c 128
1045 2134 m 128
 1176 2134 1271 2040 1271 1904 c 0
 1271 1769 1176 1674 1047 1674 c 0
 915 1674 819 1770 819 1907 c 0
 819 2042 915 2134 1045 2134 c 128
EndSplineSet
EndChar

StartChar: Igrave
Encoding: 204 204 142
Width: 1076
GlyphClass: 2
Flags: HW
LayerCount: 2
Fore
SplineSet
972 1623 m 1
 972 1270 l 1
 825 1270 l 1
 825 359 l 1
 966 359 l 1
 966 0 l 1
 104 0 l 1
 104 359 l 1
 251 359 l 1
 251 1270 l 1
 108 1270 l 1
 108 1623 l 1
 972 1623 l 1
395 2270 m 1
 869 1833 l 1
 765 1692 l 1
 211 2005 l 1
 395 2270 l 1
EndSplineSet
EndChar

StartChar: Iacute
Encoding: 205 205 143
Width: 1076
GlyphClass: 2
Flags: HW
LayerCount: 2
Fore
SplineSet
972 1270 m 1
 825 1270 l 1
 825 359 l 1
 966 359 l 1
 966 0 l 1
 104 0 l 1
 104 359 l 1
 251 359 l 1
 251 1270 l 1
 108 1270 l 1
 108 1623 l 1
 972 1623 l 1
 972 1270 l 1
869 2005 m 1
 315 1692 l 1
 211 1833 l 1
 685 2270 l 1
 869 2005 l 1
EndSplineSet
EndChar

StartChar: Icircumflex
Encoding: 206 206 144
Width: 1076
GlyphClass: 2
Flags: HW
LayerCount: 2
Fore
SplineSet
972 1270 m 1
 825 1270 l 1
 825 359 l 1
 966 359 l 1
 966 0 l 1
 104 0 l 1
 104 359 l 1
 251 359 l 1
 251 1270 l 1
 108 1270 l 1
 108 1623 l 1
 972 1623 l 1
 972 1270 l 1
675 2162 m 1
 949 1786 l 1
 795 1685 l 1
 540 1930 l 1
 285 1685 l 1
 131 1786 l 1
 404 2163 l 1
 675 2162 l 1
EndSplineSet
EndChar

StartChar: Idieresis
Encoding: 207 207 145
Width: 1076
GlyphClass: 2
Flags: HW
LayerCount: 2
Fore
SplineSet
972 1623 m 1
 972 1270 l 1
 825 1270 l 1
 825 359 l 1
 966 359 l 1
 966 0 l 1
 104 0 l 1
 104 359 l 1
 251 359 l 1
 251 1270 l 1
 108 1270 l 1
 108 1623 l 1
 972 1623 l 1
232 2134 m 128
 363 2134 458 2040 458 1904 c 0
 458 1769 363 1674 234 1674 c 0
 102 1674 6 1770 6 1907 c 0
 6 2042 102 2134 232 2134 c 128
849 2134 m 128
 980 2134 1075 2040 1075 1904 c 0
 1075 1769 980 1674 851 1674 c 0
 719 1674 623 1770 623 1907 c 0
 623 2042 719 2134 849 2134 c 128
EndSplineSet
EndChar

StartChar: Eth
Encoding: 208 208 146
Width: 1802
GlyphClass: 2
Flags: HW
LayerCount: 2
Fore
SplineSet
923 1623 m 2
 1464 1623 1745 1352 1745 816 c 0
 1745 574 1654 383 1532 248 c 128
 1399 102 1176 0 901 0 c 2
 99 0 l 1
 99 351 l 1
 262 351 l 1
 262 653 l 1
 132 653 l 1
 132 952 l 1
 262 952 l 1
 262 1271 l 1
 93 1271 l 1
 93 1623 l 1
 923 1623 l 2
1151 817 m 0
 1151 1057 1097 1271 856 1271 c 2
 809 1271 l 1
 809 952 l 1
 895 952 l 1
 895 653 l 1
 810 653 l 1
 813 351 l 1
 844 351 l 2
 1085 351 1151 578 1151 817 c 0
EndSplineSet
EndChar

StartChar: Ntilde
Encoding: 209 209 147
Width: 1873
GlyphClass: 2
Flags: HW
LayerCount: 2
Fore
SplineSet
1656 1118 m 2
 1656 0 l 1
 1050 0 l 1
 577 908 l 1
 577 507 l 2
 577 396 623 359 735 359 c 1
 735 0 l 1
 98 0 l 1
 98 359 l 1
 152 359 198 372 224 396 c 128
 258 427 261 486 261 550 c 2
 261 1272 l 1
 104 1272 l 1
 104 1623 l 1
 839 1623 l 1
 1335 647 l 1
 1335 1116 l 1
 1335 1121 l 2
 1335 1159 1335 1200 1317 1222 c 128
 1289 1257 1252 1270 1189 1270 c 0
 1185 1270 1181 1270 1177 1270 c 1
 1177 1623 l 1
 1814 1622 l 1
 1814 1270 l 1
 1706 1270 1656 1222 1656 1118 c 2
1082 2085 m 0
 1184 2085 1232 2010 1270 1944 c 128
 1292 1905 1330 1829 1354 1794 c 1
 1241 1720 l 1
 1192 1767 1158 1796 1140 1809 c 128
 1122 1822 1107 1828 1094 1828 c 0
 1064 1828 1028 1818 987 1798 c 128
 946 1778 902 1758 858 1738 c 128
 814 1718 774 1707 737 1707 c 0
 634 1707 586 1780 548 1846 c 128
 526 1885 487 1962 463 1997 c 1
 577 2072 l 1
 628 2023 662 1993 681 1980 c 128
 700 1967 715 1960 727 1960 c 0
 785 1960 856 1998 896 2022 c 128
 940 2049 1016 2085 1082 2085 c 0
EndSplineSet
EndChar

StartChar: Ograve
Encoding: 210 210 148
Width: 1744
GlyphClass: 2
Flags: HW
LayerCount: 2
Fore
SplineSet
1692 808 m 0
 1692 467 1515 211 1289 80 c 128
 1164 7 1025 -29 872 -29 c 128
 535 -29 288 153 160 381 c 128
 88 509 52 651 52 808 c 0
 52 1164 217 1426 452 1553 c 128
 575 1620 715 1653 872 1653 c 128
 1217 1653 1454 1494 1584 1260 c 128
 1656 1131 1692 980 1692 808 c 0
872 319 m 0
 1014 319 1053 442 1072 565 c 128
 1080 617 1083 675 1083 734 c 0
 1083 754 1083 774 1082 793 c 2
 1082 858 l 2
 1082 869 1082 881 1082 892 c 0
 1082 907 1082 923 1082 938 c 0
 1082 965 1081 990 1078 1016 c 128
 1063 1159 1029 1296 872 1296 c 0
 685 1296 670 1104 662 924 c 128
 662 914 661 905 661 895 c 0
 661 882 661 870 662 858 c 2
 662 793 l 1
 665 699 662 602 680 522 c 128
 703 417 746 319 872 319 c 0
725 2270 m 1
 1199 1833 l 1
 1095 1692 l 1
 541 2005 l 1
 725 2270 l 1
EndSplineSet
EndChar

StartChar: Oacute
Encoding: 211 211 149
Width: 1744
GlyphClass: 2
Flags: HW
LayerCount: 2
Fore
SplineSet
1692 808 m 0
 1692 467 1515 211 1289 80 c 128
 1164 7 1025 -29 872 -29 c 128
 535 -29 288 153 160 381 c 128
 88 509 52 651 52 808 c 0
 52 1164 217 1426 452 1553 c 128
 575 1620 715 1653 872 1653 c 128
 1217 1653 1454 1494 1584 1260 c 128
 1656 1131 1692 980 1692 808 c 0
872 319 m 0
 1014 319 1053 442 1072 565 c 128
 1080 617 1083 675 1083 734 c 0
 1083 754 1083 774 1082 793 c 2
 1082 858 l 2
 1082 869 1082 881 1082 892 c 0
 1082 907 1082 923 1082 938 c 0
 1082 965 1081 990 1078 1016 c 128
 1063 1159 1029 1296 872 1296 c 0
 685 1296 670 1104 662 924 c 128
 662 914 661 905 661 895 c 0
 661 882 661 870 662 858 c 2
 662 793 l 1
 665 699 662 602 680 522 c 128
 703 417 746 319 872 319 c 0
1199 2005 m 1
 645 1692 l 1
 541 1833 l 1
 1015 2270 l 1
 1199 2005 l 1
EndSplineSet
EndChar

StartChar: Ocircumflex
Encoding: 212 212 150
Width: 1744
GlyphClass: 2
Flags: HW
LayerCount: 2
Fore
SplineSet
1692 808 m 0
 1692 467 1515 211 1289 80 c 128
 1164 7 1025 -29 872 -29 c 128
 535 -29 288 153 160 381 c 128
 88 509 52 651 52 808 c 0
 52 1164 217 1426 452 1553 c 128
 575 1620 715 1653 872 1653 c 128
 1217 1653 1454 1494 1584 1260 c 128
 1656 1131 1692 980 1692 808 c 0
872 319 m 0
 1014 319 1053 442 1072 565 c 128
 1080 617 1083 675 1083 734 c 0
 1083 754 1083 774 1082 793 c 2
 1082 858 l 2
 1082 869 1082 881 1082 892 c 0
 1082 907 1082 923 1082 938 c 0
 1082 965 1081 990 1078 1016 c 128
 1063 1159 1029 1296 872 1296 c 0
 685 1296 670 1104 662 924 c 128
 662 914 661 905 661 895 c 0
 661 882 661 870 662 858 c 2
 662 793 l 1
 665 699 662 602 680 522 c 128
 703 417 746 319 872 319 c 0
1005 2162 m 1
 1279 1786 l 1
 1125 1685 l 1
 870 1930 l 1
 615 1685 l 1
 461 1786 l 1
 734 2163 l 1
 1005 2162 l 1
EndSplineSet
EndChar

StartChar: Otilde
Encoding: 213 213 151
Width: 1744
GlyphClass: 2
Flags: HW
LayerCount: 2
Fore
SplineSet
1692 808 m 0
 1692 467 1515 211 1289 80 c 128
 1164 7 1025 -29 872 -29 c 128
 535 -29 288 153 160 381 c 128
 88 509 52 651 52 808 c 0
 52 1164 217 1426 452 1553 c 128
 575 1620 715 1653 872 1653 c 128
 1217 1653 1454 1494 1584 1260 c 128
 1656 1131 1692 980 1692 808 c 0
872 319 m 0
 1014 319 1053 442 1072 565 c 128
 1080 617 1083 675 1083 734 c 0
 1083 754 1083 774 1082 793 c 2
 1082 858 l 2
 1082 869 1082 881 1082 892 c 0
 1082 907 1082 923 1082 938 c 0
 1082 965 1081 990 1078 1016 c 128
 1063 1159 1029 1296 872 1296 c 0
 685 1296 670 1104 662 924 c 128
 662 914 661 905 661 895 c 0
 661 882 661 870 662 858 c 2
 662 793 l 1
 665 699 662 602 680 522 c 128
 703 417 746 319 872 319 c 0
1044 2085 m 0
 1146 2085 1194 2010 1232 1944 c 128
 1254 1905 1292 1829 1316 1794 c 1
 1203 1720 l 1
 1154 1767 1120 1796 1102 1809 c 128
 1084 1822 1069 1828 1056 1828 c 0
 1026 1828 990 1818 949 1798 c 128
 908 1778 864 1758 820 1738 c 128
 776 1718 736 1707 699 1707 c 0
 596 1707 548 1780 510 1846 c 128
 488 1885 449 1962 425 1997 c 1
 539 2072 l 1
 590 2023 624 1993 643 1980 c 128
 662 1967 677 1960 689 1960 c 0
 747 1960 818 1998 858 2022 c 128
 902 2049 978 2085 1044 2085 c 0
EndSplineSet
EndChar

StartChar: Odieresis
Encoding: 214 214 152
Width: 1744
GlyphClass: 2
Flags: HW
LayerCount: 2
Fore
SplineSet
1692 808 m 0
 1692 467 1515 211 1289 80 c 128
 1164 7 1025 -29 872 -29 c 128
 535 -29 288 153 160 381 c 128
 88 509 52 651 52 808 c 0
 52 1164 217 1426 452 1553 c 128
 575 1620 715 1653 872 1653 c 128
 1217 1653 1454 1494 1584 1260 c 128
 1656 1131 1692 980 1692 808 c 0
872 319 m 0
 1014 319 1053 442 1072 565 c 128
 1080 617 1083 675 1083 734 c 0
 1083 754 1083 774 1082 793 c 2
 1082 858 l 2
 1082 869 1082 881 1082 892 c 0
 1082 907 1082 923 1082 938 c 0
 1082 965 1081 990 1078 1016 c 128
 1063 1159 1029 1296 872 1296 c 0
 685 1296 670 1104 662 924 c 128
 662 914 661 905 661 895 c 0
 661 882 661 870 662 858 c 2
 662 793 l 1
 665 699 662 602 680 522 c 128
 703 417 746 319 872 319 c 0
562 2134 m 128
 693 2134 788 2040 788 1904 c 0
 788 1769 693 1674 564 1674 c 0
 432 1674 336 1770 336 1907 c 0
 336 2042 432 2134 562 2134 c 128
1179 2134 m 128
 1310 2134 1405 2040 1405 1904 c 0
 1405 1769 1310 1674 1181 1674 c 0
 1049 1674 953 1770 953 1907 c 0
 953 2042 1049 2134 1179 2134 c 128
EndSplineSet
EndChar

StartChar: multiply
Encoding: 215 215 153
Width: 902
GlyphClass: 2
Flags: HW
LayerCount: 2
Fore
SplineSet
451 467 m 1
 259 274 l 1
 86 447 l 1
 278 640 l 1
 74 844 l 1
 254 1024 l 1
 451 820 l 1
 648 1024 l 1
 828 844 l 1
 624 640 l 1
 816 447 l 1
 643 274 l 1
 451 467 l 1
EndSplineSet
EndChar

StartChar: Oslash
Encoding: 216 216 154
Width: 1742
GlyphClass: 2
Flags: HW
LayerCount: 2
Fore
SplineSet
1136 1616 m 1
 1465 1519 1691 1229 1691 808 c 0
 1691 467 1514 211 1288 80 c 128
 1163 7 1024 -29 871 -29 c 0
 836 -29 801 -27 767 -23 c 1
 729 -194 l 1
 567 -155 l 1
 605 12 l 1
 296 114 51 410 51 808 c 0
 51 1164 215 1426 450 1553 c 128
 573 1620 714 1653 871 1653 c 0
 903 1653 940 1651 982 1646 c 1
 1019 1804 l 1
 1172 1774 l 1
 1136 1616 l 1
871 1296 m 0
 684 1296 668 1104 660 924 c 128
 660 914 660 905 660 895 c 0
 660 882 660 870 661 858 c 2
 661 718 l 130
 661 612 671 511 703 438 c 1
 901 1294 l 1
 888 1295 878 1296 871 1296 c 0
871 319 m 0
 1013 319 1052 442 1071 565 c 128
 1079 617 1082 675 1082 734 c 0
 1082 754 1082 774 1081 793 c 0
 1081 813 1081 813 1081 823 c 0
 1081 829 1081 836 1081 842 c 0
 1081 972 1080 1095 1039 1185 c 1
 845 320 l 1
 850 319 859 319 871 319 c 0
EndSplineSet
EndChar

StartChar: Ugrave
Encoding: 217 217 155
Width: 1683
GlyphClass: 2
Flags: HW
LayerCount: 2
Fore
SplineSet
204 704 m 2
 204 1270 l 1
 43 1270 l 1
 43 1622 l 1
 912 1622 l 1
 912 1270 l 1
 764 1270 l 1
 764 600 l 2
 764 462 814 346 953 346 c 0
 1073 346 1149 417 1149 536 c 2
 1149 1270 l 1
 985 1270 l 1
 985 1622 l 1
 1639 1622 l 1
 1639 1270 l 1
 1485 1270 l 1
 1485 520 l 2
 1485 415 1454 319 1393 234 c 128
 1283 81 1084 -29 834 -29 c 0
 373 -29 204 245 204 704 c 2
696 2270 m 1
 1170 1833 l 1
 1066 1692 l 1
 512 2005 l 1
 696 2270 l 1
EndSplineSet
EndChar

StartChar: Uacute
Encoding: 218 218 156
Width: 1683
GlyphClass: 2
Flags: HW
LayerCount: 2
Fore
SplineSet
953 346 m 0
 1073 346 1149 417 1149 536 c 2
 1149 1270 l 1
 985 1270 l 1
 985 1622 l 1
 1639 1622 l 1
 1639 1270 l 1
 1485 1270 l 1
 1485 520 l 2
 1485 285 1324 118 1153 39 c 128
 1054 -6 948 -29 834 -29 c 0
 373 -29 204 245 204 704 c 2
 204 1270 l 1
 43 1270 l 1
 43 1622 l 1
 912 1622 l 1
 912 1270 l 1
 764 1270 l 1
 764 600 l 2
 764 462 814 346 953 346 c 0
1170 2005 m 1
 616 1692 l 1
 512 1833 l 1
 986 2270 l 1
 1170 2005 l 1
EndSplineSet
EndChar

StartChar: Ucircumflex
Encoding: 219 219 157
Width: 1683
GlyphClass: 2
Flags: HW
LayerCount: 2
Fore
SplineSet
953 346 m 0
 1073 346 1149 417 1149 536 c 2
 1149 1270 l 1
 985 1270 l 1
 985 1622 l 1
 1639 1622 l 1
 1639 1270 l 1
 1485 1270 l 1
 1485 520 l 2
 1485 285 1324 118 1153 39 c 128
 1054 -6 948 -29 834 -29 c 0
 373 -29 204 245 204 704 c 2
 204 1270 l 1
 43 1270 l 1
 43 1622 l 1
 912 1622 l 1
 912 1270 l 1
 764 1270 l 1
 764 600 l 2
 764 462 814 346 953 346 c 0
976 2162 m 1
 1250 1786 l 1
 1096 1685 l 1
 841 1930 l 1
 586 1685 l 1
 432 1786 l 1
 705 2163 l 1
 976 2162 l 1
EndSplineSet
EndChar

StartChar: Udieresis
Encoding: 220 220 158
Width: 1683
GlyphClass: 2
Flags: HW
LayerCount: 2
Fore
SplineSet
204 704 m 2
 204 1270 l 1
 43 1270 l 1
 43 1622 l 1
 912 1622 l 1
 912 1270 l 1
 764 1270 l 1
 764 600 l 2
 764 462 814 346 953 346 c 0
 1073 346 1149 417 1149 536 c 2
 1149 1270 l 1
 985 1270 l 1
 985 1622 l 1
 1639 1622 l 1
 1639 1270 l 1
 1485 1270 l 1
 1485 520 l 2
 1485 415 1454 319 1393 234 c 128
 1283 81 1084 -29 834 -29 c 0
 373 -29 204 245 204 704 c 2
532 2134 m 128
 663 2134 758 2040 758 1904 c 0
 758 1769 663 1674 534 1674 c 0
 402 1674 306 1770 306 1907 c 0
 306 2042 402 2134 532 2134 c 128
1149 2134 m 128
 1280 2134 1375 2040 1375 1904 c 0
 1375 1769 1280 1674 1151 1674 c 0
 1019 1674 923 1770 923 1907 c 0
 923 2042 1019 2134 1149 2134 c 128
EndSplineSet
EndChar

StartChar: Yacute
Encoding: 221 221 159
Width: 1559
GlyphClass: 2
Flags: HW
LayerCount: 2
Fore
SplineSet
1044 1221 m 0
 1044 1256 1024 1270 989 1270 c 130
 927 1270 l 1
 927 1622 l 1
 1564 1622 l 1
 1564 1270 l 1
 1490 1270 l 2
 1359 1270 1326 1183 1279 1095 c 1
 1075 724 l 1
 1075 359 l 1
 1232 359 l 1
 1232 0 l 1
 363 0 l 1
 363 359 l 1
 518 359 l 1
 518 672 l 1
 97 1270 l 1
 -15 1270 l 1
 -15 1622 l 1
 837 1622 l 1
 837 1270 l 1
 746 1270 l 1
 764 1246 913 1017 930 993 c 1
 1006 1108 1044 1184 1044 1221 c 0
1106 2005 m 1
 552 1692 l 1
 448 1833 l 1
 922 2270 l 1
 1106 2005 l 1
EndSplineSet
EndChar

StartChar: Thorn
Encoding: 222 222 160
Width: 1638
GlyphClass: 2
Flags: HW
LayerCount: 2
Fore
SplineSet
1615 1066 m 0
 1615 688 1335 559 955 559 c 0
 908 559 858 562 805 569 c 1
 805 363 l 1
 951 363 l 1
 951 0 l 1
 90 0 l 1
 90 363 l 1
 246 363 l 1
 246 1488 l 1
 95 1488 l 1
 95 1843 l 1
 805 1843 l 1
 804 1543 l 1
 1237 1543 1615 1498 1615 1066 c 0
1093 1056 m 0
 1093 1158 1010 1208 909 1208 c 2
 805 1208 l 1
 805 895 l 1
 866 895 l 2
 998 895 1093 931 1093 1056 c 0
EndSplineSet
EndChar

StartChar: germandbls
Encoding: 223 223 161
Width: 1633
GlyphClass: 2
Flags: HW
LayerCount: 2
Fore
SplineSet
166 1092 m 2
 166 1488 408 1623 803 1623 c 0
 1035 1623 1227 1572 1339 1457 c 128
 1394 1401 1433 1334 1433 1236 c 0
 1433 1079 1319 962 1207 898 c 1
 1334 857 1434 794 1504 707 c 128
 1574 620 1609 528 1609 429 c 0
 1609 289 1539 188 1454 118 c 128
 1349 31 1177 -18 981 -18 c 1
 980 349 l 1
 1077 404 1125 465 1125 533 c 0
 1125 594 1095 646 1034 688 c 128
 973 730 885 750 768 750 c 1
 765 901 l 1
 824 901 874 925 916 973 c 128
 958 1021 980 1071 980 1124 c 0
 980 1217 930 1275 834 1275 c 0
 746 1275 693 1224 693 1131 c 2
 694 349 l 1
 778 349 828 349 845 350 c 1
 845 0 l 1
 -6 0 l 1
 -6 369 l 1
 166 369 l 1
 166 1092 l 2
EndSplineSet
EndChar

StartChar: agrave
Encoding: 224 224 162
Width: 1294
GlyphClass: 2
Flags: HW
LayerCount: 2
Fore
SplineSet
419 -18 m 0
 212 -18 30 104 30 308 c 0
 30 359 43 406 68 448 c 128
 137 563 284 630 465 630 c 0
 562 630 648 617 721 592 c 1
 721 637 l 2
 721 748 651 803 510 803 c 0
 415 803 343 771 295 708 c 1
 120 708 l 1
 120 1022 l 1
 187 1040 l 1
 281 1064 479 1092 603 1092 c 0
 885 1092 1171 1034 1171 750 c 2
 1171 305 l 1
 1247 305 l 1
 1247 0 l 1
 775 0 l 1
 725 119 l 1
 668 44 543 -18 419 -18 c 0
616 224 m 0
 660 224 707 248 724 270 c 1
 724 417 l 1
 699 426 661 438 625 438 c 0
 568 438 520 383 520 326 c 0
 520 267 557 224 616 224 c 0
496 1708 m 1
 970 1271 l 1
 866 1130 l 1
 312 1443 l 1
 496 1708 l 1
EndSplineSet
EndChar

StartChar: aacute
Encoding: 225 225 163
Width: 1294
GlyphClass: 2
Flags: HW
LayerCount: 2
Fore
SplineSet
419 -18 m 0
 212 -18 30 104 30 308 c 0
 30 483 166 572 306 610 c 128
 357 624 410 630 465 630 c 0
 562 630 648 617 721 592 c 1
 721 637 l 2
 721 748 651 803 510 803 c 0
 415 803 343 771 295 708 c 1
 120 708 l 1
 120 1022 l 1
 187 1040 l 1
 280 1064 479 1092 603 1092 c 0
 797 1092 980 1060 1082 965 c 128
 1130 920 1171 843 1171 750 c 2
 1171 305 l 1
 1247 305 l 1
 1247 0 l 1
 775 0 l 1
 725 119 l 1
 667 44 544 -18 419 -18 c 0
625 438 m 0
 568 438 520 383 520 326 c 0
 520 267 557 224 616 224 c 0
 660 224 707 248 724 270 c 1
 724 417 l 1
 699 426 661 438 625 438 c 0
1092 1443 m 1
 538 1130 l 1
 434 1271 l 1
 908 1708 l 1
 1092 1443 l 1
EndSplineSet
EndChar

StartChar: acircumflex
Encoding: 226 226 164
Width: 1294
GlyphClass: 2
Flags: HW
LayerCount: 2
Fore
SplineSet
419 -18 m 0
 212 -18 30 104 30 308 c 0
 30 483 166 572 306 610 c 128
 357 624 410 630 465 630 c 0
 562 630 648 617 721 592 c 1
 721 637 l 2
 721 748 651 803 510 803 c 0
 415 803 343 771 295 708 c 1
 120 708 l 1
 120 1022 l 1
 187 1040 l 1
 280 1064 479 1092 603 1092 c 0
 797 1092 980 1060 1082 965 c 128
 1130 920 1171 843 1171 750 c 2
 1171 305 l 1
 1247 305 l 1
 1247 0 l 1
 775 0 l 1
 725 119 l 1
 667 44 544 -18 419 -18 c 0
625 438 m 0
 568 438 520 383 520 326 c 0
 520 267 557 224 616 224 c 0
 660 224 707 248 724 270 c 1
 724 417 l 1
 699 426 661 438 625 438 c 0
776 1600 m 1
 1050 1224 l 1
 896 1123 l 1
 641 1368 l 1
 386 1123 l 1
 232 1224 l 1
 505 1601 l 1
 776 1600 l 1
EndSplineSet
EndChar

StartChar: atilde
Encoding: 227 227 165
Width: 1294
GlyphClass: 2
Flags: HW
LayerCount: 2
Fore
SplineSet
419 -18 m 0
 212 -18 30 104 30 308 c 0
 30 359 43 406 68 448 c 128
 137 563 284 630 465 630 c 0
 562 630 648 617 721 592 c 1
 721 637 l 2
 721 748 651 803 510 803 c 0
 415 803 343 771 295 708 c 1
 120 708 l 1
 120 1022 l 1
 187 1040 l 1
 281 1064 479 1092 603 1092 c 0
 885 1092 1171 1034 1171 750 c 2
 1171 305 l 1
 1247 305 l 1
 1247 0 l 1
 775 0 l 1
 725 119 l 1
 668 44 543 -18 419 -18 c 0
616 224 m 0
 660 224 707 248 724 270 c 1
 724 417 l 1
 699 426 661 438 625 438 c 0
 568 438 520 383 520 326 c 0
 520 267 557 224 616 224 c 0
789 1523 m 0
 891 1523 938 1448 976 1382 c 128
 998 1343 1037 1267 1061 1232 c 1
 948 1158 l 1
 899 1205 866 1234 848 1247 c 128
 830 1260 814 1266 801 1266 c 0
 771 1266 735 1256 694 1236 c 128
 653 1216 610 1196 566 1176 c 128
 522 1156 481 1145 444 1145 c 0
 341 1145 293 1218 255 1284 c 128
 233 1323 194 1400 170 1435 c 1
 284 1510 l 1
 335 1461 369 1431 388 1418 c 128
 407 1405 422 1398 434 1398 c 0
 492 1398 563 1436 603 1460 c 128
 647 1487 723 1523 789 1523 c 0
EndSplineSet
EndChar

StartChar: adieresis
Encoding: 228 228 166
Width: 1294
GlyphClass: 2
Flags: HW
LayerCount: 2
Fore
SplineSet
419 -18 m 0
 212 -18 30 104 30 308 c 0
 30 359 43 406 68 448 c 128
 137 563 284 630 465 630 c 0
 562 630 648 617 721 592 c 1
 721 637 l 2
 721 748 651 803 510 803 c 0
 415 803 343 771 295 708 c 1
 120 708 l 1
 120 1022 l 1
 187 1040 l 1
 281 1064 479 1092 603 1092 c 0
 885 1092 1171 1034 1171 750 c 2
 1171 305 l 1
 1247 305 l 1
 1247 0 l 1
 775 0 l 1
 725 119 l 1
 668 44 543 -18 419 -18 c 0
616 224 m 0
 660 224 707 248 724 270 c 1
 724 417 l 1
 699 426 661 438 625 438 c 0
 568 438 520 383 520 326 c 0
 520 267 557 224 616 224 c 0
333 1572 m 128
 464 1572 559 1478 559 1342 c 0
 559 1207 464 1112 335 1112 c 0
 203 1112 107 1208 107 1345 c 0
 107 1480 203 1572 333 1572 c 128
950 1572 m 128
 1081 1572 1176 1478 1176 1342 c 0
 1176 1207 1081 1112 952 1112 c 0
 820 1112 724 1208 724 1345 c 0
 724 1480 820 1572 950 1572 c 128
EndSplineSet
EndChar

StartChar: aring
Encoding: 229 229 167
Width: 1294
GlyphClass: 2
Flags: HW
LayerCount: 2
Fore
SplineSet
419 -18 m 0
 212 -18 30 104 30 308 c 0
 30 483 166 572 306 610 c 128
 357 624 410 630 465 630 c 0
 562 630 648 617 721 592 c 1
 721 637 l 2
 721 748 651 803 510 803 c 0
 415 803 343 771 295 708 c 1
 120 708 l 1
 120 1022 l 1
 187 1040 l 1
 280 1064 479 1092 603 1092 c 0
 797 1092 980 1060 1082 965 c 128
 1130 920 1171 843 1171 750 c 2
 1171 305 l 1
 1247 305 l 1
 1247 0 l 1
 775 0 l 1
 725 119 l 1
 667 44 544 -18 419 -18 c 0
625 438 m 0
 568 438 520 383 520 326 c 0
 520 267 557 224 616 224 c 0
 660 224 707 248 724 270 c 1
 724 417 l 1
 699 426 661 438 625 438 c 0
476 1388 m 0
 476 1301 545 1240 637 1240 c 0
 730 1240 802 1300 802 1388 c 0
 802 1476 730 1533 637 1533 c 0
 545 1533 476 1475 476 1388 c 0
637 1633 m 0
 796 1633 917 1538 917 1389 c 0
 917 1322 892 1263 842 1213 c 128
 792 1163 724 1138 637 1138 c 0
 552 1138 486 1163 438 1213 c 128
 390 1263 366 1322 366 1389 c 0
 366 1535 482 1633 637 1633 c 0
EndSplineSet
EndChar

StartChar: ae
Encoding: 230 230 168
Width: 1911
GlyphClass: 2
Flags: HW
LayerCount: 2
Fore
SplineSet
1846 120 m 1
 1684 23 1540 -25 1299 -25 c 0
 1173 -25 1062 18 967 105 c 1
 828 3 687 -27 450 -27 c 0
 279 -27 159 22 85 124 c 128
 48 174 30 232 30 299 c 0
 30 474 166 562 306 600 c 128
 357 614 410 621 465 621 c 0
 562 621 648 608 721 583 c 1
 721 628 l 2
 721 739 651 794 510 794 c 0
 415 794 343 762 295 699 c 1
 120 699 l 1
 120 1013 l 1
 187 1030 l 1
 280 1055 479 1083 603 1083 c 0
 752 1083 876 1038 956 974 c 128
 963 969 968 964 971 961 c 1
 1047 1031 1165 1085 1315 1085 c 0
 1549 1085 1723 973 1804 818 c 128
 1846 738 1866 648 1866 548 c 0
 1866 525 1864 499 1861 469 c 1
 1850 444 1854 441 1824 441 c 2
 1222 441 l 1
 1222 325 1285 215 1399 215 c 0
 1497 215 1536 262 1539 358 c 1
 1846 358 l 1
 1846 120 l 1
625 429 m 0
 568 429 520 374 520 317 c 0
 520 258 557 215 616 215 c 0
 660 215 707 239 724 261 c 1
 724 408 l 1
 700 417 660 429 625 429 c 0
1332 807 m 0
 1257 807 1224 725 1224 649 c 2
 1224 620 l 1
 1439 620 l 1
 1439 627 1439 634 1439 641 c 0
 1439 729 1421 807 1332 807 c 0
EndSplineSet
EndChar

StartChar: ccedilla
Encoding: 231 231 169
Width: 1112
GlyphClass: 2
Flags: HW
LayerCount: 2
Fore
SplineSet
1039 124 m 1
 1039 425 l 1
 799 425 l 1
 786 358 754 295 672 295 c 0
 558 295 517 399 517 513 c 0
 517 603 532 670 563 713 c 128
 594 756 630 778 672 778 c 0
 747 778 795 707 795 628 c 1
 1037 628 l 1
 1037 1072 l 1
 862 1072 l 1
 821 995 l 1
 740 1060 654 1092 563 1092 c 0
 397 1092 262 1020 182 928 c 128
 104 838 44 706 44 546 c 0
 44 427 69 324 118 238 c 128
 207 81 364 -18 596 -18 c 0
 768 -18 952 37 1039 124 c 1
585 -271 m 0
 585 -206 522 -145 475 -119 c 1
 475 0 l 1
 655 0 l 1
 655 -119 l 1
 744 -170 788 -226 788 -285 c 0
 788 -420 572 -485 419 -485 c 2
 398 -485 l 1
 398 -372 l 1
 463 -371 510 -362 540 -343 c 128
 570 -324 585 -300 585 -271 c 0
EndSplineSet
EndChar

StartChar: egrave
Encoding: 232 232 170
Width: 1224
GlyphClass: 2
Flags: HW
LayerCount: 2
Fore
SplineSet
851 365 m 1
 1158 365 l 1
 1158 127 l 1
 996 30 852 -18 611 -18 c 0
 503 -18 406 6 318 55 c 128
 165 140 40 299 40 521 c 0
 40 631 63 728 109 814 c 128
 197 978 379 1092 627 1092 c 0
 742 1092 841 1067 926 1018 c 128
 1077 931 1178 779 1178 555 c 0
 1178 532 1176 506 1173 476 c 1
 1162 451 1166 448 1136 448 c 2
 534 448 l 1
 534 332 597 222 711 222 c 0
 809 222 848 269 851 365 c 1
536 656 m 2
 536 627 l 1
 751 627 l 1
 751 634 751 641 751 648 c 0
 751 736 733 814 644 814 c 0
 569 814 536 732 536 656 c 2
460 1708 m 1
 934 1271 l 1
 830 1130 l 1
 276 1443 l 1
 460 1708 l 1
EndSplineSet
EndChar

StartChar: eacute
Encoding: 233 233 171
Width: 1224
GlyphClass: 2
Flags: HW
LayerCount: 2
Fore
SplineSet
1158 127 m 1
 996 30 852 -18 611 -18 c 0
 380 -18 202 101 113 251 c 128
 64 333 40 423 40 521 c 0
 40 762 149 928 312 1018 c 128
 402 1068 507 1092 627 1092 c 0
 861 1092 1035 980 1116 825 c 128
 1158 745 1178 655 1178 555 c 0
 1178 532 1176 506 1173 476 c 1
 1162 451 1166 448 1136 448 c 2
 534 448 l 1
 534 332 597 222 711 222 c 0
 809 222 848 269 851 365 c 1
 1158 365 l 1
 1158 127 l 1
644 814 m 0
 569 814 536 732 536 656 c 2
 536 627 l 1
 751 627 l 1
 751 634 751 641 751 648 c 0
 751 736 733 814 644 814 c 0
934 1443 m 1
 380 1130 l 1
 276 1271 l 1
 750 1708 l 1
 934 1443 l 1
EndSplineSet
EndChar

StartChar: ecircumflex
Encoding: 234 234 172
Width: 1224
GlyphClass: 2
Flags: HW
LayerCount: 2
Fore
SplineSet
1158 127 m 1
 996 30 852 -18 611 -18 c 0
 380 -18 202 101 113 251 c 128
 64 333 40 423 40 521 c 0
 40 762 149 928 312 1018 c 128
 402 1068 507 1092 627 1092 c 0
 861 1092 1035 980 1116 825 c 128
 1158 745 1178 655 1178 555 c 0
 1178 532 1176 506 1173 476 c 1
 1162 451 1166 448 1136 448 c 2
 534 448 l 1
 534 332 597 222 711 222 c 0
 809 222 848 269 851 365 c 1
 1158 365 l 1
 1158 127 l 1
644 814 m 0
 569 814 536 732 536 656 c 2
 536 627 l 1
 751 627 l 1
 751 634 751 641 751 648 c 0
 751 736 733 814 644 814 c 0
740 1600 m 1
 1014 1224 l 1
 860 1123 l 1
 605 1368 l 1
 350 1123 l 1
 196 1224 l 1
 469 1601 l 1
 740 1600 l 1
EndSplineSet
EndChar

StartChar: edieresis
Encoding: 235 235 173
Width: 1224
GlyphClass: 2
Flags: HW
LayerCount: 2
Fore
SplineSet
851 365 m 1
 1158 365 l 1
 1158 127 l 1
 996 30 852 -18 611 -18 c 0
 503 -18 406 6 318 55 c 128
 165 140 40 299 40 521 c 0
 40 631 63 728 109 814 c 128
 197 978 379 1092 627 1092 c 0
 742 1092 841 1067 926 1018 c 128
 1077 931 1178 779 1178 555 c 0
 1178 532 1176 506 1173 476 c 1
 1162 451 1166 448 1136 448 c 2
 534 448 l 1
 534 332 597 222 711 222 c 0
 809 222 848 269 851 365 c 1
536 656 m 2
 536 627 l 1
 751 627 l 1
 751 634 751 641 751 648 c 0
 751 736 733 814 644 814 c 0
 569 814 536 732 536 656 c 2
297 1572 m 128
 428 1572 523 1478 523 1342 c 0
 523 1207 428 1112 299 1112 c 0
 167 1112 71 1208 71 1345 c 0
 71 1480 167 1572 297 1572 c 128
914 1572 m 128
 1045 1572 1140 1478 1140 1342 c 0
 1140 1207 1045 1112 916 1112 c 0
 784 1112 688 1208 688 1345 c 0
 688 1480 784 1572 914 1572 c 128
EndSplineSet
EndChar

StartChar: igrave
Encoding: 236 236 174
Width: 814
GlyphClass: 2
Flags: HW
LayerCount: 2
Fore
SplineSet
270 1708 m 1
 744 1271 l 1
 640 1130 l 1
 86 1443 l 1
 270 1708 l 1
661 1072 m 1
 661 299 l 1
 745 299 l 1
 745 0 l 1
 98 0 l 1
 98 299 l 1
 180 299 l 1
 180 747 l 1
 91 747 l 1
 91 1072 l 1
 661 1072 l 1
EndSplineSet
EndChar

StartChar: iacute
Encoding: 237 237 175
Width: 814
GlyphClass: 2
Flags: HW
LayerCount: 2
Fore
SplineSet
744 1443 m 1
 190 1130 l 1
 86 1271 l 1
 560 1708 l 1
 744 1443 l 1
661 299 m 1
 745 299 l 1
 745 0 l 1
 98 0 l 1
 98 299 l 1
 180 299 l 1
 180 747 l 1
 91 747 l 1
 91 1072 l 1
 661 1072 l 1
 661 299 l 1
EndSplineSet
EndChar

StartChar: icircumflex
Encoding: 238 238 176
Width: 813
GlyphClass: 2
Flags: HW
LayerCount: 2
Fore
SplineSet
550 1600 m 1
 824 1224 l 1
 670 1123 l 1
 415 1368 l 1
 160 1123 l 1
 6 1224 l 1
 279 1601 l 1
 550 1600 l 1
661 299 m 1
 745 299 l 1
 745 0 l 1
 98 0 l 1
 98 299 l 1
 180 299 l 1
 180 747 l 1
 91 747 l 1
 91 1072 l 1
 661 1072 l 1
 661 299 l 1
EndSplineSet
EndChar

StartChar: idieresis
Encoding: 239 239 177
Width: 815
GlyphClass: 2
Flags: HW
LayerCount: 2
Fore
SplineSet
108 1572 m 128
 239 1572 334 1478 334 1342 c 0
 334 1207 239 1112 110 1112 c 0
 -22 1112 -118 1208 -118 1345 c 0
 -118 1480 -22 1572 108 1572 c 128
725 1572 m 128
 856 1572 951 1478 951 1342 c 0
 951 1207 856 1112 727 1112 c 0
 595 1112 499 1208 499 1345 c 0
 499 1480 595 1572 725 1572 c 128
662 1072 m 1
 662 299 l 1
 746 299 l 1
 746 0 l 1
 99 0 l 1
 99 299 l 1
 181 299 l 1
 181 747 l 1
 92 747 l 1
 92 1072 l 1
 662 1072 l 1
EndSplineSet
EndChar

StartChar: eth
Encoding: 240 240 178
Width: 1337
GlyphClass: 2
Flags: HW
LayerCount: 2
Fore
SplineSet
1112 1365 m 1
 1219 1208 1284 976 1284 691 c 0
 1284 347 1144 110 886 20 c 128
 814 -5 735 -18 646 -18 c 0
 355 -18 163 132 78 338 c 128
 51 404 38 471 38 540 c 0
 38 727 131 851 248 929 c 128
 341 991 481 1029 637 1029 c 2
 670 1029 l 1
 654 1090 638 1137 622 1169 c 1
 371 1068 l 1
 308 1225 l 1
 488 1297 l 1
 447 1313 398 1321 342 1321 c 0
 290 1321 248 1317 217 1310 c 1
 217 1621 l 1
 320 1643 418 1654 511 1654 c 0
 708 1654 869 1602 992 1499 c 1
 1206 1585 l 1
 1269 1428 l 1
 1112 1365 l 1
557 568 m 0
 557 415 594 338 668 338 c 0
 751 338 764 478 764 560 c 0
 764 705 731 777 666 777 c 0
 593 777 557 707 557 568 c 0
EndSplineSet
EndChar

StartChar: ntilde
Encoding: 241 241 179
Width: 1482
GlyphClass: 2
Flags: HW
LayerCount: 2
Fore
SplineSet
1019 1092 m 0
 1239 1092 1349 955 1349 680 c 2
 1349 305 l 1
 1429 305 l 1
 1429 0 l 1
 855 0 l 1
 855 627 l 2
 855 684 819 737 765 737 c 0
 703 737 661 686 661 624 c 2
 661 305 l 1
 749 305 l 1
 749 0 l 1
 91 0 l 1
 91 305 l 1
 174 305 l 1
 174 761 l 1
 98 761 l 1
 98 1072 l 1
 661 1072 l 1
 661 916 l 1
 729 1021 852 1092 1019 1092 c 0
889 1523 m 0
 991 1523 1038 1448 1076 1382 c 128
 1098 1343 1137 1267 1161 1232 c 1
 1048 1158 l 1
 999 1205 966 1234 948 1247 c 128
 930 1260 914 1266 901 1266 c 0
 871 1266 835 1256 794 1236 c 128
 753 1216 710 1196 666 1176 c 128
 622 1156 581 1145 544 1145 c 0
 441 1145 393 1218 355 1284 c 128
 333 1323 294 1400 270 1435 c 1
 384 1510 l 1
 435 1461 469 1431 488 1418 c 128
 507 1405 522 1398 534 1398 c 0
 592 1398 663 1436 703 1460 c 128
 747 1487 823 1523 889 1523 c 0
EndSplineSet
EndChar

StartChar: ograve
Encoding: 242 242 180
Width: 1290
GlyphClass: 2
Flags: HW
LayerCount: 2
Fore
SplineSet
645 1091 m 128
 1006 1091 1247 903 1247 547 c 0
 1247 302 1128 131 958 48 c 128
 868 4 764 -18 645 -18 c 128
 395 -18 216 81 120 243 c 128
 69 329 43 430 43 547 c 0
 43 903 284 1091 645 1091 c 128
645 779 m 128
 523 779 508 666 508 545 c 0
 508 378 554 294 645 294 c 128
 736 294 782 378 782 545 c 0
 782 666 767 779 645 779 c 128
495 1708 m 1
 969 1271 l 1
 865 1130 l 1
 311 1443 l 1
 495 1708 l 1
EndSplineSet
EndChar

StartChar: oacute
Encoding: 243 243 181
Width: 1290
GlyphClass: 2
Flags: HW
LayerCount: 2
Fore
SplineSet
645 1091 m 128
 1006 1091 1247 903 1247 547 c 0
 1247 302 1128 131 958 48 c 128
 868 4 764 -18 645 -18 c 128
 395 -18 216 81 120 243 c 128
 69 329 43 430 43 547 c 0
 43 903 284 1091 645 1091 c 128
645 779 m 128
 523 779 508 666 508 545 c 0
 508 378 554 294 645 294 c 128
 736 294 782 378 782 545 c 0
 782 666 767 779 645 779 c 128
969 1443 m 1
 415 1130 l 1
 311 1271 l 1
 785 1708 l 1
 969 1443 l 1
EndSplineSet
EndChar

StartChar: ocircumflex
Encoding: 244 244 182
Width: 1290
GlyphClass: 2
Flags: HW
LayerCount: 2
Fore
SplineSet
645 1091 m 128
 1006 1091 1247 903 1247 547 c 0
 1247 302 1128 131 958 48 c 128
 868 4 764 -18 645 -18 c 128
 395 -18 216 81 120 243 c 128
 69 329 43 430 43 547 c 0
 43 903 284 1091 645 1091 c 128
645 779 m 128
 523 779 508 666 508 545 c 0
 508 378 554 294 645 294 c 128
 736 294 782 378 782 545 c 0
 782 666 767 779 645 779 c 128
775 1600 m 1
 1049 1224 l 1
 895 1123 l 1
 640 1368 l 1
 385 1123 l 1
 231 1224 l 1
 504 1601 l 1
 775 1600 l 1
EndSplineSet
EndChar

StartChar: otilde
Encoding: 245 245 183
Width: 1290
GlyphClass: 2
Flags: HW
LayerCount: 2
Fore
SplineSet
645 1091 m 128
 1006 1091 1247 903 1247 547 c 0
 1247 302 1128 131 958 48 c 128
 868 4 764 -18 645 -18 c 128
 395 -18 216 81 120 243 c 128
 69 329 43 430 43 547 c 0
 43 903 284 1091 645 1091 c 128
645 779 m 128
 523 779 508 666 508 545 c 0
 508 378 554 294 645 294 c 128
 736 294 782 378 782 545 c 0
 782 666 767 779 645 779 c 128
813 1523 m 0
 915 1523 962 1448 1000 1382 c 128
 1022 1343 1061 1267 1085 1232 c 1
 972 1158 l 1
 923 1205 890 1234 872 1247 c 128
 854 1260 838 1266 825 1266 c 0
 795 1266 759 1256 718 1236 c 128
 677 1216 634 1196 590 1176 c 128
 546 1156 505 1145 468 1145 c 0
 365 1145 317 1218 279 1284 c 128
 257 1323 218 1400 194 1435 c 1
 308 1510 l 1
 359 1461 393 1431 412 1418 c 128
 431 1405 446 1398 458 1398 c 0
 516 1398 587 1436 627 1460 c 128
 671 1487 747 1523 813 1523 c 0
EndSplineSet
EndChar

StartChar: odieresis
Encoding: 246 246 184
Width: 1290
GlyphClass: 2
Flags: HW
LayerCount: 2
Fore
SplineSet
645 1091 m 128
 1006 1091 1247 903 1247 547 c 0
 1247 302 1128 131 958 48 c 128
 868 4 764 -18 645 -18 c 128
 395 -18 216 81 120 243 c 128
 69 329 43 430 43 547 c 0
 43 903 284 1091 645 1091 c 128
645 779 m 128
 523 779 508 666 508 545 c 0
 508 378 554 294 645 294 c 128
 736 294 782 378 782 545 c 0
 782 666 767 779 645 779 c 128
332 1572 m 128
 463 1572 558 1478 558 1342 c 0
 558 1207 463 1112 334 1112 c 0
 202 1112 106 1208 106 1345 c 0
 106 1480 202 1572 332 1572 c 128
949 1572 m 128
 1080 1572 1175 1478 1175 1342 c 0
 1175 1207 1080 1112 951 1112 c 0
 819 1112 723 1208 723 1345 c 0
 723 1480 819 1572 949 1572 c 128
EndSplineSet
EndChar

StartChar: divide
Encoding: 247 247 185
Width: 920
GlyphClass: 2
Flags: HW
LayerCount: 2
Fore
SplineSet
68 761 m 1
 842 761 l 1
 842 538 l 1
 68 538 l 1
 68 761 l 1
707 188 m 0
 707 59 601 -18 471 -18 c 0
 343 -18 243 60 243 188 c 0
 243 315 342 389 471 389 c 0
 602 389 707 316 707 188 c 0
707 1092 m 0
 707 963 601 886 471 886 c 0
 343 886 243 964 243 1092 c 0
 243 1219 342 1293 471 1293 c 0
 602 1293 707 1220 707 1092 c 0
EndSplineSet
EndChar

StartChar: oslash
Encoding: 248 248 186
Width: 1288
GlyphClass: 2
Flags: HW
LayerCount: 2
Fore
SplineSet
645 1091 m 128
 1006 1091 1247 903 1247 547 c 0
 1247 302 1128 131 958 48 c 128
 868 4 764 -18 645 -18 c 128
 395 -18 216 81 120 243 c 128
 69 329 43 430 43 547 c 0
 43 903 284 1091 645 1091 c 128
645 779 m 128
 523 779 508 666 508 545 c 0
 508 378 554 294 645 294 c 128
 736 294 782 378 782 545 c 0
 782 666 767 779 645 779 c 128
246 -54 m 1
 947 1192 l 1
 1034 1142 l 1
 333 -104 l 1
 246 -54 l 1
EndSplineSet
EndChar

StartChar: ugrave
Encoding: 249 249 187
Width: 1466
GlyphClass: 2
Flags: HW
LayerCount: 2
Fore
SplineSet
464 -18 m 0
 244 -18 134 116 134 385 c 2
 134 761 l 1
 54 761 l 1
 54 1072 l 1
 628 1072 l 1
 628 438 l 2
 628 378 662 318 718 318 c 0
 782 318 822 373 822 438 c 2
 822 761 l 1
 741 761 l 1
 741 1072 l 1
 1316 1072 l 1
 1316 305 l 1
 1392 305 l 1
 1392 0 l 1
 822 0 l 1
 822 156 l 1
 754 51 632 -18 464 -18 c 0
584 1708 m 1
 1058 1271 l 1
 954 1130 l 1
 400 1443 l 1
 584 1708 l 1
EndSplineSet
EndChar

StartChar: uacute
Encoding: 250 250 188
Width: 1466
GlyphClass: 2
Flags: HW
LayerCount: 2
Fore
SplineSet
718 318 m 0
 782 318 822 373 822 438 c 2
 822 761 l 1
 741 761 l 1
 741 1072 l 1
 1316 1072 l 1
 1316 305 l 1
 1392 305 l 1
 1392 0 l 1
 822 0 l 1
 822 156 l 1
 754 50 632 -18 464 -18 c 0
 244 -18 134 116 134 385 c 2
 134 761 l 1
 54 761 l 1
 54 1072 l 1
 628 1072 l 1
 628 438 l 2
 628 378 662 318 718 318 c 0
1058 1443 m 1
 504 1130 l 1
 400 1271 l 1
 874 1708 l 1
 1058 1443 l 1
EndSplineSet
EndChar

StartChar: ucircumflex
Encoding: 251 251 189
Width: 1466
GlyphClass: 2
Flags: HW
LayerCount: 2
Fore
SplineSet
718 318 m 0
 782 318 822 373 822 438 c 2
 822 761 l 1
 741 761 l 1
 741 1072 l 1
 1316 1072 l 1
 1316 305 l 1
 1392 305 l 1
 1392 0 l 1
 822 0 l 1
 822 156 l 1
 754 50 632 -18 464 -18 c 0
 244 -18 134 116 134 385 c 2
 134 761 l 1
 54 761 l 1
 54 1072 l 1
 628 1072 l 1
 628 438 l 2
 628 378 662 318 718 318 c 0
864 1600 m 1
 1138 1224 l 1
 984 1123 l 1
 729 1368 l 1
 474 1123 l 1
 320 1224 l 1
 593 1601 l 1
 864 1600 l 1
EndSplineSet
EndChar

StartChar: udieresis
Encoding: 252 252 190
Width: 1466
GlyphClass: 2
Flags: HW
LayerCount: 2
Fore
SplineSet
464 -18 m 0
 244 -18 134 116 134 385 c 2
 134 761 l 1
 54 761 l 1
 54 1072 l 1
 628 1072 l 1
 628 438 l 2
 628 378 662 318 718 318 c 0
 782 318 822 373 822 438 c 2
 822 761 l 1
 741 761 l 1
 741 1072 l 1
 1316 1072 l 1
 1316 305 l 1
 1392 305 l 1
 1392 0 l 1
 822 0 l 1
 822 156 l 1
 754 51 632 -18 464 -18 c 0
421 1572 m 128
 552 1572 647 1478 647 1342 c 0
 647 1207 552 1112 423 1112 c 0
 291 1112 195 1208 195 1345 c 0
 195 1480 291 1572 421 1572 c 128
1038 1572 m 128
 1169 1572 1264 1478 1264 1342 c 0
 1264 1207 1169 1112 1040 1112 c 0
 908 1112 812 1208 812 1345 c 0
 812 1480 908 1572 1038 1572 c 128
EndSplineSet
EndChar

StartChar: yacute
Encoding: 253 253 191
Width: 1377
GlyphClass: 2
Flags: HW
LayerCount: 2
Fore
SplineSet
557 31 m 1
 91 761 l 1
 3 761 l 1
 3 1072 l 1
 683 1072 l 1
 683 761 l 1
 615 761 l 1
 791 454 l 1
 888 662 l 2
 899 685 904 703 904 717 c 0
 904 757 860 761 793 761 c 1
 793 1072 l 1
 1373 1072 l 1
 1373 761 l 1
 1262 761 1236 703 1197 628 c 2
 819 -82 l 1
 1051 -82 l 1
 1051 -377 l 1
 360 -377 l 1
 557 31 l 1
1016 1443 m 1
 462 1130 l 1
 358 1271 l 1
 832 1708 l 1
 1016 1443 l 1
EndSplineSet
EndChar

StartChar: thorn
Encoding: 254 254 192
Width: 1405
GlyphClass: 2
Flags: HW
LayerCount: 2
Fore
SplineSet
907 -9 m 0
 774 -9 654 47 596 119 c 1
 596 -96 l 1
 707 -96 l 1
 707 -397 l 1
 33 -398 l 1
 33 -94 l 1
 117 -94 l 1
 117 1141 l 1
 43 1141 l 1
 43 1447 l 1
 607 1447 l 1
 607 956 l 1
 617 956 l 1
 693 1035 768 1083 909 1083 c 0
 1144 1083 1274 926 1330 744 c 128
 1350 680 1360 612 1360 541 c 0
 1360 388 1314 259 1248 164 c 128
 1182 68 1063 -9 907 -9 c 0
596 417 m 1
 607 356 650 310 725 310 c 0
 851 310 891 420 891 545 c 0
 891 674 837 739 728 739 c 0
 658 739 609 699 596 645 c 1
 596 417 l 1
EndSplineSet
EndChar

StartChar: ydieresis
Encoding: 255 255 193
Width: 1377
GlyphClass: 2
Flags: HW
LayerCount: 2
Fore
SplineSet
360 -377 m 1
 557 31 l 1
 91 761 l 1
 3 761 l 1
 3 1072 l 1
 683 1072 l 1
 683 761 l 1
 615 761 l 1
 791 454 l 1
 888 662 l 2
 899 685 904 703 904 717 c 0
 904 757 860 761 793 761 c 1
 793 1072 l 1
 1373 1072 l 1
 1373 761 l 1
 1262 761 1236 702 1197 628 c 2
 819 -82 l 1
 1051 -82 l 1
 1051 -377 l 1
 360 -377 l 1
379 1572 m 128
 510 1572 605 1478 605 1342 c 0
 605 1207 510 1112 381 1112 c 0
 249 1112 153 1208 153 1345 c 0
 153 1480 249 1572 379 1572 c 128
996 1572 m 128
 1127 1572 1222 1478 1222 1342 c 0
 1222 1207 1127 1112 998 1112 c 0
 866 1112 770 1208 770 1345 c 0
 770 1480 866 1572 996 1572 c 128
EndSplineSet
EndChar

StartChar: dcroat
Encoding: 273 273 211
Width: 1442
GlyphClass: 2
Flags: HW
LayerCount: 2
Fore
SplineSet
498 1090 m 0
 641 1090 718 1040 797 960 c 1
 797 1137 l 1
 692 1137 l 1
 692 1275 l 1
 797 1275 l 1
 797 1335 l 1
 707 1335 l 1
 707 1640 l 1
 1292 1640 l 1
 1292 1275 l 1
 1369 1275 l 1
 1369 1137 l 1
 1292 1137 l 1
 1293 305 l 1
 1370 305 l 1
 1370 0 l 1
 801 0 l 1
 801 128 l 1
 740 47 638 -18 506 -19 c 1
 259 -19 128 154 72 346 c 128
 53 412 43 480 43 550 c 0
 43 699 96 828 163 919 c 128
 231 1010 347 1090 498 1090 c 0
666 319 m 0
 734 319 779 370 801 415 c 1
 801 681 l 1
 786 698 l 1
 765 721 712 749 666 749 c 0
 566 749 514 666 514 558 c 0
 514 436 544 319 666 319 c 0
EndSplineSet
EndChar

StartChar: Hbar
Encoding: 294 294 232
Width: 1908
GlyphClass: 2
Flags: HW
LayerCount: 2
Fore
SplineSet
105 359 m 1
 252 359 l 1
 252 1072 l 1
 105 1072 l 1
 105 1172 l 1
 252 1172 l 1
 252 1270 l 1
 105 1270 l 1
 105 1623 l 1
 914 1623 l 1
 914 1270 l 1
 819 1270 l 1
 819 1172 l 1
 1088 1172 l 1
 1088 1270 l 1
 1000 1270 l 1
 1000 1623 l 1
 1798 1623 l 1
 1798 1270 l 1
 1657 1270 l 1
 1657 1172 l 1
 1797 1172 l 1
 1797 1072 l 1
 1657 1072 l 1
 1657 359 l 1
 1804 359 l 1
 1804 0 l 1
 1004 0 l 1
 1004 359 l 1
 1088 359 l 1
 1088 635 l 1
 819 635 l 1
 819 359 l 1
 915 359 l 1
 914 0 l 1
 105 0 l 1
 105 359 l 1
1088 986 m 1
 1088 1072 l 1
 819 1072 l 1
 819 986 l 1
 1088 986 l 1
EndSplineSet
EndChar

StartChar: hbar
Encoding: 295 295 233
Width: 1451
GlyphClass: 2
Flags: HW
LayerCount: 2
Fore
SplineSet
960 1090 m 0
 1196 1090 1318 944 1318 702 c 2
 1318 305 l 1
 1404 305 l 1
 1404 0 l 1
 828 0 l 1
 828 619 l 2
 827 702 800 744 745 744 c 0
 678 744 644 705 644 626 c 2
 644 305 l 1
 724 305 l 1
 724 0 l 1
 71 0 l 1
 72 305 l 1
 151 305 l 1
 151 1133 l 1
 67 1133 l 1
 67 1272 l 1
 151 1272 l 1
 151 1332 l 1
 67 1332 l 1
 67 1640 l 1
 640 1640 l 1
 640 1272 l 1
 815 1272 l 1
 815 1133 l 1
 640 1133 l 1
 640 916 l 1
 719 1004 794 1090 960 1090 c 0
EndSplineSet
EndChar

StartChar: dotlessi
Encoding: 305 305 243
Width: 814
GlyphClass: 2
Flags: HW
LayerCount: 2
Fore
SplineSet
661 299 m 1
 745 299 l 1
 745 0 l 1
 98 0 l 1
 98 299 l 1
 180 299 l 1
 180 747 l 1
 91 747 l 1
 91 1072 l 1
 661 1072 l 1
 661 299 l 1
EndSplineSet
EndChar

StartChar: ij
Encoding: 307 307 244
Width: 1572
GlyphClass: 2
Flags: HW
LayerCount: 2
Fore
SplineSet
956 -9 m 2
 956 760 l 1
 661 760 l 1
 661 305 l 1
 745 305 l 1
 745 0 l 1
 98 0 l 1
 98 305 l 1
 180 305 l 1
 180 761 l 1
 91 761 l 1
 91 1072 l 1
 1455 1072 l 1
 1455 129 l 2
 1455 38 1445 -40 1426 -103 c 128
 1357 -328 1153 -398 851 -398 c 1
 849 -72 l 1
 854 -73 860 -73 865 -73 c 0
 910 -73 956 -52 956 -9 c 2
667 1385 m 0
 667 1229 538 1135 380 1135 c 0
 225 1135 103 1230 103 1385 c 0
 103 1540 223 1630 380 1630 c 0
 541 1630 667 1542 667 1385 c 0
1458 1385 m 0
 1458 1229 1329 1135 1171 1135 c 0
 1016 1135 894 1230 894 1385 c 0
 894 1540 1014 1630 1171 1630 c 0
 1332 1630 1458 1542 1458 1385 c 0
EndSplineSet
EndChar

StartChar: Lslash
Encoding: 321 321 257
Width: 1422
GlyphClass: 2
Flags: HW
LayerCount: 2
Fore
SplineSet
819 359 m 1
 1010 359 l 1
 1097 709 l 1
 1383 709 l 1
 1383 0 l 1
 110 0 l 1
 109 359 l 1
 252 359 l 1
 252 1270 l 1
 105 1270 l 1
 105 1622 l 1
 973 1622 l 1
 973 1270 l 1
 819 1270 l 1
 819 359 l 1
943 1160 m 1
 1042 981 l 1
 174 478 l 1
 74 656 l 1
 943 1160 l 1
EndSplineSet
EndChar

StartChar: lslash
Encoding: 322 322 258
Width: 794
GlyphClass: 2
Flags: HW
LayerCount: 2
Fore
SplineSet
644 305 m 1
 722 305 l 1
 722 0 l 1
 75 0 l 1
 75 305 l 1
 149 305 l 1
 149 1317 l 1
 65 1317 l 1
 65 1630 l 1
 644 1630 l 1
 644 305 l 1
725 1153 m 1
 824 974 l 1
 73 540 l 1
 -27 718 l 1
 725 1153 l 1
EndSplineSet
EndChar

StartChar: Eng
Encoding: 330 330 266
Width: 1874
GlyphClass: 2
Flags: HW
LayerCount: 2
Fore
SplineSet
1335 1136 m 130
 1335 1230 1292 1271 1197 1271 c 0
 1190 1271 1184 1270 1177 1270 c 1
 1177 1623 l 1
 1814 1622 l 1
 1814 1270 l 1
 1705 1270 1656 1223 1656 1118 c 2
 1656 -172 l 2
 1656 -479 1469 -677 1160 -677 c 0
 1027 -677 931 -641 872 -568 c 1
 835 -660 l 1
 565 -660 l 1
 565 -124 l 1
 869 -124 l 1
 872 -156 l 2
 879 -231 914 -275 992 -282 c 1
 1087 -282 1103 -188 1103 -75 c 1
 1050 50 l 1
 577 908 l 1
 577 507 l 2
 577 396 623 359 735 359 c 1
 735 0 l 1
 98 0 l 1
 98 359 l 1
 232 365 261 415 261 550 c 2
 261 1272 l 1
 104 1272 l 1
 104 1623 l 1
 839 1623 l 1
 1335 647 l 1
 1335 1136 l 130
EndSplineSet
EndChar

StartChar: eng
Encoding: 331 331 267
Width: 1483
GlyphClass: 2
Flags: HW
LayerCount: 2
Fore
SplineSet
661 916 m 1
 729 1021 851 1092 1019 1092 c 0
 1239 1092 1349 955 1349 680 c 2
 1349 93 l 2
 1349 -186 1257 -342 1036 -402 c 128
 958 -423 860 -434 745 -434 c 1
 743 -108 l 1
 748 -109 754 -109 759 -109 c 0
 805 -109 849 -86 855 -45 c 1
 855 627 l 2
 855 684 819 737 765 737 c 0
 703 737 661 686 661 624 c 2
 661 305 l 1
 749 305 l 1
 749 0 l 1
 91 0 l 1
 91 305 l 1
 174 305 l 1
 174 761 l 1
 98 761 l 1
 98 1072 l 1
 661 1072 l 1
 661 916 l 1
EndSplineSet
EndChar

StartChar: OE
Encoding: 338 338 274
Width: 2329
GlyphClass: 2
Flags: HW
LayerCount: 2
Fore
SplineSet
896 0 m 2
 641 0 438 72 286 216 c 128
 134 360 57 553 56 793 c 0
 56 1136 222 1380 454 1506 c 128
 581 1575 726 1610 890 1610 c 2
 2205 1610 l 1
 2205 957 l 1
 1937 956 l 1
 1861 1258 l 1
 1648 1258 l 1
 1648 988 l 1
 1853 988 l 1
 1853 636 l 1
 1648 636 l 1
 1648 350 l 1
 1867 350 l 1
 1888 467 1918 574 1943 687 c 1
 2216 687 l 1
 2216 0 l 1
 896 0 l 2
885 1257 m 2
 687 1257 672 1069 672 872 c 0
 672 853 672 835 673 817 c 1
 673 775 673 775 673 755 c 0
 673 546 687 350 896 350 c 2
 1095 350 l 1
 1095 1257 l 1
 885 1257 l 2
EndSplineSet
EndChar

StartChar: oe
Encoding: 339 339 275
Width: 1927
GlyphClass: 2
Flags: HW
LayerCount: 2
Fore
SplineSet
1861 118 m 1
 1701 22 1560 -27 1325 -27 c 0
 1321 -27 1318 -27 1314 -27 c 0
 1199 -27 1112 16 1048 64 c 128
 1022 84 1012 93 996 113 c 1
 971 83 913 43 870 22 c 128
 818 -4 727 -26 646 -26 c 0
 396 -26 216 73 120 235 c 128
 69 321 44 422 44 539 c 0
 44 895 285 1083 646 1083 c 0
 800 1083 924 1031 1002 959 c 1
 1024 987 1074 1022 1114 1040 c 128
 1164 1063 1252 1083 1330 1083 c 0
 1564 1083 1737 971 1818 816 c 128
 1860 736 1881 646 1881 546 c 0
 1881 523 1879 497 1876 467 c 1
 1865 441 1867 439 1839 439 c 2
 1237 439 l 1
 1237 323 1300 213 1414 213 c 0
 1512 213 1551 260 1554 356 c 1
 1861 356 l 1
 1861 118 l 1
646 731 m 128
 533 731 509 649 509 537 c 0
 509 396 555 326 646 326 c 128
 737 326 783 396 783 537 c 0
 783 649 759 731 646 731 c 128
1347 805 m 0
 1272 805 1239 723 1239 647 c 2
 1239 618 l 1
 1454 618 l 1
 1454 625 1454 632 1454 639 c 0
 1454 727 1436 805 1347 805 c 0
EndSplineSet
EndChar

StartChar: Scaron
Encoding: 352 352 288
Width: 1329
GlyphClass: 2
Flags: HW
LayerCount: 2
Fore
SplineSet
635 1305 m 0
 575 1305 541 1273 541 1213 c 0
 541 1193 550 1176 566 1161 c 128
 605 1126 666 1110 728 1092 c 128
 856 1056 985 1013 1080 938 c 128
 1197 846 1276 709 1276 497 c 0
 1276 350 1218 223 1148 137 c 128
 1075 48 952 -29 798 -29 c 0
 636 -29 565 11 469 92 c 1
 433 0 l 1
 110 0 l 1
 110 518 l 1
 432 518 l 1
 462 434 557 334 665 334 c 0
 721 334 774 364 774 420 c 0
 774 443 767 462 752 478 c 128
 722 512 693 521 643 535 c 0
 333 624 74 734 74 1133 c 0
 74 1441 226 1653 530 1653 c 0
 659 1653 763 1623 842 1563 c 1
 845 1571 855 1591 874 1623 c 1
 1159 1623 l 1
 1159 1107 l 1
 852 1107 l 1
 831 1199 744 1305 635 1305 c 0
535 1711 m 1
 262 2088 l 1
 416 2189 l 1
 671 1944 l 1
 926 2189 l 1
 1080 2088 l 1
 806 1712 l 1
 535 1711 l 1
EndSplineSet
EndChar

StartChar: scaron
Encoding: 353 353 289
Width: 1055
GlyphClass: 2
Flags: HW
LayerCount: 2
Fore
SplineSet
517 846 m 0
 517 826 527 808 547 793 c 128
 597 755 690 742 755 719 c 1
 916 654 996 546 996 395 c 0
 996 125 856 -18 585 -18 c 0
 446 -18 344 13 277 76 c 1
 241 9 l 1
 64 9 l 1
 71 387 l 1
 292 387 l 1
 306 304 368 209 462 209 c 0
 514 209 570 235 570 287 c 0
 570 341 517 369 472 386 c 128
 289 453 75 494 75 746 c 0
 75 986 246 1092 487 1092 c 0
 592 1092 728 1070 781 1033 c 1
 808 1081 l 1
 976 1081 l 1
 976 761 l 1
 775 761 l 1
 767 782 l 1
 738 849 703 920 609 920 c 0
 561 920 517 893 517 846 c 0
394 1149 m 1
 121 1526 l 1
 275 1627 l 1
 530 1382 l 1
 785 1627 l 1
 939 1526 l 1
 665 1150 l 1
 394 1149 l 1
EndSplineSet
EndChar

StartChar: Tcommaaccent
Encoding: 354 354 290
Width: 1531
GlyphClass: 2
Flags: HW
LayerCount: 2
Fore
SplineSet
1213 965 m 1
 1151 1270 l 1
 1045 1270 l 1
 1045 360 l 1
 1209 360 l 1
 1209 0 l 1
 318 0 l 1
 318 360 l 1
 482 360 l 1
 482 1270 l 1
 382 1270 l 1
 318 965 l 1
 37 965 l 1
 37 1622 l 1
 1494 1622 l 1
 1494 965 l 1
 1213 965 l 1
372 -674 m 1
 470 -674 539 -649 554 -568 c 128
 561 -530 561 -513 561 -475 c 0
 561 -468 561 -460 561 -451 c 1
 372 -451 l 1
 372 -85 l 1
 882 -85 l 1
 898 -188 906 -280 906 -362 c 0
 906 -731 740 -899 372 -899 c 1
 372 -674 l 1
EndSplineSet
EndChar

StartChar: tcommaaccent
Encoding: 355 355 291
Width: 875
GlyphClass: 2
Flags: HW
LayerCount: 2
Fore
SplineSet
633 438 m 2
 633 377 664 334 731 334 c 0
 761 334 797 339 839 348 c 1
 839 49 l 1
 802 32 l 2
 745 6 621 -18 531 -18 c 0
 276 -18 150 116 151 385 c 2
 152 761 l 1
 44 761 l 1
 44 1072 l 1
 147 1072 l 1
 147 1301 l 1
 634 1406 l 1
 634 1072 l 1
 786 1072 l 1
 786 761 l 1
 634 761 l 1
 633 438 l 2
240 -674 m 1
 338 -674 407 -649 422 -568 c 128
 429 -530 429 -513 429 -475 c 0
 429 -468 429 -460 429 -451 c 1
 240 -451 l 1
 240 -85 l 1
 750 -85 l 1
 766 -188 774 -280 774 -362 c 0
 774 -731 608 -899 240 -899 c 1
 240 -674 l 1
EndSplineSet
EndChar

StartChar: Tbar
Encoding: 358 358 294
Width: 1535
GlyphClass: 2
Flags: HW
LayerCount: 2
Fore
SplineSet
1215 965 m 1
 1153 1270 l 1
 1047 1270 l 1
 1047 855 l 1
 1141 855 l 1
 1141 640 l 1
 1047 640 l 1
 1047 360 l 1
 1211 360 l 1
 1211 0 l 1
 320 0 l 1
 320 360 l 1
 484 360 l 1
 484 640 l 1
 393 640 l 1
 393 855 l 1
 484 855 l 1
 484 1270 l 1
 384 1270 l 1
 320 965 l 1
 39 965 l 1
 39 1622 l 1
 1496 1622 l 1
 1496 965 l 1
 1215 965 l 1
EndSplineSet
EndChar

StartChar: tbar
Encoding: 359 359 295
Width: 873
GlyphClass: 2
Flags: HW
LayerCount: 2
Fore
SplineSet
631 438 m 2
 631 377 662 334 729 334 c 0
 759 334 795 339 837 348 c 1
 837 49 l 1
 800 32 l 2
 743 6 619 -18 529 -18 c 0
 274 -18 148 116 149 385 c 1
 149 466 l 1
 41 466 l 1
 41 677 l 1
 149 677 l 1
 150 761 l 1
 42 761 l 1
 42 1072 l 1
 145 1072 l 1
 145 1301 l 1
 632 1406 l 1
 632 1072 l 1
 784 1072 l 1
 784 761 l 1
 632 761 l 1
 631 677 l 1
 780 677 l 1
 780 466 l 1
 631 466 l 1
 631 438 l 2
EndSplineSet
EndChar

StartChar: Ydieresis
Encoding: 376 376 312
Width: 1559
GlyphClass: 2
Flags: HW
LayerCount: 2
Fore
SplineSet
989 1270 m 130
 927 1270 l 1
 927 1622 l 1
 1564 1622 l 1
 1564 1270 l 1
 1490 1270 l 2
 1358 1270 1326 1182 1279 1095 c 1
 1075 724 l 1
 1075 359 l 1
 1232 359 l 1
 1232 0 l 1
 363 0 l 1
 363 359 l 1
 518 359 l 1
 518 672 l 1
 97 1270 l 1
 -15 1270 l 1
 -15 1622 l 1
 837 1622 l 1
 837 1270 l 1
 746 1270 l 1
 763 1246 913 1017 930 993 c 1
 1006 1108 1044 1184 1044 1221 c 0
 1044 1256 1024 1270 989 1270 c 130
468 2134 m 128
 599 2134 694 2040 694 1904 c 0
 694 1769 599 1674 470 1674 c 0
 338 1674 242 1770 242 1907 c 0
 242 2042 338 2134 468 2134 c 128
1085 2134 m 128
 1216 2134 1311 2040 1311 1904 c 0
 1311 1769 1216 1674 1087 1674 c 0
 955 1674 859 1770 859 1907 c 0
 859 2042 955 2134 1085 2134 c 128
EndSplineSet
EndChar

StartChar: Zcaron
Encoding: 381 381 317
Width: 1607
GlyphClass: 2
Flags: HW
LayerCount: 2
Fore
SplineSet
1495 1622 m 1
 1495 1293 l 1
 818 359 l 1
 1127 359 l 1
 1234 705 l 1
 1516 705 l 1
 1515 0 l 1
 106 0 l 1
 105 350 l 1
 784 1270 l 1
 469 1270 l 1
 389 938 l 1
 101 938 l 1
 101 1622 l 1
 1495 1622 l 1
669 1700 m 1
 396 2077 l 1
 550 2178 l 1
 805 1933 l 1
 1060 2178 l 1
 1214 2077 l 1
 940 1701 l 1
 669 1700 l 1
EndSplineSet
EndChar

StartChar: zcaron
Encoding: 382 382 318
Width: 1214
GlyphClass: 2
Flags: HW
LayerCount: 2
Fore
SplineSet
64 0 m 1
 64 283 l 1
 558 750 l 1
 558 761 l 1
 498 761 l 2
 377 761 287 758 287 636 c 1
 90 636 l 1
 90 1072 l 1
 1112 1072 l 1
 1112 795 l 1
 643 316 l 1
 643 305 l 1
 744 305 l 2
 761 305 774 305 785 305 c 0
 808 305 823 305 852 310 c 128
 925 322 947 382 966 451 c 1
 1149 451 l 1
 1149 0 l 1
 64 0 l 1
470 1149 m 1
 197 1526 l 1
 351 1627 l 1
 606 1382 l 1
 861 1627 l 1
 1015 1526 l 1
 741 1150 l 1
 470 1149 l 1
EndSplineSet
EndChar

StartChar: florin
Encoding: 402 402 319
Width: 891
GlyphClass: 2
Flags: HW
LayerCount: 2
Fore
SplineSet
573 1610 m 0
 675 1610 816 1586 881 1563 c 1
 881 1252 l 1
 842 1261 810 1265 785 1265 c 0
 696 1265 674 1208 674 1115 c 0
 674 1101 674 1087 675 1072 c 1
 854 1072 l 1
 854 761 l 1
 682 761 l 1
 682 452 683 253 684 164 c 1
 684 -97 559 -239 298 -239 c 0
 196 -239 55 -215 -10 -192 c 1
 -10 119 l 1
 29 110 61 106 86 106 c 0
 186 106 196 181 196 299 c 2
 196 761 l 1
 112 761 l 1
 112 1072 l 1
 195 1072 l 1
 195 1074 194 1119 193 1207 c 1
 193 1476 320 1610 573 1610 c 0
EndSplineSet
EndChar

StartChar: uni0200
Encoding: 512 512 328
Width: 1643
GlyphClass: 2
Flags: HW
LayerCount: 2
Fore
SplineSet
555 459 m 1
 555 428 568 359 598 359 c 2
 682 359 l 1
 682 0 l 1
 4 0 l 1
 4 359 l 1
 173 359 192 438 231 591 c 2
 403 1270 l 1
 191 1270 l 1
 191 1623 l 1
 1185 1623 l 1
 1492 447 l 2
 1501 412 1509 359 1548 359 c 2
 1634 359 l 1
 1634 0 l 1
 808 0 l 1
 807 359 l 1
 927 359 l 1
 927 468 905 523 860 523 c 2
 585 523 l 2
 556 523 556 489 555 459 c 1
612 773 m 1
 841 773 l 1
 724 1281 l 1
 612 773 l 1
874 2385 m 1
 1027 1759 l 1
 862 1699 l 1
 574 2266 l 1
 874 2385 l 1
274 2366 m 1
 581 1799 l 1
 437 1700 l 1
 14 2175 l 1
 274 2366 l 1
EndSplineSet
EndChar

StartChar: uni0201
Encoding: 513 513 329
Width: 1294
GlyphClass: 2
Flags: HW
LayerCount: 2
Fore
SplineSet
419 -18 m 0
 212 -18 30 104 30 308 c 0
 30 359 43 406 68 448 c 128
 137 563 284 630 465 630 c 0
 562 630 648 617 721 592 c 1
 721 637 l 2
 721 748 651 803 510 803 c 0
 415 803 343 771 295 708 c 1
 120 708 l 1
 120 1022 l 1
 187 1040 l 1
 281 1064 479 1092 603 1092 c 0
 885 1092 1171 1034 1171 750 c 2
 1171 305 l 1
 1247 305 l 1
 1247 0 l 1
 775 0 l 1
 725 119 l 1
 668 44 543 -18 419 -18 c 0
616 224 m 0
 660 224 707 248 724 270 c 1
 724 417 l 1
 699 426 661 438 625 438 c 0
 568 438 520 383 520 326 c 0
 520 267 557 224 616 224 c 0
838 1843 m 1
 991 1217 l 1
 826 1157 l 1
 538 1724 l 1
 838 1843 l 1
238 1824 m 1
 545 1257 l 1
 401 1158 l 1
 -22 1633 l 1
 238 1824 l 1
EndSplineSet
EndChar

StartChar: uni0202
Encoding: 514 514 330
Width: 1643
GlyphClass: 2
Flags: HW
LayerCount: 2
Fore
SplineSet
555 459 m 1
 555 428 568 359 598 359 c 2
 682 359 l 1
 682 0 l 1
 4 0 l 1
 4 359 l 1
 173 359 192 438 231 591 c 2
 403 1270 l 1
 191 1270 l 1
 191 1623 l 1
 1185 1623 l 1
 1492 447 l 2
 1501 412 1509 359 1548 359 c 2
 1634 359 l 1
 1634 0 l 1
 808 0 l 1
 807 359 l 1
 927 359 l 1
 927 468 905 523 860 523 c 2
 585 523 l 2
 556 523 556 489 555 459 c 1
612 773 m 1
 841 773 l 1
 724 1281 l 1
 612 773 l 1
874 2385 m 1
 1027 1759 l 1
 862 1699 l 1
 574 2266 l 1
 874 2385 l 1
274 2366 m 1
 581 1799 l 1
 437 1700 l 1
 14 2175 l 1
 274 2366 l 1
EndSplineSet
EndChar

StartChar: uni0203
Encoding: 515 515 331
Width: 1294
GlyphClass: 2
Flags: HW
LayerCount: 2
Fore
SplineSet
419 -18 m 0
 212 -18 30 104 30 308 c 0
 30 359 43 406 68 448 c 128
 137 563 284 630 465 630 c 0
 562 630 648 617 721 592 c 1
 721 637 l 2
 721 748 651 803 510 803 c 0
 415 803 343 771 295 708 c 1
 120 708 l 1
 120 1022 l 1
 187 1040 l 1
 281 1064 479 1092 603 1092 c 0
 885 1092 1171 1034 1171 750 c 2
 1171 305 l 1
 1247 305 l 1
 1247 0 l 1
 775 0 l 1
 725 119 l 1
 668 44 543 -18 419 -18 c 0
616 224 m 0
 660 224 707 248 724 270 c 1
 724 417 l 1
 699 426 661 438 625 438 c 0
 568 438 520 383 520 326 c 0
 520 267 557 224 616 224 c 0
838 1843 m 1
 991 1217 l 1
 826 1157 l 1
 538 1724 l 1
 838 1843 l 1
238 1824 m 1
 545 1257 l 1
 401 1158 l 1
 -22 1633 l 1
 238 1824 l 1
EndSplineSet
EndChar

StartChar: uni0204
Encoding: 516 516 332
Width: 1490
GlyphClass: 2
Flags: HW
LayerCount: 2
Fore
SplineSet
1367 969 m 1
 1099 968 l 1
 1023 1270 l 1
 810 1270 l 1
 810 988 l 1
 1015 988 l 1
 1015 636 l 1
 810 636 l 1
 810 359 l 1
 1029 359 l 1
 1042 420 l 1
 1105 687 l 1
 1378 687 l 1
 1378 0 l 1
 99 0 l 1
 99 359 l 1
 257 359 l 1
 257 1270 l 1
 99 1270 l 1
 99 1623 l 1
 1367 1623 l 1
 1367 969 l 1
988 2385 m 1
 1141 1759 l 1
 976 1699 l 1
 688 2266 l 1
 988 2385 l 1
388 2366 m 1
 695 1799 l 1
 551 1700 l 1
 128 2175 l 1
 388 2366 l 1
EndSplineSet
EndChar

StartChar: uni0205
Encoding: 517 517 333
Width: 1224
GlyphClass: 2
Flags: HW
LayerCount: 2
Fore
SplineSet
851 365 m 1
 1158 365 l 1
 1158 127 l 1
 996 30 852 -18 611 -18 c 0
 503 -18 406 6 318 55 c 128
 165 140 40 299 40 521 c 0
 40 631 63 728 109 814 c 128
 197 978 379 1092 627 1092 c 0
 742 1092 841 1067 926 1018 c 128
 1077 931 1178 779 1178 555 c 0
 1178 532 1176 506 1173 476 c 1
 1162 451 1166 448 1136 448 c 2
 534 448 l 1
 534 332 597 222 711 222 c 0
 809 222 848 269 851 365 c 1
536 656 m 2
 536 627 l 1
 751 627 l 1
 751 634 751 641 751 648 c 0
 751 736 733 814 644 814 c 0
 569 814 536 732 536 656 c 2
842 1843 m 1
 995 1217 l 1
 830 1157 l 1
 542 1724 l 1
 842 1843 l 1
242 1824 m 1
 549 1257 l 1
 405 1158 l 1
 -18 1633 l 1
 242 1824 l 1
EndSplineSet
EndChar

StartChar: uni0206
Encoding: 518 518 334
Width: 1490
GlyphClass: 2
Flags: HW
LayerCount: 2
Fore
SplineSet
1099 968 m 1
 1023 1270 l 1
 810 1270 l 1
 810 988 l 1
 1015 988 l 1
 1015 636 l 1
 810 636 l 1
 810 359 l 1
 1029 359 l 1
 1052 470 1080 578 1105 687 c 1
 1378 687 l 1
 1378 0 l 1
 99 0 l 1
 99 359 l 1
 257 359 l 1
 257 1270 l 1
 99 1270 l 1
 99 1623 l 1
 1367 1623 l 1
 1367 969 l 1
 1099 968 l 1
768 1860 m 128
 679 1860 616 1793 616 1699 c 1
 364 1699 l 1
 364 1879 481 1978 620 2021 c 128
 668 2036 717 2043 768 2043 c 128
 942 2043 1077 1967 1138 1849 c 128
 1161 1804 1172 1754 1172 1699 c 1
 920 1699 l 1
 920 1793 857 1860 768 1860 c 128
EndSplineSet
EndChar

StartChar: uni0207
Encoding: 519 519 335
Width: 1224
GlyphClass: 2
Flags: HW
LayerCount: 2
Fore
SplineSet
1158 127 m 1
 996 30 852 -18 611 -18 c 0
 380 -18 202 101 113 251 c 128
 64 333 40 423 40 521 c 0
 40 762 149 928 312 1018 c 128
 402 1068 507 1092 627 1092 c 0
 861 1092 1035 980 1116 825 c 128
 1158 745 1178 655 1178 555 c 0
 1178 532 1176 506 1173 476 c 1
 1162 451 1166 448 1136 448 c 2
 534 448 l 1
 534 332 597 222 711 222 c 0
 809 222 848 269 851 365 c 1
 1158 365 l 1
 1158 127 l 1
644 814 m 0
 569 814 536 732 536 656 c 2
 536 627 l 1
 751 627 l 1
 751 634 751 641 751 648 c 0
 751 736 733 814 644 814 c 0
630 1313 m 128
 541 1313 478 1246 478 1152 c 1
 226 1152 l 1
 226 1332 343 1431 482 1474 c 128
 530 1489 579 1496 630 1496 c 128
 804 1496 939 1420 1000 1302 c 128
 1023 1257 1034 1207 1034 1152 c 1
 782 1152 l 1
 782 1246 719 1313 630 1313 c 128
EndSplineSet
EndChar

StartChar: uni0208
Encoding: 520 520 336
Width: 1076
GlyphClass: 2
Flags: HW
LayerCount: 2
Fore
SplineSet
972 1623 m 1
 972 1270 l 1
 825 1270 l 1
 825 359 l 1
 966 359 l 1
 966 0 l 1
 104 0 l 1
 104 359 l 1
 251 359 l 1
 251 1270 l 1
 108 1270 l 1
 108 1623 l 1
 972 1623 l 1
856 2385 m 1
 1009 1759 l 1
 844 1699 l 1
 556 2266 l 1
 856 2385 l 1
256 2366 m 1
 563 1799 l 1
 419 1700 l 1
 -4 2175 l 1
 256 2366 l 1
EndSplineSet
EndChar

StartChar: uni0209
Encoding: 521 521 337
Width: 814
GlyphClass: 2
Flags: HW
LayerCount: 2
Fore
SplineSet
662 1072 m 1
 662 299 l 1
 746 299 l 1
 746 0 l 1
 99 0 l 1
 99 299 l 1
 181 299 l 1
 181 747 l 1
 92 747 l 1
 92 1072 l 1
 662 1072 l 1
704 1843 m 1
 857 1217 l 1
 692 1157 l 1
 404 1724 l 1
 704 1843 l 1
104 1824 m 1
 411 1257 l 1
 267 1158 l 1
 -156 1633 l 1
 104 1824 l 1
EndSplineSet
EndChar

StartChar: uni020A
Encoding: 522 522 338
Width: 1076
GlyphClass: 2
Flags: HW
LayerCount: 2
Fore
SplineSet
972 1270 m 1
 825 1270 l 1
 825 359 l 1
 966 359 l 1
 966 0 l 1
 104 0 l 1
 104 359 l 1
 251 359 l 1
 251 1270 l 1
 108 1270 l 1
 108 1623 l 1
 972 1623 l 1
 972 1270 l 1
544 1860 m 128
 455 1860 392 1793 392 1699 c 1
 140 1699 l 1
 140 1879 257 1978 396 2021 c 128
 444 2036 493 2043 544 2043 c 128
 718 2043 853 1967 914 1849 c 128
 937 1804 948 1754 948 1699 c 1
 696 1699 l 1
 696 1793 633 1860 544 1860 c 128
EndSplineSet
EndChar

StartChar: uni020B
Encoding: 523 523 339
Width: 815
GlyphClass: 2
Flags: HW
LayerCount: 2
Fore
SplineSet
662 299 m 1
 746 299 l 1
 746 0 l 1
 99 0 l 1
 99 299 l 1
 181 299 l 1
 181 747 l 1
 92 747 l 1
 92 1072 l 1
 662 1072 l 1
 662 299 l 1
418 1313 m 128
 329 1313 266 1246 266 1152 c 1
 14 1152 l 1
 14 1332 131 1431 270 1474 c 128
 318 1489 367 1496 418 1496 c 128
 592 1496 727 1420 788 1302 c 128
 811 1257 822 1207 822 1152 c 1
 570 1152 l 1
 570 1246 507 1313 418 1313 c 128
EndSplineSet
EndChar

StartChar: uni020C
Encoding: 524 524 340
Width: 1744
GlyphClass: 2
Flags: HW
LayerCount: 2
Fore
SplineSet
1692 808 m 0
 1692 467 1515 211 1289 80 c 128
 1164 7 1025 -29 872 -29 c 128
 535 -29 288 153 160 381 c 128
 88 509 52 651 52 808 c 0
 52 1164 217 1426 452 1553 c 128
 575 1620 715 1653 872 1653 c 128
 1217 1653 1454 1494 1584 1260 c 128
 1656 1131 1692 980 1692 808 c 0
872 319 m 0
 1014 319 1053 442 1072 565 c 128
 1080 617 1083 675 1083 734 c 0
 1083 754 1083 774 1082 793 c 2
 1082 858 l 2
 1082 869 1082 881 1082 892 c 0
 1082 907 1082 923 1082 938 c 0
 1082 965 1081 990 1078 1016 c 128
 1063 1159 1029 1296 872 1296 c 0
 685 1296 670 1104 662 924 c 128
 662 914 661 905 661 895 c 0
 661 882 661 870 662 858 c 2
 662 793 l 1
 665 699 662 602 680 522 c 128
 703 417 746 319 872 319 c 0
1115 2385 m 1
 1268 1759 l 1
 1103 1699 l 1
 815 2266 l 1
 1115 2385 l 1
515 2366 m 1
 822 1799 l 1
 678 1700 l 1
 255 2175 l 1
 515 2366 l 1
EndSplineSet
EndChar

StartChar: uni020D
Encoding: 525 525 341
Width: 1290
GlyphClass: 2
Flags: HW
LayerCount: 2
Fore
SplineSet
645 1091 m 128
 1006 1091 1247 903 1247 547 c 0
 1247 302 1128 131 958 48 c 128
 868 4 764 -18 645 -18 c 128
 395 -18 216 81 120 243 c 128
 69 329 43 430 43 547 c 0
 43 903 284 1091 645 1091 c 128
645 779 m 128
 523 779 508 666 508 545 c 0
 508 378 554 294 645 294 c 128
 736 294 782 378 782 545 c 0
 782 666 767 779 645 779 c 128
826 1843 m 1
 979 1217 l 1
 814 1157 l 1
 526 1724 l 1
 826 1843 l 1
226 1824 m 1
 533 1257 l 1
 389 1158 l 1
 -34 1633 l 1
 226 1824 l 1
EndSplineSet
EndChar

StartChar: uni020E
Encoding: 526 526 342
Width: 1744
GlyphClass: 2
Flags: HW
LayerCount: 2
Fore
SplineSet
1692 808 m 0
 1692 467 1515 211 1289 80 c 128
 1164 7 1025 -29 872 -29 c 128
 535 -29 288 153 160 381 c 128
 88 509 52 651 52 808 c 0
 52 1164 217 1426 452 1553 c 128
 575 1620 715 1653 872 1653 c 128
 1217 1653 1454 1494 1584 1260 c 128
 1656 1131 1692 980 1692 808 c 0
872 319 m 0
 1014 319 1053 442 1072 565 c 128
 1080 617 1083 675 1083 734 c 0
 1083 754 1083 774 1082 793 c 2
 1082 858 l 2
 1082 869 1082 881 1082 892 c 0
 1082 907 1082 923 1082 938 c 0
 1082 965 1081 990 1078 1016 c 128
 1063 1159 1029 1296 872 1296 c 0
 685 1296 670 1104 662 924 c 128
 662 914 661 905 661 895 c 0
 661 882 661 870 662 858 c 2
 662 793 l 1
 665 699 662 602 680 522 c 128
 703 417 746 319 872 319 c 0
874 1860 m 128
 785 1860 722 1793 722 1699 c 1
 470 1699 l 1
 470 1879 587 1978 726 2021 c 128
 774 2036 823 2043 874 2043 c 128
 1048 2043 1183 1967 1244 1849 c 128
 1267 1804 1278 1754 1278 1699 c 1
 1026 1699 l 1
 1026 1793 963 1860 874 1860 c 128
EndSplineSet
EndChar

StartChar: uni020F
Encoding: 527 527 343
Width: 1290
GlyphClass: 2
Flags: HW
LayerCount: 2
Fore
SplineSet
645 1091 m 128
 1006 1091 1247 903 1247 547 c 0
 1247 302 1128 131 958 48 c 128
 868 4 764 -18 645 -18 c 128
 395 -18 216 81 120 243 c 128
 69 329 43 430 43 547 c 0
 43 903 284 1091 645 1091 c 128
645 779 m 128
 523 779 508 666 508 545 c 0
 508 378 554 294 645 294 c 128
 736 294 782 378 782 545 c 0
 782 666 767 779 645 779 c 128
646 1313 m 128
 557 1313 494 1246 494 1152 c 1
 242 1152 l 1
 242 1332 359 1431 498 1474 c 128
 546 1489 595 1496 646 1496 c 128
 820 1496 955 1420 1016 1302 c 128
 1039 1257 1050 1207 1050 1152 c 1
 798 1152 l 1
 798 1246 735 1313 646 1313 c 128
EndSplineSet
EndChar

StartChar: uni0210
Encoding: 528 528 344
Width: 1765
GlyphClass: 2
Flags: HW
LayerCount: 2
Fore
SplineSet
1645 1170 m 0
 1645 951 1485 844 1286 807 c 1
 1385 784 1456 753 1499 712 c 128
 1542 671 1563 620 1563 559 c 2
 1563 466 l 2
 1563 447 1565 431 1568 420 c 128
 1583 364 1649 359 1727 359 c 1
 1727 0 l 1
 1465 0 l 2
 1374 0 1297 3 1228 23 c 128
 1130 51 1075 129 1075 256 c 2
 1075 451 l 2
 1075 604 1042 694 889 694 c 2
 791 694 l 1
 791 359 l 1
 912 359 l 1
 912 0 l 1
 736 0 466 0 102 -1 c 1
 102 359 l 1
 256 359 l 1
 256 1270 l 1
 101 1270 l 1
 101 1623 l 1
 1116 1623 l 2
 1443 1623 1645 1498 1645 1170 c 0
1096 1096 m 0
 1096 1206 1019 1270 906 1270 c 2
 785 1270 l 1
 785 920 l 1
 846 920 l 2
 981 920 1096 960 1096 1096 c 0
989 2385 m 1
 1142 1759 l 1
 977 1699 l 1
 689 2266 l 1
 989 2385 l 1
389 2366 m 1
 696 1799 l 1
 552 1700 l 1
 129 2175 l 1
 389 2366 l 1
EndSplineSet
EndChar

StartChar: uni0211
Encoding: 529 529 345
Width: 1001
GlyphClass: 2
Flags: HW
LayerCount: 2
Fore
SplineSet
974 1083 m 1
 974 667 l 1
 868 674 l 1
 716 674 632 581 632 426 c 2
 632 305 l 1
 769 305 l 1
 769 0 l 1
 95 0 l 1
 95 305 l 1
 174 305 l 1
 174 761 l 1
 95 761 l 1
 95 1072 l 1
 638 1072 l 1
 638 909 l 1
 642 905 l 1
 700 1004 826 1083 974 1083 c 1
820 1843 m 1
 973 1217 l 1
 808 1157 l 1
 520 1724 l 1
 820 1843 l 1
220 1824 m 1
 527 1257 l 1
 383 1158 l 1
 -40 1633 l 1
 220 1824 l 1
EndSplineSet
EndChar

StartChar: uni0212
Encoding: 530 530 346
Width: 1765
GlyphClass: 2
Flags: HW
LayerCount: 2
Fore
SplineSet
1645 1170 m 0
 1645 951 1485 844 1286 807 c 1
 1385 784 1456 753 1499 712 c 128
 1542 671 1563 620 1563 559 c 2
 1563 466 l 2
 1563 368 1625 359 1727 359 c 1
 1727 0 l 1
 1465 0 l 2
 1357 0 1245 1 1178 44 c 128
 1114 85 1075 149 1075 256 c 2
 1075 451 l 2
 1075 558 1061 644 987 677 c 128
 962 688 929 694 889 694 c 2
 791 694 l 1
 791 359 l 1
 912 359 l 1
 912 0 l 1
 736 0 466 0 102 -1 c 1
 102 359 l 1
 256 359 l 1
 256 1270 l 1
 101 1270 l 1
 101 1623 l 1
 1116 1623 l 2
 1443 1623 1645 1498 1645 1170 c 0
1096 1096 m 0
 1096 1206 1019 1270 906 1270 c 2
 785 1270 l 1
 785 920 l 1
 846 920 l 2
 981 920 1096 960 1096 1096 c 0
798 1860 m 128
 709 1860 646 1793 646 1699 c 1
 394 1699 l 1
 394 1879 511 1978 650 2021 c 128
 698 2036 747 2043 798 2043 c 128
 972 2043 1107 1967 1168 1849 c 128
 1191 1804 1202 1754 1202 1699 c 1
 950 1699 l 1
 950 1793 887 1860 798 1860 c 128
EndSplineSet
EndChar

StartChar: uni0213
Encoding: 531 531 347
Width: 1000
GlyphClass: 2
Flags: HW
LayerCount: 2
Fore
SplineSet
867 674 m 1
 715 674 631 581 631 426 c 2
 631 305 l 1
 768 305 l 1
 768 0 l 1
 94 0 l 1
 94 305 l 1
 173 305 l 1
 173 761 l 1
 94 761 l 1
 94 1072 l 1
 637 1072 l 1
 637 909 l 1
 641 905 l 1
 699 1004 825 1083 973 1083 c 1
 973 667 l 1
 867 674 l 1
534 1313 m 128
 445 1313 382 1246 382 1152 c 1
 130 1152 l 1
 130 1332 247 1431 386 1474 c 128
 434 1489 483 1496 534 1496 c 128
 708 1496 843 1420 904 1302 c 128
 927 1257 938 1207 938 1152 c 1
 686 1152 l 1
 686 1246 623 1313 534 1313 c 128
EndSplineSet
EndChar

StartChar: uni0214
Encoding: 532 532 348
Width: 1683
GlyphClass: 2
Flags: HW
LayerCount: 2
Fore
SplineSet
204 704 m 2
 204 1270 l 1
 43 1270 l 1
 43 1622 l 1
 912 1622 l 1
 912 1270 l 1
 764 1270 l 1
 764 600 l 2
 764 462 814 346 953 346 c 0
 1073 346 1149 417 1149 536 c 2
 1149 1270 l 1
 985 1270 l 1
 985 1622 l 1
 1639 1622 l 1
 1639 1270 l 1
 1485 1270 l 1
 1485 520 l 2
 1485 415 1454 319 1393 234 c 128
 1283 81 1084 -29 834 -29 c 0
 373 -29 204 245 204 704 c 2
1036 2385 m 1
 1189 1759 l 1
 1024 1699 l 1
 736 2266 l 1
 1036 2385 l 1
436 2366 m 1
 743 1799 l 1
 599 1700 l 1
 176 2175 l 1
 436 2366 l 1
EndSplineSet
EndChar

StartChar: uni0215
Encoding: 533 533 349
Width: 1466
GlyphClass: 2
Flags: HW
LayerCount: 2
Fore
SplineSet
464 -18 m 0
 244 -18 134 116 134 385 c 2
 134 761 l 1
 54 761 l 1
 54 1072 l 1
 628 1072 l 1
 628 438 l 2
 628 378 662 318 718 318 c 0
 782 318 822 373 822 438 c 2
 822 761 l 1
 741 761 l 1
 741 1072 l 1
 1316 1072 l 1
 1316 305 l 1
 1392 305 l 1
 1392 0 l 1
 822 0 l 1
 822 156 l 1
 754 51 632 -18 464 -18 c 0
914 1843 m 1
 1067 1217 l 1
 902 1157 l 1
 614 1724 l 1
 914 1843 l 1
314 1824 m 1
 621 1257 l 1
 477 1158 l 1
 54 1633 l 1
 314 1824 l 1
EndSplineSet
EndChar

StartChar: uni0216
Encoding: 534 534 350
Width: 1683
GlyphClass: 2
Flags: HW
LayerCount: 2
Fore
SplineSet
953 346 m 0
 1073 346 1149 417 1149 536 c 2
 1149 1270 l 1
 985 1270 l 1
 985 1622 l 1
 1639 1622 l 1
 1639 1270 l 1
 1485 1270 l 1
 1485 520 l 2
 1485 285 1324 118 1153 39 c 128
 1054 -6 948 -29 834 -29 c 0
 373 -29 204 245 204 704 c 2
 204 1270 l 1
 43 1270 l 1
 43 1622 l 1
 912 1622 l 1
 912 1270 l 1
 764 1270 l 1
 764 600 l 2
 764 462 814 346 953 346 c 0
913 1860 m 128
 824 1860 761 1793 761 1699 c 1
 509 1699 l 1
 509 1879 625 1978 764 2021 c 128
 812 2036 862 2043 913 2043 c 128
 1087 2043 1221 1967 1282 1849 c 128
 1305 1804 1317 1754 1317 1699 c 1
 1065 1699 l 1
 1065 1793 1002 1860 913 1860 c 128
EndSplineSet
EndChar

StartChar: uni0217
Encoding: 535 535 351
Width: 1466
GlyphClass: 2
Flags: HW
LayerCount: 2
Fore
SplineSet
718 318 m 0
 782 318 822 373 822 438 c 2
 822 761 l 1
 741 761 l 1
 741 1072 l 1
 1316 1072 l 1
 1316 305 l 1
 1392 305 l 1
 1392 0 l 1
 822 0 l 1
 822 156 l 1
 754 50 632 -18 464 -18 c 0
 244 -18 134 116 134 385 c 2
 134 761 l 1
 54 761 l 1
 54 1072 l 1
 628 1072 l 1
 628 438 l 2
 628 378 662 318 718 318 c 0
695 1313 m 128
 606 1313 543 1246 543 1152 c 1
 291 1152 l 1
 291 1332 407 1431 546 1474 c 128
 594 1489 644 1496 695 1496 c 128
 869 1496 1003 1420 1064 1302 c 128
 1087 1257 1099 1207 1099 1152 c 1
 847 1152 l 1
 847 1246 784 1313 695 1313 c 128
EndSplineSet
EndChar

StartChar: Scommaaccent
Encoding: 536 536 352
Width: 1329
GlyphClass: 2
Flags: HW
LayerCount: 2
Fore
SplineSet
74 1133 m 0
 74 1441 226 1653 530 1653 c 0
 659 1653 763 1623 842 1563 c 1
 845 1571 855 1591 874 1623 c 1
 1159 1623 l 1
 1159 1107 l 1
 852 1107 l 1
 831 1199 744 1305 635 1305 c 0
 575 1305 541 1273 541 1213 c 0
 541 1163 590 1139 632 1123 c 128
 697 1098 773 1080 844 1055 c 128
 932 1025 1011 992 1080 938 c 128
 1197 846 1276 709 1276 497 c 0
 1276 350 1218 223 1148 137 c 128
 1075 48 952 -29 798 -29 c 0
 636 -29 565 11 469 92 c 1
 433 0 l 1
 110 0 l 1
 110 518 l 1
 432 518 l 1
 462 434 557 334 665 334 c 0
 721 334 774 364 774 420 c 0
 774 466 737 500 705 514 c 128
 661 533 583 552 539 566 c 128
 274 651 74 782 74 1133 c 0
416 -674 m 1
 514 -674 583 -649 598 -568 c 128
 605 -530 605 -513 605 -475 c 0
 605 -468 605 -460 605 -451 c 1
 416 -451 l 1
 416 -85 l 1
 926 -85 l 1
 942 -188 950 -281 950 -362 c 0
 950 -731 784 -899 416 -899 c 1
 416 -674 l 1
EndSplineSet
EndChar

StartChar: scommaaccent
Encoding: 537 537 353
Width: 1055
GlyphClass: 2
Flags: HW
LayerCount: 2
Fore
SplineSet
244 -674 m 1
 342 -674 411 -649 426 -568 c 128
 433 -530 433 -513 433 -475 c 0
 433 -468 433 -460 433 -451 c 1
 244 -451 l 1
 244 -85 l 1
 754 -85 l 1
 770 -188 778 -280 778 -362 c 0
 778 -731 612 -899 244 -899 c 1
 244 -674 l 1
487 1092 m 0
 592 1092 728 1070 781 1033 c 1
 808 1081 l 1
 976 1081 l 1
 976 761 l 1
 775 761 l 1
 766 782 l 2
 759 800 742 844 732 856 c 1
 710 888 660 920 609 920 c 0
 561 920 517 893 517 846 c 0
 517 801 575 771 612 759 c 128
 643 749 728 729 755 719 c 1
 916 654 996 546 996 395 c 0
 996 125 856 -18 585 -18 c 0
 446 -18 344 13 277 76 c 1
 241 9 l 1
 64 9 l 1
 71 387 l 1
 292 387 l 1
 306 304 368 209 462 209 c 0
 514 209 570 235 570 287 c 0
 570 341 517 369 472 386 c 128
 289 453 75 495 75 746 c 0
 75 986 246 1092 487 1092 c 0
EndSplineSet
EndChar

StartChar: uni021A
Encoding: 538 538 354
Width: 1531
GlyphClass: 2
Flags: HW
LayerCount: 2
Fore
SplineSet
1213 965 m 1
 1151 1270 l 1
 1045 1270 l 1
 1045 360 l 1
 1209 360 l 1
 1209 0 l 1
 318 0 l 1
 318 360 l 1
 482 360 l 1
 482 1270 l 1
 382 1270 l 1
 318 965 l 1
 37 965 l 1
 37 1622 l 1
 1494 1622 l 1
 1494 965 l 1
 1213 965 l 1
372 -674 m 1
 470 -674 539 -649 554 -568 c 128
 561 -530 561 -513 561 -475 c 0
 561 -468 561 -460 561 -451 c 1
 372 -451 l 1
 372 -85 l 1
 882 -85 l 1
 898 -188 906 -280 906 -362 c 0
 906 -731 740 -899 372 -899 c 1
 372 -674 l 1
EndSplineSet
EndChar

StartChar: uni021B
Encoding: 539 539 355
Width: 875
GlyphClass: 2
Flags: HW
LayerCount: 2
Fore
SplineSet
633 438 m 2
 633 377 664 334 731 334 c 0
 761 334 797 339 839 348 c 1
 839 49 l 1
 802 32 l 2
 745 6 621 -18 531 -18 c 0
 276 -18 150 116 151 385 c 2
 152 761 l 1
 44 761 l 1
 44 1072 l 1
 147 1072 l 1
 147 1301 l 1
 634 1406 l 1
 634 1072 l 1
 786 1072 l 1
 786 761 l 1
 634 761 l 1
 633 438 l 2
240 -674 m 1
 338 -674 407 -649 422 -568 c 128
 429 -530 429 -513 429 -475 c 0
 429 -468 429 -460 429 -451 c 1
 240 -451 l 1
 240 -85 l 1
 750 -85 l 1
 766 -188 774 -280 774 -362 c 0
 774 -731 608 -899 240 -899 c 1
 240 -674 l 1
EndSplineSet
EndChar

StartChar: uni0237
Encoding: 567 567 356
Width: 772
GlyphClass: 2
Flags: HW
LayerCount: 2
Fore
SplineSet
49 -72 m 1
 54 -73 60 -73 65 -73 c 0
 110 -73 156 -52 156 -9 c 2
 156 760 l 1
 66 760 l 1
 66 1072 l 1
 655 1072 l 1
 655 129 l 2
 655 -150 563 -306 342 -366 c 128
 264 -387 166 -398 51 -398 c 1
 49 -72 l 1
EndSplineSet
EndChar

StartChar: circumflex
Encoding: 710 710 357
Width: 1016
GlyphClass: 2
Flags: HW
LayerCount: 2
Fore
SplineSet
647 1600 m 1
 921 1224 l 1
 767 1123 l 1
 512 1368 l 1
 257 1123 l 1
 103 1224 l 1
 376 1601 l 1
 647 1600 l 1
EndSplineSet
EndChar

StartChar: caron
Encoding: 711 711 358
Width: 1016
GlyphClass: 2
Flags: HW
LayerCount: 2
Fore
SplineSet
366 1149 m 1
 93 1526 l 1
 247 1627 l 1
 502 1382 l 1
 757 1627 l 1
 911 1526 l 1
 637 1150 l 1
 366 1149 l 1
EndSplineSet
EndChar

StartChar: breve
Encoding: 728 728 359
Width: 1707
GlyphClass: 2
Flags: HW
LayerCount: 2
Fore
SplineSet
1174 1622 m 1
 1174 1377 1021 1245 770 1245 c 0
 516 1245 366 1376 366 1622 c 1
 618 1622 l 1
 618 1528 681 1461 770 1461 c 128
 859 1461 922 1528 922 1622 c 1
 1174 1622 l 1
EndSplineSet
EndChar

StartChar: dotaccent
Encoding: 729 729 360
Width: 1090
GlyphClass: 2
Flags: HW
LayerCount: 2
Fore
SplineSet
844 1395 m 0
 844 1239 715 1145 557 1145 c 0
 402 1145 280 1240 280 1395 c 0
 280 1550 400 1640 557 1640 c 0
 718 1640 844 1552 844 1395 c 0
EndSplineSet
EndChar

StartChar: ring
Encoding: 730 730 361
Width: 1707
GlyphClass: 2
Flags: HW
LayerCount: 2
Fore
SplineSet
536 1388 m 0
 536 1301 605 1240 697 1240 c 0
 790 1240 862 1300 862 1388 c 0
 862 1476 790 1533 697 1533 c 0
 605 1533 536 1475 536 1388 c 0
697 1633 m 0
 856 1633 977 1538 977 1389 c 0
 977 1322 952 1263 902 1213 c 128
 852 1163 784 1138 697 1138 c 0
 612 1138 546 1163 498 1213 c 128
 450 1263 426 1322 426 1389 c 0
 426 1535 542 1633 697 1633 c 0
EndSplineSet
EndChar

StartChar: ogonek
Encoding: 731 731 362
Width: 1707
GlyphClass: 2
Flags: HW
LayerCount: 2
Fore
SplineSet
897 -485 m 2
 743 -485 528 -420 528 -285 c 0
 528 -239 563 -192 583 -161 c 128
 604 -129 668 -35 691 0 c 1
 871 0 l 1
 841 -63 777 -159 748 -214 c 128
 736 -236 731 -255 731 -271 c 0
 731 -300 746 -324 776 -343 c 128
 806 -362 853 -371 918 -372 c 1
 918 -485 l 1
 897 -485 l 2
EndSplineSet
EndChar

StartChar: tilde
Encoding: 732 732 363
Width: 1707
GlyphClass: 2
Flags: HW
LayerCount: 2
Fore
SplineSet
844 1523 m 0
 946 1523 994 1448 1032 1382 c 128
 1054 1343 1092 1267 1116 1232 c 1
 1003 1158 l 1
 954 1205 920 1234 902 1247 c 128
 884 1260 869 1266 856 1266 c 0
 826 1266 790 1256 749 1236 c 128
 708 1216 664 1196 620 1176 c 128
 576 1156 536 1145 499 1145 c 0
 396 1145 348 1218 310 1284 c 128
 288 1323 249 1400 225 1435 c 1
 339 1510 l 1
 390 1461 424 1431 443 1418 c 128
 462 1405 477 1398 489 1398 c 0
 547 1398 618 1436 658 1460 c 128
 702 1487 778 1523 844 1523 c 0
EndSplineSet
EndChar

StartChar: hungarumlaut
Encoding: 733 733 364
Width: 1478
GlyphClass: 2
Flags: HW
LayerCount: 2
Fore
SplineSet
889 1695 m 1
 601 1128 l 1
 436 1188 l 1
 589 1814 l 1
 889 1695 l 1
1343 1604 m 1
 920 1129 l 1
 776 1228 l 1
 1083 1795 l 1
 1343 1604 l 1
EndSplineSet
EndChar

StartChar: Sigma
Encoding: 931 931 365
Width: 1421
GlyphClass: 2
Flags: HW
LayerCount: 2
Fore
SplineSet
754 350 m 1
 1003 350 l 1
 1024 467 1054 574 1079 687 c 1
 1352 687 l 1
 1352 0 l 1
 73 0 l 1
 73 348 l 1
 231 348 l 1
 419 833 l 1
 231 1270 l 1
 73 1270 l 1
 73 1623 l 1
 1341 1623 l 1
 1341 969 l 1
 1073 968 l 1
 997 1270 l 1
 754 1270 l 1
 935 833 l 1
 754 350 l 1
EndSplineSet
EndChar

StartChar: Omega
Encoding: 937 937 366
Width: 1522
GlyphClass: 2
Flags: HW
LayerCount: 2
Fore
SplineSet
1495 952 m 0
 1495 683 1360 455 1208 312 c 1
 1449 312 l 1
 1449 0 l 1
 897 0 l 1
 897 347 l 1
 930 354 938 356 966 388 c 128
 1027 458 1052 532 1073 669 c 128
 1086 755 1093 856 1093 973 c 0
 1093 1153 1056 1312 946 1382 c 128
 909 1406 864 1418 813 1418 c 128
 589 1418 533 1198 533 973 c 0
 533 789 551 594 601 481 c 128
 618 442 638 411 661 388 c 128
 691 358 698 347 729 347 c 1
 729 0 l 1
 177 0 l 1
 177 312 l 1
 418 312 l 1
 266 455 131 683 131 952 c 0
 131 1208 226 1395 370 1513 c 128
 473 1597 628 1653 813 1653 c 128
 1096 1653 1282 1535 1390 1358 c 128
 1456 1249 1495 1118 1495 952 c 0
EndSplineSet
EndChar

StartChar: pi
Encoding: 960 960 367
Width: 1537
GlyphClass: 2
Flags: HW
LayerCount: 2
Fore
SplineSet
298 761 m 1
 229 761 177 750 144 730 c 128
 111 710 94 684 94 651 c 1
 36 651 l 1
 36 676 36 697 36 715 c 0
 36 768 36 800 44 860 c 128
 53 929 64 946 98 989 c 128
 132 1032 172 1038 236 1054 c 128
 308 1072 380 1072 471 1072 c 0
 480 1072 489 1072 498 1072 c 2
 1444 1072 l 1
 1444 761 l 1
 1295 761 l 1
 1295 755 1295 755 1295 744 c 0
 1295 527 1302 396 1315 352 c 128
 1328 308 1372 287 1445 287 c 1
 1445 -18 l 1
 1431 -18 1418 -18 1407 -18 c 0
 1339 -18 1319 -17 1240 -14 c 128
 1158 -11 1147 -7 1079 8 c 128
 1018 22 1007 39 964 70 c 128
 924 99 914 138 895 190 c 128
 875 245 871 311 871 388 c 2
 871 761 l 1
 713 761 l 1
 712 0 l 1
 151 0 l 1
 298 761 l 1
EndSplineSet
EndChar

StartChar: uni2010
Encoding: 8208 8208 393
Width: 838
GlyphClass: 2
Flags: HW
LayerCount: 2
Fore
SplineSet
742 836 m 1
 742 537 l 1
 95 537 l 1
 95 836 l 1
 742 836 l 1
EndSplineSet
EndChar

StartChar: uni2011
Encoding: 8209 8209 394
Width: 838
GlyphClass: 2
Flags: HW
LayerCount: 2
Fore
SplineSet
742 836 m 1
 742 537 l 1
 95 537 l 1
 95 836 l 1
 742 836 l 1
EndSplineSet
EndChar

StartChar: figuredash
Encoding: 8210 8210 395
Width: 838
GlyphClass: 2
Flags: HW
LayerCount: 2
Fore
SplineSet
742 836 m 1
 742 537 l 1
 95 537 l 1
 95 836 l 1
 742 836 l 1
EndSplineSet
EndChar

StartChar: endash
Encoding: 8211 8211 396
Width: 838
GlyphClass: 2
Flags: HW
LayerCount: 2
Fore
SplineSet
742 836 m 1
 742 537 l 1
 95 537 l 1
 95 836 l 1
 742 836 l 1
EndSplineSet
EndChar

StartChar: emdash
Encoding: 8212 8212 397
Width: 1360
GlyphClass: 2
Flags: HW
LayerCount: 2
Fore
SplineSet
1265 836 m 1
 1265 537 l 1
 95 537 l 1
 95 836 l 1
 1265 836 l 1
EndSplineSet
EndChar

StartChar: quoteleft
Encoding: 8216 8216 398
Width: 683
GlyphClass: 2
Flags: HW
LayerCount: 2
Fore
SplineSet
601 1428 m 1
 503 1428 435 1403 420 1322 c 128
 413 1284 412 1267 412 1229 c 0
 412 1222 412 1214 412 1205 c 1
 601 1205 l 1
 601 839 l 1
 91 839 l 1
 75 942 67 1034 67 1116 c 0
 67 1485 233 1653 601 1653 c 1
 601 1428 l 1
EndSplineSet
EndChar

StartChar: quoteright
Encoding: 8217 8217 399
Width: 667
GlyphClass: 2
Flags: HW
LayerCount: 2
Fore
SplineSet
87 1034 m 1
 185 1034 253 1059 268 1140 c 128
 275 1178 276 1195 276 1233 c 0
 276 1240 276 1248 276 1257 c 1
 87 1257 l 1
 87 1623 l 1
 597 1623 l 1
 613 1520 621 1427 621 1346 c 0
 621 977 455 809 87 809 c 1
 87 1034 l 1
EndSplineSet
EndChar

StartChar: quotesinglbase
Encoding: 8218 8218 400
Width: 716
GlyphClass: 2
Flags: HW
LayerCount: 2
Fore
SplineSet
95 -223 m 1
 193 -223 261 -198 276 -117 c 128
 283 -79 284 -62 284 -24 c 0
 284 -17 284 -9 284 0 c 1
 95 0 l 1
 95 366 l 1
 605 366 l 1
 621 263 629 171 629 89 c 0
 629 -280 463 -448 95 -448 c 1
 95 -223 l 1
EndSplineSet
EndChar

StartChar: quotedblleft
Encoding: 8220 8220 401
Width: 1315
GlyphClass: 2
Flags: HW
LayerCount: 2
Fore
SplineSet
1233 1428 m 1
 1135 1428 1067 1403 1052 1322 c 128
 1045 1284 1044 1267 1044 1229 c 0
 1044 1222 1044 1214 1044 1205 c 1
 1233 1205 l 1
 1233 839 l 1
 723 839 l 1
 707 942 699 1034 699 1116 c 0
 699 1485 865 1653 1233 1653 c 1
 1233 1428 l 1
602 1428 m 1
 504 1428 435 1403 420 1322 c 128
 413 1284 413 1267 413 1229 c 0
 413 1222 413 1214 413 1205 c 1
 602 1205 l 1
 602 839 l 1
 92 839 l 1
 76 942 68 1034 68 1116 c 0
 68 1485 234 1653 602 1653 c 1
 602 1428 l 1
EndSplineSet
EndChar

StartChar: quotedblright
Encoding: 8221 8221 402
Width: 1317
GlyphClass: 2
Flags: HW
LayerCount: 2
Fore
SplineSet
738 1034 m 1
 836 1034 905 1059 920 1140 c 128
 927 1178 927 1195 927 1233 c 0
 927 1240 927 1248 927 1257 c 1
 738 1257 l 1
 738 1623 l 1
 1248 1623 l 1
 1264 1520 1272 1427 1272 1346 c 0
 1272 977 1106 809 738 809 c 1
 738 1034 l 1
87 1034 m 1
 185 1034 253 1059 268 1140 c 128
 275 1178 276 1195 276 1233 c 0
 276 1240 276 1248 276 1257 c 1
 87 1257 l 1
 87 1623 l 1
 597 1623 l 1
 613 1520 621 1427 621 1346 c 0
 621 977 455 809 87 809 c 1
 87 1034 l 1
EndSplineSet
EndChar

StartChar: quotedblbase
Encoding: 8222 8222 403
Width: 1350
GlyphClass: 2
Flags: HW
LayerCount: 2
Fore
SplineSet
730 -223 m 1
 828 -223 897 -198 912 -117 c 128
 919 -79 919 -62 919 -24 c 0
 919 -17 919 -9 919 0 c 1
 730 0 l 1
 730 366 l 1
 1240 366 l 1
 1256 263 1264 171 1264 89 c 0
 1264 -280 1098 -448 730 -448 c 1
 730 -223 l 1
95 -223 m 1
 193 -223 261 -198 276 -117 c 128
 283 -79 284 -62 284 -24 c 0
 284 -17 284 -9 284 0 c 1
 95 0 l 1
 95 366 l 1
 605 366 l 1
 621 263 629 171 629 89 c 0
 629 -280 463 -448 95 -448 c 1
 95 -223 l 1
EndSplineSet
EndChar

StartChar: dagger
Encoding: 8224 8224 404
Width: 916
GlyphClass: 2
Flags: HW
LayerCount: 2
Fore
SplineSet
61 1286 m 1
 303 1286 l 1
 303 1623 l 1
 618 1623 l 1
 618 1286 l 1
 853 1286 l 1
 853 991 l 1
 618 991 l 1
 618 0 l 1
 303 0 l 1
 303 991 l 1
 61 991 l 1
 61 1286 l 1
EndSplineSet
EndChar

StartChar: daggerdbl
Encoding: 8225 8225 405
Width: 935
GlyphClass: 2
Flags: HW
LayerCount: 2
Fore
SplineSet
71 1286 m 1
 313 1286 l 1
 313 1623 l 1
 628 1623 l 1
 628 1286 l 1
 863 1286 l 1
 863 991 l 1
 628 991 l 1
 628 681 l 1
 863 681 l 1
 863 386 l 1
 628 386 l 1
 628 0 l 1
 313 0 l 1
 313 386 l 1
 71 386 l 1
 71 681 l 1
 313 681 l 1
 313 991 l 1
 71 991 l 1
 71 1286 l 1
EndSplineSet
EndChar

StartChar: bullet
Encoding: 8226 8226 406
Width: 935
GlyphClass: 2
Flags: HW
LayerCount: 2
Fore
SplineSet
74 537 m 2
 74 550 l 2
 74 737 181 848 320 896 c 128
 366 912 413 919 463 919 c 0
 577 919 670 878 737 824 c 128
 809 766 863 664 863 537 c 0
 863 339 755 218 610 166 c 128
 563 149 515 141 464 141 c 0
 350 141 258 184 193 240 c 128
 122 301 74 406 74 537 c 2
EndSplineSet
EndChar

StartChar: ellipsis
Encoding: 8230 8230 407
Width: 2158
GlyphClass: 2
Flags: HW
LayerCount: 2
Fore
SplineSet
2102 223 m 0
 2102 67 1973 -27 1815 -27 c 0
 1660 -27 1538 68 1538 223 c 0
 1538 378 1658 468 1815 468 c 0
 1976 468 2102 380 2102 223 c 0
1361 223 m 0
 1361 67 1232 -27 1074 -27 c 0
 919 -27 797 68 797 223 c 0
 797 378 917 468 1074 468 c 0
 1235 468 1361 380 1361 223 c 0
621 223 m 0
 621 67 492 -27 334 -27 c 0
 179 -27 57 68 57 223 c 0
 57 378 177 468 334 468 c 0
 495 468 621 380 621 223 c 0
EndSplineSet
EndChar

StartChar: perthousand
Encoding: 8240 8240 409
Width: 3811
GlyphClass: 2
Flags: HW
LayerCount: 2
Fore
SplineSet
3278 -18 m 0
 2950 -18 2760 193 2760 521 c 0
 2760 748 2852 922 2992 1018 c 128
 3068 1070 3155 1096 3254 1096 c 0
 3579 1096 3755 879 3755 555 c 0
 3755 393 3708 258 3638 159 c 128
 3567 59 3443 -18 3278 -18 c 0
3355 540 m 1
 3355 637 3350 747 3260 755 c 1
 3223 753 3196 732 3180 693 c 0
 3169 665 3164 614 3164 540 c 0
 3164 401 3195 332 3257 332 c 0
 3345 332 3354 425 3354 513 c 1
 3355 540 l 1
937 0 m 1
 1278 1623 l 1
 1782 1623 l 1
 1440 0 l 1
 937 0 l 1
574 539 m 0
 246 539 56 750 56 1078 c 0
 56 1305 148 1478 288 1574 c 128
 364 1626 451 1653 550 1653 c 0
 875 1653 1051 1436 1051 1112 c 0
 1051 950 1004 815 934 716 c 128
 863 616 739 539 574 539 c 0
651 1096 m 1
 651 1193 646 1304 556 1312 c 1
 466 1309 460 1216 460 1097 c 0
 460 958 491 889 553 889 c 0
 641 889 650 982 650 1070 c 1
 651 1096 l 1
2193 -18 m 0
 1865 -18 1675 193 1675 521 c 0
 1675 748 1767 922 1907 1018 c 128
 1983 1070 2070 1096 2169 1096 c 0
 2494 1096 2670 879 2670 555 c 0
 2670 393 2623 258 2553 159 c 128
 2482 59 2358 -18 2193 -18 c 0
2269 540 m 2
 2269 551 2270 561 2270 572 c 0
 2270 659 2253 748 2175 755 c 1
 2138 753 2111 732 2095 693 c 0
 2084 665 2079 614 2079 540 c 0
 2079 401 2110 332 2172 332 c 0
 2260 332 2269 425 2269 513 c 2
 2269 540 l 2
EndSplineSet
EndChar

StartChar: guilsinglleft
Encoding: 8249 8249 410
Width: 696
GlyphClass: 2
Flags: HW
LayerCount: 2
Fore
SplineSet
33 669 m 1
 459 1073 l 1
 650 849 l 1
 335 534 l 1
 650 219 l 1
 459 -5 l 1
 33 399 l 1
 33 669 l 1
EndSplineSet
EndChar

StartChar: guilsinglright
Encoding: 8250 8250 411
Width: 696
GlyphClass: 2
Flags: HW
LayerCount: 2
Fore
SplineSet
663 399 m 1
 237 -5 l 1
 46 219 l 1
 361 534 l 1
 46 849 l 1
 237 1073 l 1
 663 669 l 1
 663 399 l 1
EndSplineSet
EndChar

StartChar: fraction
Encoding: 8260 8260 412
Width: 962
GlyphClass: 2
Flags: HW
LayerCount: 2
Fore
SplineSet
24 0 m 1
 365 1623 l 1
 939 1623 l 1
 597 0 l 1
 24 0 l 1
EndSplineSet
EndChar

StartChar: uni2074
Encoding: 8308 8308 414
Width: 812
GlyphClass: 2
Flags: HW
LayerCount: 2
Fore
SplineSet
615 455 m 1
 687 455 l 1
 687 286 l 1
 273 286 l 1
 273 455 l 1
 347 455 l 1
 347 532 l 1
 34 532 l 1
 34 690 l 1
 358 1074 l 1
 616 1073 l 1
 616 682 l 1
 749 683 l 1
 749 532 l 1
 615 532 l 1
 615 455 l 1
347 683 m 1
 347 821 l 1
 236 684 l 1
 347 683 l 1
EndSplineSet
EndChar

StartChar: Euro
Encoding: 8364 8364 415
Width: 1608
GlyphClass: 2
Flags: HW
LayerCount: 2
Fore
SplineSet
1166 82 m 1
 1084 4 960 -18 806 -18 c 0
 527 -18 362 125 264 308 c 128
 230 371 204 440 185 517 c 1
 65 517 l 1
 65 741 l 1
 153 741 l 1
 152 755 152 776 152 804 c 128
 152 832 152 853 153 867 c 1
 65 867 l 1
 65 1091 l 1
 184 1091 l 1
 243 1343 377 1545 612 1622 c 128
 672 1642 737 1652 806 1652 c 0
 961 1652 1084 1630 1166 1552 c 1
 1200 1623 l 1
 1511 1623 l 1
 1512 991 l 1
 1214 991 l 1
 1214 994 1214 998 1214 1001 c 0
 1214 1159 1140 1290 980 1290 c 0
 889 1290 828 1224 797 1091 c 1
 980 1091 l 1
 980 867 l 1
 773 867 l 1
 773 825 773 783 773 741 c 1
 980 741 l 1
 980 517 l 1
 800 517 l 1
 831 402 891 344 980 344 c 0
 1140 344 1214 475 1214 633 c 0
 1214 636 1214 640 1214 643 c 1
 1512 643 l 1
 1511 11 l 1
 1200 11 l 1
 1166 82 l 1
EndSplineSet
EndChar

StartChar: trademark
Encoding: 8482 8482 416
Width: 2717
GlyphClass: 2
Flags: HW
LayerCount: 2
Fore
SplineSet
853 1183 m 1
 811 1382 l 1
 740 1382 l 1
 740 778 l 1
 850 778 l 1
 850 537 l 1
 254 537 l 1
 254 778 l 1
 364 778 l 1
 364 1382 l 1
 297 1382 l 1
 254 1183 l 1
 66 1183 l 1
 66 1622 l 1
 1041 1622 l 1
 1041 1183 l 1
 853 1183 l 1
1462 895 m 2
 1462 856 1462 820 1485 803 c 128
 1504 789 1535 781 1571 781 c 1
 1571 537 l 1
 1135 537 l 1
 1135 774 l 1
 1192 774 1229 792 1238 840 c 128
 1244 874 1245 887 1245 920 c 0
 1245 927 1245 935 1245 944 c 2
 1245 1383 l 1
 1133 1383 l 1
 1133 1623 l 1
 1691 1623 l 1
 1899 1110 l 1
 2083 1623 l 1
 2608 1623 l 1
 2608 1390 l 1
 2510 1390 l 1
 2510 783 l 1
 2613 783 l 1
 2613 537 l 1
 2075 537 l 1
 2075 783 l 1
 2158 783 l 1
 2158 1191 l 1
 1929 537 l 1
 1741 537 l 1
 1462 1205 l 1
 1462 895 l 2
EndSplineSet
EndChar

StartChar: partialdiff
Encoding: 8706 8706 417
Width: 1354
GlyphClass: 2
Flags: HW
LayerCount: 2
Fore
SplineSet
770 1345 m 1
 882 1233 998 1125 1098 1002 c 128
 1150 938 1177 894 1218 822 c 128
 1263 742 1303 652 1303 534 c 0
 1303 296 1162 129 992 49 c 128
 897 4 792 -18 676 -18 c 0
 435 -18 246 103 144 256 c 128
 85 344 56 441 56 550 c 0
 56 835 253 1009 529 1023 c 1
 522 1041 494 1076 446 1128 c 128
 398 1180 351 1230 304 1276 c 128
 257 1322 234 1344 234 1345 c 2
 770 1345 l 1
682 327 m 0
 773 327 787 459 787 550 c 0
 787 663 779 772 670 775 c 1
 629 775 600 743 588 714 c 128
 570 670 566 603 566 544 c 0
 566 399 605 327 682 327 c 0
EndSplineSet
EndChar

StartChar: uni2206
Encoding: 8710 8710 418
Width: 1432
GlyphClass: 2
Flags: HW
LayerCount: 2
Fore
SplineSet
137 55 m 1
 457 1238 l 1
 930 1238 l 1
 1220 55 l 1
 1220 0 l 1
 137 0 l 1
 137 55 l 1
536 205 m 1
 916 205 l 1
 745 1080 l 1
 536 205 l 1
EndSplineSet
EndChar

StartChar: product
Encoding: 8719 8719 419
Width: 1837
GlyphClass: 2
Flags: HW
LayerCount: 2
Fore
SplineSet
1763 1247 m 1
 1622 1247 l 1
 1622 351 l 1
 1769 351 l 1
 1769 0 l 1
 969 0 l 1
 969 351 l 1
 1053 351 l 1
 1053 1272 l 1
 784 1272 l 1
 784 351 l 1
 880 351 l 1
 879 0 l 1
 70 0 l 1
 70 351 l 1
 217 351 l 1
 217 1247 l 1
 70 1247 l 1
 70 1623 l 1
 1763 1623 l 1
 1763 1247 l 1
EndSplineSet
EndChar

StartChar: summation
Encoding: 8721 8721 420
Width: 1421
GlyphClass: 2
Flags: HW
LayerCount: 2
Fore
SplineSet
754 350 m 1
 1003 350 l 1
 1024 467 1054 574 1079 687 c 1
 1352 687 l 1
 1352 0 l 1
 73 0 l 1
 73 348 l 1
 231 348 l 1
 419 833 l 1
 231 1270 l 1
 73 1270 l 1
 73 1623 l 1
 1341 1623 l 1
 1341 969 l 1
 1073 968 l 1
 997 1270 l 1
 754 1270 l 1
 935 833 l 1
 754 350 l 1
EndSplineSet
EndChar

StartChar: minus
Encoding: 8722 8722 421
Width: 844
GlyphClass: 2
Flags: HW
LayerCount: 2
Fore
SplineSet
746 539 m 1
 746 315 l 1
 99 315 l 1
 99 539 l 1
 746 539 l 1
EndSplineSet
EndChar

StartChar: radical
Encoding: 8730 8730 422
Width: 2486
GlyphClass: 2
Flags: HW
LayerCount: 2
Fore
SplineSet
79 978 m 1
 560 977 l 1
 752 218 l 1
 1062 1622 l 1
 1876 1622 l 1
 1876 1249 l 1
 1223 1249 l 1
 930 0 l 1
 457 0 l 1
 322 588 l 1
 300 625 276 648 250 656 c 128
 224 664 166 667 79 667 c 1
 79 978 l 1
EndSplineSet
EndChar

StartChar: infinity
Encoding: 8734 8734 423
Width: 1337
GlyphClass: 2
Flags: HW
LayerCount: 2
Fore
SplineSet
621 939 m 1
 677 1008 774 1073 901 1073 c 0
 1143 1073 1268 907 1268 670 c 128
 1268 433 1142 267 901 267 c 0
 801 267 726 306 669 347 c 128
 645 364 636 373 621 391 c 1
 566 323 466 267 341 267 c 0
 99 267 -26 433 -26 670 c 128
 -26 907 100 1073 341 1073 c 0
 471 1073 565 1010 621 939 c 1
345 750 m 0
 280 750 230 736 230 670 c 128
 230 604 280 590 345 590 c 0
 389 590 465 631 495 650 c 2
 527 670 l 1
 446 723 385 750 345 750 c 0
897 590 m 0
 962 590 1012 604 1012 670 c 128
 1012 736 962 750 897 750 c 0
 853 750 777 709 747 690 c 2
 715 670 l 1
 796 617 857 590 897 590 c 0
EndSplineSet
EndChar

StartChar: integral
Encoding: 8747 8747 424
Width: 864
GlyphClass: 2
Flags: HW
LayerCount: 2
Fore
SplineSet
615 1115 m 0
 615 861 620 611 620 458 c 0
 620 307 618 209 616 164 c 1
 616 -105 490 -239 239 -239 c 0
 137 -239 -4 -215 -69 -192 c 1
 -69 119 l 1
 -30 110 2 106 27 106 c 0
 126 106 134 181 134 299 c 2
 134 1207 l 2
 134 1476 261 1610 514 1610 c 0
 616 1610 757 1586 822 1563 c 1
 822 1252 l 1
 783 1261 751 1265 726 1265 c 0
 637 1265 615 1208 615 1115 c 0
EndSplineSet
EndChar

StartChar: approxequal
Encoding: 8776 8776 425
Width: 1707
GlyphClass: 2
Flags: HW
LayerCount: 2
Fore
SplineSet
1090 74 m 0
 1006 74 922 113 864 146 c 128
 797 184 733 227 660 256 c 128
 625 270 593 277 564 277 c 0
 546 277 524 266 499 243 c 128
 474 220 425 166 352 79 c 1
 221 165 l 1
 253 214 302 320 331 374 c 128
 379 463 441 567 575 567 c 0
 710 567 815 489 904 438 c 128
 957 408 1031 368 1104 368 c 0
 1121 368 1143 380 1170 403 c 128
 1197 426 1244 479 1313 562 c 1
 1442 477 l 1
 1382 387 1336 261 1274 174 c 128
 1235 119 1178 74 1090 74 c 0
1112 629 m 0
 1028 629 944 667 886 700 c 128
 819 738 755 782 682 811 c 128
 647 825 615 832 586 832 c 0
 568 832 546 821 521 798 c 128
 496 775 447 721 374 634 c 1
 243 720 l 1
 275 769 324 876 353 930 c 128
 401 1019 463 1122 597 1122 c 0
 732 1122 837 1044 926 993 c 128
 979 963 1053 923 1126 923 c 0
 1143 923 1165 935 1192 958 c 128
 1219 981 1266 1034 1335 1117 c 1
 1464 1032 l 1
 1404 942 1358 815 1296 728 c 128
 1257 673 1200 629 1112 629 c 0
EndSplineSet
EndChar

StartChar: notequal
Encoding: 8800 8800 426
Width: 774
GlyphClass: 2
Flags: HW
LayerCount: 2
Fore
SplineSet
717 392 m 1
 717 169 l 1
 70 169 l 1
 70 392 l 1
 717 392 l 1
717 761 m 1
 717 538 l 1
 70 538 l 1
 70 761 l 1
 717 761 l 1
EndSplineSet
EndChar

StartChar: lessequal
Encoding: 8804 8804 427
Width: 456
GlyphClass: 2
Flags: HW
LayerCount: 2
Fore
SplineSet
-129 1182 m 1
 586 1778 l 1
 586 1313 l 1
 253 997 l 1
 586 681 l 1
 586 216 l 1
 -129 812 l 1
 -129 1182 l 1
-95 224 m 1
 552 224 l 1
 552 0 l 1
 -95 0 l 1
 -95 224 l 1
EndSplineSet
EndChar

StartChar: greaterequal
Encoding: 8805 8805 428
Width: 456
GlyphClass: 2
Flags: HW
LayerCount: 2
Fore
SplineSet
586 812 m 1
 -129 216 l 1
 -129 681 l 1
 204 997 l 1
 -129 1313 l 1
 -129 1778 l 1
 586 1182 l 1
 586 812 l 1
552 224 m 1
 552 0 l 1
 -95 0 l 1
 -95 224 l 1
 552 224 l 1
EndSplineSet
EndChar

StartChar: lozenge
Encoding: 9674 9674 429
Width: 1432
GlyphClass: 2
Flags: HW
LayerCount: 2
Fore
SplineSet
137 762 m 1
 457 1525 l 1
 930 1525 l 1
 1221 762 l 1
 930 -1 l 1
 457 -1 l 1
 137 762 l 1
496 762 m 1
 705 267 l 1
 876 762 l 1
 705 1257 l 1
 496 762 l 1
EndSplineSet
EndChar

StartChar: uniE000
Encoding: 57344 57344 430
Width: 1070
GlyphClass: 2
Flags: HW
LayerCount: 2
Fore
SplineSet
0 1070 m 1
 1070 1070 l 1
 1070 0 l 1
 0 0 l 1
 0 1070 l 1
EndSplineSet
EndChar

StartChar: uniF6D6
Encoding: 63190 63190 431
Width: 1478
GlyphClass: 2
Flags: HW
LayerCount: 2
Fore
SplineSet
962 1814 m 1
 1115 1188 l 1
 950 1128 l 1
 662 1695 l 1
 962 1814 l 1
362 1795 m 1
 669 1228 l 1
 525 1129 l 1
 102 1604 l 1
 362 1795 l 1
EndSplineSet
EndChar

StartChar: uniFB00
Encoding: 64256 64256 433
Width: 1750
GlyphClass: 2
Flags: HW
LayerCount: 2
Fore
SplineSet
555 1610 m 0
 657 1610 798 1586 863 1563 c 1
 863 1252 l 1
 824 1261 792 1265 767 1265 c 0
 678 1265 656 1208 656 1115 c 0
 656 1101 656 1087 657 1072 c 1
 1052 1072 l 1
 1052 1074 1051 1119 1050 1207 c 1
 1050 1476 1177 1610 1430 1610 c 0
 1532 1610 1673 1586 1738 1563 c 1
 1738 1252 l 1
 1699 1261 1667 1265 1642 1265 c 0
 1553 1265 1531 1208 1531 1115 c 0
 1531 1101 1531 1087 1532 1072 c 1
 1711 1072 l 1
 1711 761 l 1
 1539 761 l 1
 1539 305 l 1
 1649 305 l 1
 1649 0 l 1
 969 0 l 1
 969 305 l 1
 1053 305 l 1
 1053 761 l 1
 664 761 l 1
 664 305 l 1
 774 305 l 1
 774 0 l 1
 94 0 l 1
 94 305 l 1
 178 305 l 1
 178 761 l 1
 94 761 l 1
 94 1072 l 1
 177 1072 l 1
 177 1074 176 1119 175 1207 c 1
 175 1476 302 1610 555 1610 c 0
EndSplineSet
EndChar

StartChar: uniFB01
Encoding: 64257 64257 434
Width: 1691
GlyphClass: 2
Flags: HW
LayerCount: 2
Fore
SplineSet
863 1563 m 1
 863 1252 l 1
 824 1261 792 1265 767 1265 c 0
 678 1265 656 1208 656 1115 c 0
 656 1101 656 1087 657 1072 c 1
 1538 1072 l 1
 1538 299 l 1
 1622 299 l 1
 1622 0 l 1
 975 0 l 1
 975 299 l 1
 1057 299 l 1
 1057 761 l 1
 664 761 l 1
 664 299 l 1
 774 299 l 1
 774 0 l 1
 94 0 l 1
 94 299 l 1
 178 299 l 1
 178 761 l 1
 94 761 l 1
 94 1072 l 1
 177 1072 l 1
 177 1074 176 1119 175 1207 c 1
 175 1476 302 1610 555 1610 c 0
 657 1610 798 1586 863 1563 c 1
1544 1385 m 0
 1544 1229 1415 1135 1257 1135 c 0
 1102 1135 980 1230 980 1385 c 0
 980 1540 1100 1630 1257 1630 c 0
 1418 1630 1544 1542 1544 1385 c 0
EndSplineSet
EndChar

StartChar: uniFB02
Encoding: 64258 64258 435
Width: 1703
GlyphClass: 2
Flags: HW
LayerCount: 2
Fore
SplineSet
766 1635 m 0
 823 1635 916 1630 973 1630 c 2
 1552 1630 l 1
 1552 306 l 1
 1630 306 l 1
 1630 0 l 1
 983 0 l 1
 983 306 l 1
 1057 306 l 1
 1057 1317 l 1
 937 1317 937 1317 889 1317 c 128
 845 1317 732 1305 708 1288 c 128
 688 1274 659 1212 659 1176 c 128
 659 1144 659 1145 659 1072 c 1
 836 1072 l 1
 836 761 l 1
 664 761 l 1
 664 299 l 1
 774 299 l 1
 774 0 l 1
 94 0 l 1
 94 299 l 1
 178 299 l 1
 178 761 l 1
 94 761 l 1
 94 1072 l 1
 177 1072 l 1
 177 1074 176 1119 175 1207 c 1
 175 1537 436 1635 766 1635 c 0
EndSplineSet
EndChar

StartChar: uniFB03
Encoding: 64259 64259 436
Width: 2564
GlyphClass: 2
Flags: HW
LayerCount: 2
Fore
SplineSet
863 1563 m 1
 863 1252 l 1
 824 1261 792 1265 767 1265 c 0
 678 1265 656 1208 656 1115 c 0
 656 1101 656 1087 657 1072 c 1
 1052 1072 l 1
 1052 1074 1051 1119 1050 1207 c 1
 1050 1476 1177 1610 1430 1610 c 0
 1532 1610 1673 1586 1738 1563 c 1
 1738 1252 l 1
 1699 1261 1667 1265 1642 1265 c 0
 1553 1265 1531 1208 1531 1115 c 0
 1531 1101 1531 1087 1532 1072 c 1
 2411 1072 l 1
 2411 305 l 1
 2495 305 l 1
 2495 0 l 1
 1848 0 l 1
 1848 305 l 1
 1930 305 l 1
 1930 761 l 1
 1539 761 l 1
 1539 305 l 1
 1649 305 l 1
 1649 0 l 1
 969 0 l 1
 969 305 l 1
 1053 305 l 1
 1053 761 l 1
 664 761 l 1
 664 305 l 1
 774 305 l 1
 774 0 l 1
 94 0 l 1
 94 305 l 1
 178 305 l 1
 178 761 l 1
 94 761 l 1
 94 1072 l 1
 177 1072 l 1
 177 1074 176 1119 175 1207 c 1
 175 1476 302 1610 555 1610 c 0
 657 1610 798 1586 863 1563 c 1
2417 1385 m 0
 2417 1229 2288 1135 2130 1135 c 0
 1975 1135 1853 1230 1853 1385 c 0
 1853 1540 1973 1630 2130 1630 c 0
 2291 1630 2417 1542 2417 1385 c 0
EndSplineSet
EndChar

StartChar: uniFB04
Encoding: 64260 64260 437
Width: 2544
GlyphClass: 2
Flags: HW
LayerCount: 2
Fore
SplineSet
1430 1610 m 0
 1532 1610 1673 1586 1738 1563 c 1
 1738 1252 l 1
 1699 1261 1667 1265 1642 1265 c 0
 1553 1265 1531 1208 1531 1115 c 0
 1531 1101 1531 1087 1532 1072 c 1
 1711 1072 l 1
 1711 761 l 1
 1539 761 l 1
 1539 305 l 1
 1649 305 l 1
 1649 0 l 1
 969 0 l 1
 969 305 l 1
 1053 305 l 1
 1053 761 l 1
 664 761 l 1
 664 305 l 1
 774 305 l 1
 774 0 l 1
 94 0 l 1
 94 305 l 1
 178 305 l 1
 178 761 l 1
 94 761 l 1
 94 1072 l 1
 177 1072 l 1
 177 1074 176 1119 175 1207 c 1
 175 1476 302 1610 555 1610 c 0
 657 1610 798 1586 863 1563 c 1
 863 1252 l 1
 824 1261 792 1265 767 1265 c 0
 678 1265 656 1208 656 1115 c 0
 656 1101 656 1087 657 1072 c 1
 1052 1072 l 1
 1052 1074 1051 1119 1050 1207 c 1
 1050 1476 1177 1610 1430 1610 c 0
2394 305 m 1
 2472 305 l 1
 2472 0 l 1
 1825 0 l 1
 1825 305 l 1
 1899 305 l 1
 1899 1317 l 1
 1815 1317 l 1
 1815 1630 l 1
 2394 1630 l 1
 2394 305 l 1
EndSplineSet
EndChar

StartChar: invertedbreve
Encoding: 65539 -1 438
Width: 1707
GlyphClass: 2
Flags: HW
LayerCount: 2
Fore
SplineSet
770 1313 m 128
 681 1313 618 1246 618 1152 c 1
 366 1152 l 1
 366 1332 483 1431 622 1474 c 128
 670 1489 719 1496 770 1496 c 128
 944 1496 1079 1420 1140 1302 c 128
 1163 1257 1174 1207 1174 1152 c 1
 922 1152 l 1
 922 1246 859 1313 770 1313 c 128
EndSplineSet
EndChar

StartChar: macron
Encoding: 65540 -1 439
Width: 1090
GlyphClass: 2
Flags: HW
LayerCount: 2
Fore
SplineSet
924 1183 m 1
 176 1183 l 1
 176 1518 l 1
 924 1518 l 1
 924 1183 l 1
EndSplineSet
EndChar

StartChar: Ymacron
Encoding: 65541 -1 440
Width: 1559
GlyphClass: 2
Flags: HW
LayerCount: 2
Fore
SplineSet
989 1270 m 130
 927 1270 l 1
 927 1622 l 1
 1564 1622 l 1
 1564 1270 l 1
 1490 1270 l 2
 1358 1270 1326 1182 1279 1095 c 1
 1075 724 l 1
 1075 359 l 1
 1232 359 l 1
 1232 0 l 1
 363 0 l 1
 363 359 l 1
 518 359 l 1
 518 672 l 1
 97 1270 l 1
 -15 1270 l 1
 -15 1622 l 1
 837 1622 l 1
 837 1270 l 1
 746 1270 l 1
 763 1246 913 1017 930 993 c 1
 1006 1108 1044 1184 1044 1221 c 0
 1044 1256 1024 1270 989 1270 c 130
1208 1696 m 1
 460 1696 l 1
 460 2031 l 1
 1208 2031 l 1
 1208 1696 l 1
EndSplineSet
EndChar

StartChar: Delta
Encoding: 65543 -1 442
Width: 1432
GlyphClass: 2
Flags: HW
LayerCount: 2
Fore
SplineSet
137 55 m 1
 457 1238 l 1
 930 1238 l 1
 1220 55 l 1
 1220 0 l 1
 137 0 l 1
 137 55 l 1
536 205 m 1
 916 205 l 1
 745 1080 l 1
 536 205 l 1
EndSplineSet
EndChar

StartChar: fi
Encoding: 65544 -1 443
Width: 1689
GlyphClass: 2
Flags: HW
LayerCount: 2
Fore
SplineSet
863 1563 m 1
 863 1252 l 1
 824 1261 792 1265 767 1265 c 0
 678 1265 656 1208 656 1115 c 0
 656 1101 656 1087 657 1072 c 1
 1536 1072 l 1
 1536 305 l 1
 1620 305 l 1
 1620 0 l 1
 973 0 l 1
 973 305 l 1
 1055 305 l 1
 1055 761 l 1
 664 761 l 1
 664 305 l 1
 774 305 l 1
 774 0 l 1
 94 0 l 1
 94 305 l 1
 178 305 l 1
 178 761 l 1
 94 761 l 1
 94 1072 l 1
 177 1072 l 1
 177 1074 176 1119 175 1207 c 1
 175 1476 302 1610 555 1610 c 0
 657 1610 798 1586 863 1563 c 1
1542 1385 m 0
 1542 1229 1413 1135 1255 1135 c 0
 1100 1135 978 1230 978 1385 c 0
 978 1540 1098 1630 1255 1630 c 0
 1416 1630 1542 1542 1542 1385 c 0
EndSplineSet
EndChar

StartChar: fl
Encoding: 65545 -1 444
Width: 1669
GlyphClass: 2
Flags: HW
LayerCount: 2
Fore
SplineSet
175 1207 m 0
 175 1470 296 1623 555 1623 c 2
 1519 1623 l 1
 1519 305 l 1
 1597 305 l 1
 1597 0 l 1
 950 0 l 1
 950 305 l 1
 1024 305 l 1
 1024 1310 l 1
 767 1310 l 2
 679 1310 656 1214 656 1113 c 0
 656 1099 656 1085 657 1072 c 1
 836 1072 l 1
 836 761 l 1
 664 761 l 1
 664 305 l 1
 774 305 l 1
 774 0 l 1
 94 0 l 1
 94 305 l 1
 178 305 l 1
 178 761 l 1
 94 761 l 1
 94 1072 l 1
 177 1072 l 1
 177 1112 176 1148 175 1207 c 0
EndSplineSet
EndChar
